<svg width="96" height="30" viewBox="0 0 96 30" fill="none" xmlns="http://www.w3.org/2000/svg">
<path fill-rule="evenodd" clip-rule="evenodd" d="M59.8527 22.7718C54.295 27.242 46.237 29.6196 39.2987 29.6196C29.574 29.6196 20.8175 25.7022 14.1902 19.1805C13.67 18.6684 14.1341 17.9686 14.7595 18.3654C21.9093 22.8999 30.7505 25.6308 39.8824 25.6308C46.0426 25.6308 52.8143 24.2374 59.045 21.3572C59.9847 20.9224 60.7725 22.0321 59.8527 22.7718Z" fill="#787878"/>
<path fill-rule="evenodd" clip-rule="evenodd" d="M62.5079 20.6408C61.7795 19.773 57.6949 20.2295 55.8603 20.4337C55.3045 20.4958 55.2182 20.0445 55.7193 19.7167C58.9774 17.5868 64.316 18.202 64.9365 18.9145C65.5621 19.6341 64.7731 24.6158 61.7193 26.9932C61.2495 27.359 60.803 27.1641 61.0111 26.6807C61.698 25.0841 63.2364 21.5086 62.5079 20.6408Z" fill="#787878"/>
<path fill-rule="evenodd" clip-rule="evenodd" d="M55.1552 3.97414V1.75514C55.1566 1.4174 55.4163 1.19224 55.7288 1.19292L65.8698 1.19189C66.1938 1.19189 66.4542 1.42358 66.4549 1.75239L66.4542 3.65562C66.4517 3.97483 66.1777 4.39152 65.6906 5.05258L60.4378 12.4084C62.3877 12.3638 64.4504 12.6497 66.2222 13.6265C66.6215 13.8466 66.7286 14.1733 66.7601 14.4929V16.8605C66.7601 17.1869 66.3961 17.5645 66.0136 17.3681C62.892 15.7645 58.7499 15.5892 55.2987 17.3874C54.9459 17.5717 54.5767 17.1996 54.5767 16.8732V14.6223C54.5767 14.2622 54.5837 13.6461 54.954 13.0969L61.04 4.53396L55.741 4.53293C55.4173 4.53293 55.1573 4.30639 55.1552 3.97414Z" fill="#787878"/>
<path fill-rule="evenodd" clip-rule="evenodd" d="M20.6259 17.4363H17.7322C17.4567 17.4182 17.2365 17.2104 17.2145 16.9456L17.2164 2.04265C17.2164 1.74457 17.4663 1.50611 17.7748 1.50611L20.4699 1.50545C20.7519 1.51995 20.9784 1.73403 20.9962 2.00576V3.95167H21.0503C21.7528 2.06999 23.0764 1.19189 24.8593 1.19189C26.6693 1.19189 27.8039 2.06999 28.6144 3.95167C29.3165 2.06999 30.9103 1.19189 32.6124 1.19189C33.828 1.19189 35.1515 1.69352 35.962 2.8226C36.8806 4.07683 36.6918 5.89593 36.6918 7.49535L36.6895 16.8998C36.6895 17.1975 36.4394 17.4363 36.1314 17.4363H33.2407C32.9502 17.4176 32.721 17.1867 32.721 16.9011L32.7204 9.00056C32.7204 8.37344 32.7745 6.80532 32.6393 6.20949C32.4233 5.20591 31.7749 4.92364 30.9375 4.92364C30.2354 4.92364 29.5056 5.39398 29.2085 6.14691C28.9114 6.89952 28.9387 8.15375 28.9387 9.00056V16.8998C28.9387 17.1975 28.6885 17.4363 28.3803 17.4363H25.4899C25.1993 17.4176 24.9702 17.1867 24.9702 16.9011L24.9673 9.00056C24.9673 7.33857 25.2374 4.89235 23.1844 4.89235C21.1042 4.89235 21.1852 7.27566 21.1852 9.00056L21.1843 16.8998C21.1846 17.1975 20.9344 17.4363 20.6259 17.4363Z" fill="#787878"/>
<path fill-rule="evenodd" clip-rule="evenodd" d="M75.6678 3.51348C73.5551 3.51348 73.4216 6.51747 73.4216 8.39098C73.4216 10.2648 73.3949 14.2707 75.6412 14.2707C77.8609 14.2707 77.9674 11.0401 77.9674 9.06954C77.9674 7.77756 77.9141 6.22705 77.5398 4.99919C77.2185 3.93317 76.5767 3.51348 75.6678 3.51348ZM75.6412 0.379883C79.893 0.379883 82.1923 4.1917 82.1923 9.03731C82.1923 13.7211 79.6526 17.4366 75.6412 17.4366C71.4697 17.4366 69.1967 13.6244 69.1967 8.87582C69.1967 4.09467 71.4963 0.379883 75.6412 0.379883Z" fill="#787878"/>
<path fill-rule="evenodd" clip-rule="evenodd" d="M87.309 17.4363H84.3537C84.0566 17.4176 83.8214 17.1867 83.8214 16.9011L83.8167 1.99259C83.8416 1.7202 84.0876 1.50611 84.3864 1.50611L87.138 1.50545C87.3968 1.5183 87.6104 1.69155 87.6649 1.92276V4.20232H87.7208C88.5516 2.16386 89.7141 1.19189 91.7632 1.19189C93.0919 1.19189 94.3937 1.66223 95.2245 2.94809C96 4.13974 96 6.14691 96 7.58922V16.9667C95.9664 17.2311 95.7245 17.4363 95.4314 17.4363H92.4577C92.1831 17.4189 91.9617 17.2216 91.9294 16.9667V8.87507C91.9294 7.24437 92.1232 4.86106 90.0741 4.86106C89.354 4.86106 88.6895 5.3314 88.3577 6.05271C87.9425 6.9621 87.8867 7.87148 87.8867 8.87507V16.8998C87.8813 17.1975 87.6249 17.4363 87.309 17.4363Z" fill="#787878"/>
<path fill-rule="evenodd" clip-rule="evenodd" d="M51.2367 17.0376C51.0416 17.2125 50.7606 17.2242 50.5407 17.1061C49.5623 16.2921 49.3869 15.9158 48.8523 15.1413C47.235 16.7901 46.0896 17.2844 43.9955 17.2844C41.5155 17.2844 39.5862 15.7526 39.5862 12.6891C39.5862 10.2955 40.8813 8.6681 42.7278 7.87012C44.326 7.16779 46.5584 7.04036 48.2669 6.84873V6.46579C48.2669 5.76379 48.322 4.93403 47.9087 4.32768C47.5501 3.78522 46.8615 3.56181 46.255 3.56181C45.1316 3.56181 44.1329 4.13805 43.8873 5.33236C43.8365 5.5979 43.6427 5.86078 43.3757 5.87416L40.5204 5.56513C40.2795 5.51061 40.0115 5.31697 40.081 4.94875C40.7373 1.48156 43.8652 0.434082 46.6687 0.434082C48.1015 0.434082 49.9753 0.817021 51.1051 1.90229C52.5382 3.24275 52.4002 5.02968 52.4002 6.97648V11.5701C52.4002 12.9517 52.9739 13.558 53.5122 14.3025C53.7003 14.5707 53.7428 14.8898 53.5025 15.0858C52.9007 15.5904 51.8318 16.5202 51.2434 17.0439L51.2367 17.0376ZM48.2669 9.84869C48.2669 10.9978 48.2943 11.955 47.7155 12.9764C47.2471 13.8062 46.5033 14.3165 45.6763 14.3165C44.5465 14.3165 43.8853 13.4547 43.8853 12.1784C43.8853 9.66742 46.1357 9.21057 48.2669 9.21057V9.84869Z" fill="#787878"/>
<path fill-rule="evenodd" clip-rule="evenodd" d="M12.6202 17.0376C12.4251 17.2125 12.1437 17.2242 11.9242 17.1061C10.9455 16.2921 10.7704 15.9158 10.2355 15.1413C8.61888 16.7901 7.47344 17.2844 5.37904 17.2844C2.8987 17.2844 0.970032 15.7526 0.970032 12.6891C0.970032 10.2955 2.26517 8.6681 4.1113 7.87012C5.70984 7.16779 7.94191 7.04036 9.65037 6.84873V6.46579C9.65037 5.76379 9.70551 4.93403 9.29217 4.32768C8.93397 3.78522 8.24464 3.56181 7.63884 3.56181C6.51545 3.56181 5.51603 4.13805 5.27111 5.33236C5.21998 5.5979 5.02652 5.86078 4.7592 5.87416L1.90429 5.56513C1.66304 5.51061 1.39473 5.31697 1.46456 4.94875C2.12048 1.48156 5.24872 0.434082 8.05184 0.434082C9.48497 0.434082 11.3588 0.817021 12.4889 1.90229C13.9217 3.24275 13.784 5.02968 13.784 6.97648V11.5701C13.784 12.9517 14.3571 13.558 14.8957 14.3025C15.0835 14.5707 15.126 14.8898 14.886 15.0858C14.2846 15.5904 13.215 16.5202 12.6272 17.0439L12.6202 17.0376ZM9.65037 9.84869C9.65037 10.9978 9.67811 11.955 9.09904 12.9764C8.63091 13.8062 7.88677 14.3165 7.0601 14.3165C5.93037 14.3165 5.26877 13.4547 5.26877 12.1784C5.26877 9.66742 7.51955 9.21057 9.65037 9.21057V9.84869Z" fill="#787878"/>
</svg>
