<svg width="65" height="64" viewBox="0 0 65 64" fill="none" xmlns="http://www.w3.org/2000/svg">
<rect x="0.5" width="64" height="64" rx="32" fill="#F2F5F6"/>
<path d="M46.25 47C42.7778 47 39.3472 46.2433 35.9583 44.73C32.5694 43.2167 29.4861 41.0706 26.7083 38.2917C23.9306 35.5128 21.785 32.4294 20.2717 29.0417C18.7583 25.6539 18.0011 22.2233 18 18.75C18 18.25 18.1667 17.8333 18.5 17.5C18.8333 17.1667 19.25 17 19.75 17H26.5C26.8889 17 27.2361 17.1322 27.5417 17.3967C27.8472 17.6611 28.0278 17.9733 28.0833 18.3333L29.1667 24.1667C29.2222 24.6111 29.2083 24.9861 29.125 25.2917C29.0417 25.5972 28.8889 25.8611 28.6667 26.0833L24.625 30.1667C25.1806 31.1944 25.84 32.1872 26.6033 33.145C27.3667 34.1028 28.2072 35.0267 29.125 35.9167C29.9861 36.7778 30.8889 37.5767 31.8333 38.3133C32.7778 39.05 33.7778 39.7233 34.8333 40.3333L38.75 36.4167C39 36.1667 39.3267 35.9794 39.73 35.855C40.1333 35.7306 40.5289 35.6956 40.9167 35.75L46.6667 36.9167C47.0556 37.0278 47.375 37.2294 47.625 37.5217C47.875 37.8139 48 38.14 48 38.5V45.25C48 45.75 47.8333 46.1667 47.5 46.5C47.1667 46.8333 46.75 47 46.25 47Z" fill="#12141D"/>
</svg>
