<svg width="97" height="20" viewBox="0 0 97 20" fill="none" xmlns="http://www.w3.org/2000/svg">
<path d="M16.0981 18.0528C11.6521 18.0528 8.04893 14.4478 8.04893 10.001C8.04893 5.55391 11.6521 1.95231 16.0981 1.95231C17.6651 1.95231 19.1282 2.39923 20.3641 3.17392L16.0981 10.001L24.1294 5.36361C23.2568 3.97334 22.0053 2.7754 20.492 1.86636C18.5664 0.713483 15.8877 0 12.9257 0C8.7005 0 4.99371 1.53538 2.92653 3.83469C1.39605 5.53442 0.484863 7.67368 0.484863 10.0008C0.484863 12.3297 1.39605 14.4705 2.92653 16.1714C4.99909 18.4736 8.65065 20 12.8062 20C16.9611 20 20.6116 18.4724 22.6854 16.1714C22.799 16.0447 22.909 15.9168 23.013 15.7841L22.6998 14.6103C21.2427 16.6902 18.8294 18.0528 16.0981 18.0528Z" fill="#787878"/>
<path d="M42.7249 19.5158L39.3541 6.94111C38.8126 4.90907 36.9622 3.41553 34.7593 3.41553C34.1879 3.41553 33.6405 3.51761 33.1325 3.7024L25.8757 6.34118H33.3393L34.6147 11.1043C33.3775 10.0395 31.7662 9.39162 30.0019 9.39162C26.4985 9.39162 23.662 11.7393 23.662 14.6353C23.662 17.5316 26.4985 19.8828 30.0019 19.8828C32.524 19.8828 34.7545 18.648 36.1303 16.7511L36.8702 19.5158H42.7249ZM32.4428 17.5627C30.8267 17.5627 29.5166 16.2538 29.5166 14.6353C29.5166 13.0193 30.8267 11.7092 32.4428 11.7092C34.0588 11.7092 35.3701 13.0193 35.3701 14.6353C35.3701 16.2538 34.0588 17.5627 32.4428 17.5627Z" fill="#787878"/>
<path d="M56.4686 3.41797C56.0263 3.41797 55.608 3.51575 55.235 3.69086L50.5757 5.86227C50.345 4.47522 49.1401 3.41797 47.6866 3.41797C47.2468 3.41797 46.8272 3.51575 46.4495 3.69086L40.761 6.34147H44.7605V19.5162H50.6152V7.80716C50.6152 6.99925 51.269 6.34159 52.0794 6.34159C52.8851 6.34159 53.5437 6.99925 53.5437 7.80716V19.5162H59.3959V6.34147C59.3959 4.72576 58.0847 3.41809 56.4686 3.41809" fill="#787878"/>
<path d="M78.4206 11.7094C78.4206 16.2888 74.7091 20.0002 70.131 20.0002C65.5494 20.0002 61.8356 16.2888 61.8356 11.7094C61.8356 7.13121 65.5494 3.41797 70.131 3.41797C74.7091 3.41797 78.4206 7.13133 78.4206 11.7094ZM70.4741 5.93434C70.2135 4.95873 69.2107 4.3796 68.2353 4.64185C67.2611 4.90303 66.679 5.90649 66.9408 6.88199L69.7844 17.4841C70.0474 18.4606 71.0479 19.0392 72.0232 18.781C72.9986 18.5168 73.5783 17.514 73.3166 16.5386L70.4741 5.93434Z" fill="#787878"/>
<path d="M93.1839 3.41797C92.7404 3.41797 92.3197 3.51575 91.9408 3.69086L87.2862 5.86227C87.0567 4.47522 85.8518 3.41797 84.3983 3.41797C83.9585 3.41797 83.5389 3.51575 83.16 3.69086L77.4739 6.34147H81.4722V19.5162H87.3257V7.80716C87.3257 6.99925 87.9807 6.34159 88.7911 6.34159C89.5991 6.34159 90.253 6.99925 90.253 7.80716V19.5162H96.11V6.34147C96.11 4.72576 94.7976 3.41809 93.1839 3.41809" fill="#787878"/>
</svg>
