<svg width="98" height="32" viewBox="0 0 98 32" fill="none" xmlns="http://www.w3.org/2000/svg">
<path d="M41.9942 16.8401C41.9942 21.444 38.3926 24.8365 33.9726 24.8365C29.5526 24.8365 25.9509 21.444 25.9509 16.8401C25.9509 12.2038 29.5526 8.84375 33.9726 8.84375C38.3926 8.84375 41.9942 12.2038 41.9942 16.8401ZM38.4827 16.8401C38.4827 13.9632 36.3953 11.9947 33.9726 11.9947C31.5499 11.9947 29.4624 13.9632 29.4624 16.8401C29.4624 19.6883 31.5499 21.6856 33.9726 21.6856C36.3953 21.6856 38.4827 19.6847 38.4827 16.8401Z" fill="#787878"/>
<path d="M59.2993 16.8401C59.2993 21.444 55.6977 24.8365 51.2777 24.8365C46.8577 24.8365 43.256 21.444 43.256 16.8401C43.256 12.2074 46.8577 8.84375 51.2777 8.84375C55.6977 8.84375 59.2993 12.2038 59.2993 16.8401ZM55.7878 16.8401C55.7878 13.9632 53.7004 11.9947 51.2777 11.9947C48.855 11.9947 46.7675 13.9632 46.7675 16.8401C46.7675 19.6883 48.855 21.6856 51.2777 21.6856C53.7004 21.6856 55.7878 19.6847 55.7878 16.8401Z" fill="#787878"/>
<path d="M75.8834 9.32685V23.6829C75.8834 29.5882 72.4007 32.0001 68.2835 32.0001C64.4079 32.0001 62.0753 29.408 61.1957 27.2881L64.2529 26.0154C64.7973 27.3169 66.1312 28.8528 68.2799 28.8528C70.9153 28.8528 72.5485 27.2268 72.5485 24.166V23.0159H72.4259C71.64 23.9857 70.1258 24.8329 68.215 24.8329C64.2168 24.8329 60.5539 21.3503 60.5539 16.869C60.5539 12.3552 64.2168 8.84375 68.215 8.84375C70.1222 8.84375 71.6364 9.69098 72.4259 10.6319H72.5485V9.33046H75.8834V9.32685ZM72.7973 16.869C72.7973 14.0533 70.919 11.9947 68.5287 11.9947C66.106 11.9947 64.0762 14.0533 64.0762 16.869C64.0762 19.6558 66.106 21.6856 68.5287 21.6856C70.919 21.6856 72.7973 19.6558 72.7973 16.869Z" fill="#787878"/>
<path d="M81.3813 0.912109V24.3461H77.9563V0.912109H81.3813Z" fill="#787878"/>
<path d="M94.7279 19.4717L97.4534 21.2887C96.5738 22.5902 94.4539 24.8326 90.791 24.8326C86.2484 24.8326 82.8559 21.3211 82.8559 16.8362C82.8559 12.0809 86.2772 8.83984 90.398 8.83984C94.5476 8.83984 96.5774 12.1422 97.2407 13.9268L97.6049 14.8353L86.9154 19.2626C87.7337 20.8669 89.0064 21.6853 90.791 21.6853C92.5792 21.6853 93.8194 20.8056 94.7279 19.4717ZM86.3385 16.5947L93.4841 13.6276C93.0911 12.6289 91.9086 11.9331 90.517 11.9331C88.7324 11.9331 86.2484 13.5086 86.3385 16.5947Z" fill="#787878"/>
<path d="M12.9866 14.7598V11.3673H24.4187C24.5305 11.9585 24.5882 12.658 24.5882 13.4151C24.5882 15.9603 23.8924 19.1077 21.6499 21.3502C19.4688 23.6215 16.6819 24.8328 12.9902 24.8328C6.14744 24.8328 0.393494 19.2591 0.393494 12.4164C0.393494 5.57368 6.14744 0 12.9902 0C16.7756 0 19.4724 1.48535 21.4985 3.42136L19.1046 5.81523C17.6517 4.45246 15.6833 3.39252 12.9866 3.39252C7.98971 3.39252 4.08164 7.41956 4.08164 12.4164C4.08164 17.4132 7.98971 21.4403 12.9866 21.4403C16.2277 21.4403 18.0735 20.1388 19.256 18.9563C20.215 17.9973 20.8459 16.6273 21.0947 14.7562L12.9866 14.7598Z" fill="#787878"/>
</svg>
