<svg width="164" height="179" viewBox="0 0 164 179" fill="none" xmlns="http://www.w3.org/2000/svg">
<g filter="url(#filter0_d_1_554)">
<rect x="20" y="17.3643" width="104" height="413" rx="52" fill="#043A53"/>
<rect x="36" y="33.3643" width="72" height="72" rx="36" fill="white" fill-opacity="0.16"/>
<g clip-path="url(#clip0_1_554)">
<path d="M72 79.7976L60.245 86.3776L62.87 73.1642L52.9783 64.0176L66.3567 62.4309L72 50.1976L77.6433 62.4309L91.0217 64.0176L81.13 73.1642L83.755 86.3776L72 79.7976ZM72 75.9776L79.0783 79.9392L77.4967 71.9842L83.4517 66.4759L75.3967 65.5209L72 58.1559L68.6033 65.5226L60.5483 66.4759L66.5033 71.9842L64.9217 79.9392L72 75.9776Z" fill="white"/>
</g>
</g>
<defs>
<filter id="filter0_d_1_554" x="0" y="0.364258" width="164" height="473" filterUnits="userSpaceOnUse" color-interpolation-filters="sRGB">
<feFlood flood-opacity="0" result="BackgroundImageFix"/>
<feColorMatrix in="SourceAlpha" type="matrix" values="0 0 0 0 0 0 0 0 0 0 0 0 0 0 0 0 0 0 127 0" result="hardAlpha"/>
<feOffset dx="10" dy="13"/>
<feGaussianBlur stdDeviation="15"/>
<feComposite in2="hardAlpha" operator="out"/>
<feColorMatrix type="matrix" values="0 0 0 0 0.0156863 0 0 0 0 0.227451 0 0 0 0 0.32549 0 0 0 0.24 0"/>
<feBlend mode="normal" in2="BackgroundImageFix" result="effect1_dropShadow_1_554"/>
<feBlend mode="normal" in="SourceGraphic" in2="effect1_dropShadow_1_554" result="shape"/>
</filter>
<clipPath id="clip0_1_554">
<rect width="40" height="40" fill="white" transform="translate(52 49.3643)"/>
</clipPath>
</defs>
</svg>
