<svg width="94" height="84" viewBox="0 0 94 84" fill="none" xmlns="http://www.w3.org/2000/svg">
<path d="M91.7828 59.9976H1.54378V79.0105H91.7828V59.9976Z" fill="white"/>
<path d="M91.7828 79.1766H1.54382C1.50072 79.1766 1.45939 79.1595 1.42891 79.129C1.39844 79.0985 1.38132 79.0572 1.38132 79.0141V60.0153C1.38132 59.9939 1.38552 59.9728 1.39369 59.9531C1.40185 59.9334 1.41382 59.9155 1.42891 59.9004C1.444 59.8853 1.46192 59.8733 1.48163 59.8652C1.50135 59.857 1.52248 59.8528 1.54382 59.8528H91.7828C91.8042 59.8528 91.8253 59.857 91.845 59.8652C91.8647 59.8733 91.8826 59.8853 91.8977 59.9004C91.9128 59.9155 91.9248 59.9334 91.933 59.9531C91.9411 59.9728 91.9453 59.9939 91.9453 60.0153V79.0318C91.941 79.0717 91.9219 79.1087 91.8919 79.1354C91.8619 79.1622 91.823 79.1768 91.7828 79.1766ZM1.69926 78.8516H91.6203V60.1601H1.70632L1.69926 78.8516Z" fill="#D1D3D4"/>
<path d="M91.7652 59.9976H1.56148C0.788865 59.9976 0.162537 60.6239 0.162537 61.3965V61.665C0.162537 62.4376 0.788865 63.0639 1.56148 63.0639H91.7652C92.5378 63.0639 93.1641 62.4376 93.1641 61.665V61.3965C93.1641 60.6239 92.5378 59.9976 91.7652 59.9976Z" fill="white"/>
<path d="M91.7651 63.2263H1.56145C1.14733 63.2263 0.750165 63.0618 0.457337 62.769C0.164509 62.4762 0 62.079 0 61.6649V61.3999C-1.05592e-06 60.9855 0.164394 60.588 0.457121 60.2946C0.749849 60.0012 1.147 59.8359 1.56145 59.835H91.7651C92.1796 59.8359 92.5767 60.0012 92.8695 60.2946C93.1622 60.588 93.3266 60.9855 93.3266 61.3999V61.6649C93.3266 61.8699 93.2862 62.073 93.2077 62.2624C93.1292 62.4519 93.0142 62.624 92.8692 62.769C92.7242 62.914 92.5521 63.029 92.3627 63.1075C92.1732 63.1859 91.9702 63.2263 91.7651 63.2263ZM1.56145 60.16C1.2332 60.1609 0.918712 60.292 0.686935 60.5244C0.455159 60.7568 0.325005 61.0717 0.325007 61.3999V61.6649C0.325007 61.9928 0.455273 62.3073 0.687151 62.5392C0.919029 62.7711 1.23352 62.9013 1.56145 62.9013H91.7651C92.0931 62.9013 92.4075 62.7711 92.6394 62.5392C92.8713 62.3073 93.0016 61.9928 93.0016 61.6649V61.3999C93.0016 61.0717 92.8714 60.7568 92.6396 60.5244C92.4079 60.292 92.0934 60.1609 91.7651 60.16H1.56145Z" fill="#D1D3D4"/>
<path d="M36.097 55.1084H7.83904V59.8316H36.097V55.1084Z" fill="#231F20"/>
<path d="M36.097 59.987H7.83554C7.79431 59.987 7.75477 59.9706 7.72562 59.9414C7.69647 59.9123 7.6801 59.8727 7.6801 59.8315V55.1083C7.6801 55.0671 7.69647 55.0276 7.72562 54.9984C7.75477 54.9693 7.79431 54.9529 7.83554 54.9529H36.097C36.1383 54.9529 36.1778 54.9693 36.207 54.9984C36.2361 55.0276 36.2525 55.0671 36.2525 55.1083V59.8315C36.2525 59.8727 36.2361 59.9123 36.207 59.9414C36.1778 59.9706 36.1383 59.987 36.097 59.987ZM7.99451 59.662H35.9416V55.2638H7.99451V59.662Z" fill="#231F20"/>
<path d="M36.0935 55.1084H20.6945V59.8316H36.0935V55.1084Z" fill="white"/>
<path d="M36.097 59.9941H20.6945C20.652 59.9932 20.6116 59.9757 20.5819 59.9453C20.5521 59.9149 20.5355 59.8741 20.5355 59.8316V55.1084C20.5355 55.0663 20.5523 55.0258 20.5821 54.996C20.6119 54.9662 20.6523 54.9495 20.6945 54.9495H36.097C36.1392 54.9495 36.1796 54.9662 36.2094 54.996C36.2392 55.0258 36.256 55.0663 36.256 55.1084V59.8316C36.256 59.8741 36.2394 59.9149 36.2097 59.9453C36.1799 59.9757 36.1395 59.9932 36.097 59.9941ZM20.8747 59.6621H35.9522V55.2709H20.8747V59.6621Z" fill="#231F20"/>
<path d="M35.6872 51.6887H12.806V55.1896H35.6872V51.6887Z" fill="#231F20"/>
<path d="M35.6873 55.345H12.806C12.7648 55.345 12.7253 55.3286 12.6961 55.2994C12.667 55.2703 12.6506 55.2308 12.6506 55.1895V51.6886C12.6506 51.6474 12.667 51.6079 12.6961 51.5787C12.7253 51.5496 12.7648 51.5332 12.806 51.5332H35.6873C35.7288 51.5332 35.7687 51.5495 35.7985 51.5785C35.8282 51.6076 35.8453 51.6471 35.8462 51.6886V55.1895C35.8463 55.2102 35.8421 55.2308 35.8341 55.2498C35.8261 55.2689 35.8143 55.2862 35.7995 55.3007C35.7847 55.3152 35.7671 55.3266 35.7478 55.3342C35.7286 55.3418 35.708 55.3454 35.6873 55.345ZM12.9615 55.0341H35.5318V51.8547H12.9615V55.0341Z" fill="#231F20"/>
<path d="M35.6872 51.6887H25.9193V55.1896H35.6872V51.6887Z" fill="white"/>
<path d="M35.6872 55.352H25.9194C25.8763 55.352 25.8349 55.3349 25.8044 55.3044C25.774 55.274 25.7569 55.2326 25.7569 55.1895V51.6886C25.7578 51.6458 25.7752 51.605 25.8054 51.5747C25.8357 51.5444 25.8765 51.527 25.9194 51.5261H35.6872C35.7303 51.5261 35.7717 51.5432 35.8021 51.5737C35.8326 51.6042 35.8497 51.6455 35.8497 51.6886V55.1895C35.8502 55.211 35.8464 55.2323 35.8384 55.2523C35.8304 55.2722 35.8184 55.2903 35.8032 55.3055C35.788 55.3207 35.7699 55.3326 35.75 55.3406C35.7301 55.3486 35.7087 55.3525 35.6872 55.352ZM26.0819 55.0305H35.5283V51.8511H26.0819V55.0305Z" fill="#231F20"/>
<path d="M32.4583 48.2869H9.57707V51.7878H32.4583V48.2869Z" fill="#231F20"/>
<path d="M32.4619 51.9431H9.57005C9.52883 51.9431 9.48929 51.9267 9.46014 51.8976C9.43099 51.8684 9.41461 51.8289 9.41461 51.7877V48.2868C9.41461 48.2456 9.43099 48.206 9.46014 48.1769C9.48929 48.1477 9.52883 48.1313 9.57005 48.1313H32.4619C32.5031 48.1313 32.5426 48.1477 32.5718 48.1769C32.6009 48.206 32.6173 48.2456 32.6173 48.2868V51.7877C32.6173 51.8289 32.6009 51.8684 32.5718 51.8976C32.5426 51.9267 32.5031 51.9431 32.4619 51.9431ZM9.73255 51.6322H32.3064V48.4528H9.73255V51.6322Z" fill="#231F20"/>
<path d="M32.4583 48.2869H22.6905V51.7878H32.4583V48.2869Z" fill="white"/>
<path d="M32.4619 51.9502H22.6904C22.6693 51.9502 22.6483 51.9459 22.6288 51.9377C22.6093 51.9295 22.5916 51.9175 22.5768 51.9024C22.562 51.8872 22.5503 51.8693 22.5425 51.8496C22.5348 51.8299 22.531 51.8088 22.5315 51.7877V48.2868C22.5315 48.2443 22.5481 48.2035 22.5778 48.1731C22.6075 48.1427 22.648 48.1252 22.6904 48.1243H32.4619C32.5043 48.1252 32.5448 48.1427 32.5745 48.1731C32.6042 48.2035 32.6208 48.2443 32.6208 48.2868V51.7877C32.6213 51.8088 32.6175 51.8299 32.6098 51.8496C32.602 51.8693 32.5903 51.8872 32.5755 51.9024C32.5607 51.9175 32.543 51.9295 32.5235 51.9377C32.504 51.9459 32.483 51.9502 32.4619 51.9502ZM22.8529 51.6287H32.2994V48.4493H22.8529V51.6287Z" fill="#231F20"/>
<path d="M20.9489 50.8089C21.3566 50.8089 21.6872 50.4784 21.6872 50.0706C21.6872 49.6628 21.3566 49.3323 20.9489 49.3323C20.5411 49.3323 20.2105 49.6628 20.2105 50.0706C20.2105 50.4784 20.5411 50.8089 20.9489 50.8089Z" fill="white"/>
<path d="M20.9488 50.9716C20.7707 50.9716 20.5965 50.9188 20.4483 50.8198C20.3002 50.7208 20.1847 50.5801 20.1166 50.4155C20.0484 50.2509 20.0305 50.0698 20.0653 49.895C20.1001 49.7203 20.1859 49.5598 20.3118 49.4338C20.4378 49.3078 20.5983 49.222 20.7731 49.1872C20.9478 49.1525 21.129 49.1703 21.2936 49.2385C21.4582 49.3067 21.5989 49.4221 21.6978 49.5703C21.7968 49.7184 21.8497 49.8926 21.8497 50.0708C21.8497 50.3097 21.7548 50.5388 21.5858 50.7077C21.4169 50.8767 21.1877 50.9716 20.9488 50.9716ZM20.9488 49.4949C20.8349 49.4949 20.7236 49.5287 20.6289 49.592C20.5342 49.6552 20.4604 49.7452 20.4168 49.8504C20.3732 49.9556 20.3618 50.0714 20.3841 50.1831C20.4063 50.2948 20.4611 50.3974 20.5417 50.4779C20.6222 50.5585 20.7248 50.6133 20.8365 50.6355C20.9482 50.6577 21.064 50.6463 21.1692 50.6028C21.2744 50.5592 21.3643 50.4854 21.4276 50.3907C21.4909 50.296 21.5247 50.1846 21.5247 50.0708C21.5237 49.9183 21.4628 49.7724 21.355 49.6646C21.2472 49.5568 21.1013 49.4959 20.9488 49.4949Z" fill="#231F20"/>
<path d="M15.0387 54.7586C14.9959 54.7577 14.9551 54.7403 14.9248 54.71C14.8945 54.6798 14.8771 54.6389 14.8762 54.5961V52.2434C14.8762 52.222 14.8804 52.2009 14.8885 52.1812C14.8967 52.1615 14.9087 52.1435 14.9238 52.1284C14.9389 52.1134 14.9568 52.1014 14.9765 52.0932C14.9962 52.0851 15.0173 52.0809 15.0387 52.0809C15.0602 52.0804 15.0815 52.0842 15.1014 52.0922C15.1214 52.1002 15.1395 52.1122 15.1547 52.1274C15.1698 52.1426 15.1818 52.1607 15.1898 52.1806C15.1978 52.2005 15.2017 52.2219 15.2012 52.2434V54.6138C15.1968 54.6538 15.1778 54.6907 15.1478 54.7174C15.1178 54.7442 15.0789 54.7589 15.0387 54.7586Z" fill="white"/>
<path d="M18.1015 59.4394C18.0801 59.4394 18.059 59.4352 18.0393 59.427C18.0196 59.4189 18.0016 59.4069 17.9866 59.3918C17.9715 59.3767 17.9595 59.3588 17.9513 59.3391C17.9432 59.3194 17.939 59.2982 17.939 59.2769V55.5782C17.9448 55.5387 17.9645 55.5027 17.9947 55.4767C18.0249 55.4506 18.0634 55.4363 18.1032 55.4363C18.1431 55.4363 18.1816 55.4506 18.2118 55.4767C18.2419 55.5027 18.2617 55.5387 18.2675 55.5782V59.2769C18.2675 59.2985 18.2632 59.32 18.2548 59.3399C18.2464 59.3599 18.2341 59.3779 18.2187 59.3931C18.2032 59.4082 18.1849 59.4201 18.1647 59.428C18.1446 59.436 18.1231 59.4399 18.1015 59.4394Z" fill="white"/>
<path d="M22.4149 6.96836L23.6478 6.01454L28.8444 8.18008L39.4036 4.61206L40.3574 6.07106L29.3107 12.4052L22.4149 6.96836Z" fill="#E6E7E8"/>
<path d="M26.2832 23.957L22.0228 6.51613L28.8127 9.43766L41.0711 4.99707L44.2258 22.6111L32.9318 26.5041L26.2832 23.957Z" fill="white"/>
<path d="M32.9317 26.6667C32.913 26.6701 32.8939 26.6701 32.8752 26.6667L26.2267 24.1197C26.2024 24.1099 26.1809 24.0946 26.1637 24.075C26.1465 24.0553 26.1342 24.0319 26.1277 24.0066L21.8638 6.55514C21.8569 6.52634 21.8583 6.49619 21.8676 6.46811C21.877 6.44002 21.894 6.41511 21.9168 6.39617C21.9395 6.37588 21.9677 6.36272 21.9979 6.35833C22.028 6.35393 22.0588 6.35849 22.0863 6.37144L28.7985 9.26471L41.011 4.84532C41.0321 4.83576 41.0549 4.83081 41.0781 4.83081C41.1012 4.83081 41.1241 4.83576 41.1452 4.84532C41.1658 4.85716 41.1834 4.87347 41.1969 4.89303C41.2103 4.91259 41.2192 4.93492 41.2229 4.95837L44.3847 22.5688C44.3918 22.6066 44.385 22.6457 44.3655 22.6788C44.346 22.7119 44.3152 22.7368 44.2787 22.749L32.9741 26.6349L32.9317 26.6667ZM26.421 23.8406L32.9352 26.3382L44.0455 22.5088L40.9474 5.21978L28.8656 9.59325C28.828 9.60734 28.7866 9.60734 28.749 9.59325L22.2559 6.80243L26.421 23.8406Z" fill="#231F20"/>
<path d="M31.9461 25.7483C31.9088 25.7476 31.8728 25.7343 31.844 25.7105C31.8151 25.6868 31.7951 25.6541 31.7872 25.6176L28.6466 9.46614C28.6425 9.44548 28.6426 9.42422 28.6468 9.40358C28.651 9.38295 28.6592 9.36335 28.671 9.34593C28.6829 9.32851 28.698 9.31362 28.7157 9.30211C28.7333 9.29061 28.7531 9.28272 28.7738 9.27891C28.7944 9.27482 28.8157 9.27487 28.8363 9.27907C28.857 9.28326 28.8766 9.29151 28.894 9.30335C28.9114 9.31518 28.9263 9.33035 28.9378 9.34799C28.9493 9.36563 28.9572 9.38537 28.961 9.40609L32.098 25.554C32.1021 25.5747 32.1021 25.5959 32.0979 25.6166C32.0937 25.6372 32.0854 25.6568 32.0736 25.6742C32.0618 25.6916 32.0466 25.7065 32.029 25.718C32.0113 25.7295 31.9916 25.7374 31.9709 25.7412L31.9461 25.7483Z" fill="#231F20"/>
<path d="M36.4573 29.6341C36.4573 29.6341 35.2138 27.677 35.3975 27.1612C35.5406 26.6504 35.6375 26.1278 35.6872 25.5997L34.3589 25.9177C34.3589 25.9177 32.9882 22.491 32.8504 21.3005C32.7127 20.1099 30.155 21.2086 30.0631 22.1236C29.9713 23.0385 29.9254 25.416 30.6566 26.7867C31.3879 28.1574 33.4439 31.4463 33.4439 31.4463" fill="white"/>
<path d="M33.4404 31.6231C33.4128 31.6226 33.3858 31.6152 33.3617 31.6017C33.3376 31.5881 33.3173 31.5687 33.3027 31.5453C33.2815 31.5135 31.236 28.2352 30.5118 26.8751C29.7876 25.515 29.8053 23.1729 29.8971 22.1237C29.9713 21.3924 31.2678 20.6399 32.1439 20.6329C32.2437 20.619 32.3452 20.6254 32.4424 20.6515C32.5397 20.6776 32.6307 20.723 32.7101 20.7849C32.7895 20.8468 32.8556 20.9241 32.9046 21.012C32.9536 21.1 32.9844 21.1969 32.9953 21.297C33.1154 22.3215 34.1929 25.1088 34.4437 25.7411L35.6378 25.4585C35.6624 25.4518 35.6883 25.4515 35.713 25.4576C35.7378 25.4638 35.7605 25.4763 35.7791 25.4938C35.7984 25.511 35.8135 25.5323 35.8233 25.5562C35.8331 25.5801 35.8373 25.6059 35.8356 25.6316C35.7823 26.1728 35.6818 26.7082 35.5353 27.2319C35.4399 27.4933 36.0052 28.645 36.5951 29.5458C36.612 29.5816 36.6152 29.6223 36.6042 29.6603C36.5932 29.6983 36.5688 29.731 36.5354 29.7522C36.502 29.7735 36.462 29.7818 36.423 29.7757C36.3839 29.7695 36.3484 29.7494 36.3231 29.7189C36.1076 29.3833 35.0478 27.67 35.2456 27.1189C35.3704 26.6967 35.4555 26.2639 35.5 25.8259L34.3943 26.0909C34.3564 26.0988 34.317 26.0932 34.2828 26.0751C34.2486 26.0571 34.2218 26.0277 34.207 25.9919C34.1505 25.8506 32.8293 22.5299 32.688 21.3323C32.688 21.2405 32.6456 20.9579 32.1616 20.9579C31.3844 20.9579 30.2857 21.6644 30.2328 22.1554C30.1338 23.1693 30.1197 25.4338 30.8086 26.7232C31.5151 28.0727 33.5711 31.344 33.5923 31.3758C33.6146 31.4124 33.6216 31.4563 33.6116 31.498C33.6017 31.5396 33.5757 31.5757 33.5393 31.5983C33.5103 31.618 33.4753 31.6268 33.4404 31.6231Z" fill="#231F20"/>
<path d="M75.6314 31.5877C75.6052 31.5879 75.5794 31.5816 75.5562 31.5695C75.533 31.5573 75.5132 31.5396 75.4986 31.5179C75.4839 31.4962 75.4748 31.4713 75.4721 31.4453C75.4693 31.4192 75.4731 31.3929 75.483 31.3687C76.1259 29.6498 76.2821 27.7868 75.9343 25.9848C75.5865 24.1829 74.7482 22.5118 73.5118 21.1557C73.3846 21.0215 73.2539 20.8872 73.1196 20.753C72.3071 19.9334 71.3886 18.9866 71.4451 17.8067C71.4636 17.5582 71.5062 17.3121 71.5723 17.0719C71.6215 16.8742 71.6581 16.6737 71.6818 16.4713C71.7984 15.189 70.7386 14.1221 69.8307 13.4544C69.6117 13.2919 69.382 13.1365 69.1559 12.9775C68.3046 12.3911 67.4249 11.787 66.895 10.8791C66.2627 9.81929 66.1885 8.57225 66.0931 7.3782C66.0154 6.3184 65.9377 5.19854 65.4643 4.21998C65.0202 3.29435 64.3742 2.48011 63.5738 1.83723C62.7734 1.19435 61.8389 0.739201 60.8393 0.505309C59.8397 0.271418 58.8003 0.264738 57.7978 0.485762C56.7952 0.706787 55.855 1.14989 55.0464 1.78243C54.2126 2.40889 53.5564 3.24167 53.1423 4.19878C52.7539 5.28984 52.5544 6.43912 52.5523 7.59723C52.4287 10.0101 52.199 12.3381 50.8778 14.3093C50.465 14.8862 50.0129 15.4339 49.5248 15.9485C48.6204 16.9518 47.7585 17.8986 47.4935 19.1279C47.36 19.788 47.4114 20.4721 47.6421 21.1048C47.8727 21.7376 48.2736 22.2943 48.8006 22.7136C48.8175 22.7264 48.8317 22.7425 48.8424 22.7609C48.853 22.7793 48.8598 22.7996 48.8624 22.8207C48.8651 22.8418 48.8635 22.8632 48.8577 22.8836C48.8519 22.904 48.8421 22.9231 48.8289 22.9397C48.8024 22.9731 48.7639 22.9948 48.7216 23.0001C48.6793 23.0054 48.6366 22.9938 48.6028 22.968C48.0306 22.5097 47.596 21.9025 47.3467 21.2131C47.0974 20.5238 47.0431 19.779 47.1897 19.0608C47.4758 17.7325 48.4014 16.708 49.3093 15.7189C49.7864 15.2144 50.2279 14.6773 50.6305 14.1115C51.9164 12.218 52.1319 9.9394 52.2485 7.57604C52.2529 6.38001 52.462 5.19356 52.8667 4.06808C53.2982 3.05938 53.9834 2.17948 54.8556 1.51394C55.7016 0.855826 56.6842 0.395317 57.7312 0.166152C58.7783 -0.0630126 59.8634 -0.0550272 60.9069 0.189524C61.9505 0.434076 62.9262 0.908997 63.7624 1.57949C64.5986 2.24999 65.2743 3.09908 65.7398 4.06454C66.2415 5.09609 66.3227 6.23715 66.4004 7.33934C66.4852 8.54752 66.5665 9.68858 67.16 10.6989C67.6545 11.5432 68.5024 12.1297 69.322 12.6949C69.5551 12.8539 69.7848 13.0128 70.0073 13.1753C70.9823 13.8819 72.1269 15.0477 71.9892 16.4819C71.9658 16.7002 71.9257 16.9163 71.8691 17.1284C71.8102 17.3506 71.7712 17.5776 71.7525 17.8067C71.703 18.8665 72.5332 19.6967 73.3351 20.5092C73.4694 20.647 73.6036 20.7812 73.7308 20.9155C75.0291 22.3086 75.9099 24.0385 76.2728 25.9079C76.6357 27.7773 76.4661 29.7111 75.7833 31.4888C75.7706 31.5185 75.7494 31.5438 75.7224 31.5614C75.6953 31.579 75.6636 31.5882 75.6314 31.5877Z" fill="#231F20"/>
<path d="M50.5492 21.5688L43.9007 36.1341L37.4288 28.8886L32.0344 31.4321C32.0344 31.4321 43.9466 49.41 47.225 47.7743C50.5033 46.1387 55.2018 31.6264 55.2018 31.6264L50.5492 21.5688Z" fill="#F0B73F"/>
<path d="M59.1266 17.5205C59.1266 17.5205 51.9199 18.3119 50.2242 21.7986C48.5285 25.2854 48.9136 41.4545 48.9136 41.4545L75.5042 44.3054C75.5042 44.3054 74.8294 31.0119 73.5753 25.1123C72.3212 19.2127 68.4882 15.3232 59.1266 17.5205Z" fill="#F0B73F"/>
<path d="M56.9929 19.2834L59.6707 33.7074L63.3729 17.9021L56.9929 19.2834Z" fill="#231F20"/>
<path d="M59.6707 33.8731C59.6355 33.8709 59.602 33.8573 59.5752 33.8343C59.5485 33.8114 59.5299 33.7804 59.5223 33.746L56.8375 19.3114C56.831 19.2717 56.8398 19.2311 56.8621 19.1977C56.8844 19.1643 56.9185 19.1405 56.9576 19.1312L63.3411 17.7499C63.3669 17.7454 63.3934 17.7468 63.4185 17.7541C63.4437 17.7615 63.4668 17.7746 63.486 17.7923C63.5031 17.8119 63.5156 17.8351 63.5223 17.8602C63.529 17.8853 63.5299 17.9117 63.5248 17.9372L59.8226 33.7424C59.8174 33.7789 59.7992 33.8123 59.7712 33.8364C59.7433 33.8604 59.7076 33.8735 59.6707 33.8731ZM57.1731 19.3891L59.6883 32.9334L63.1645 18.0961L57.1731 19.3891Z" fill="#231F20"/>
<path d="M57.0176 15.0795L56.9929 19.2834C56.9929 19.2834 57.4168 21.6362 59.9744 20.9191C60.7292 20.6997 61.4257 20.3152 62.0135 19.7934C62.6013 19.2716 63.0656 18.6256 63.3729 17.9022L63.0832 10.6213C63.0832 10.314 61.8291 9.14816 61.8786 6.47392C60.9777 6.46658 60.0883 6.27146 59.2672 5.90102C58.446 5.53058 57.7111 4.99297 57.1094 4.32251C57.1094 4.32251 56.0496 5.92635 55.5763 6.44212C55.2037 6.82265 54.8809 7.24878 54.6154 7.71036C54.1808 8.51934 54.1985 9.52969 54.2197 10.427C54.2291 11.4942 54.3356 12.5584 54.5376 13.6064C54.9474 15.5671 57.0176 15.0795 57.0176 15.0795Z" fill="white"/>
<path d="M59.0665 21.2156C58.6505 21.2244 58.2407 21.1128 57.8866 20.8941C57.3417 20.5238 56.9618 19.9564 56.8268 19.3115L56.848 15.2701C56.291 15.354 55.722 15.247 55.2336 14.9663C55.0047 14.8129 54.8099 14.6138 54.6616 14.3816C54.5133 14.1494 54.4145 13.889 54.3716 13.6168C54.1673 12.5691 54.0597 11.5048 54.0501 10.4374C54.0325 9.57185 54.0077 8.49792 54.4634 7.63947C54.737 7.15875 55.0705 6.71478 55.4561 6.31825C55.9083 5.8272 56.9646 4.24103 56.9752 4.22689C56.9888 4.20542 57.0076 4.1877 57.0298 4.17535C57.052 4.16301 57.077 4.15644 57.1024 4.15624C57.1276 4.15324 57.1531 4.15726 57.1762 4.16786C57.1992 4.17845 57.2189 4.19522 57.2331 4.2163C57.8225 4.86667 58.5393 5.38888 59.3391 5.75047C60.1389 6.11207 61.0045 6.30533 61.8821 6.31825C61.9034 6.31812 61.9244 6.32246 61.9439 6.33098C61.9633 6.3395 61.9808 6.35201 61.9951 6.3677C62.0104 6.38221 62.0223 6.3998 62.0303 6.41929C62.0382 6.43878 62.0419 6.45973 62.0411 6.48075C61.9868 7.7767 62.3321 9.05804 63.0302 10.1512C63.1349 10.2906 63.2084 10.4508 63.2457 10.6211C63.2457 10.6211 63.2457 10.7836 63.5354 17.9019C63.5388 17.9218 63.5388 17.9421 63.5354 17.962C63.2226 18.7117 62.7448 19.3812 62.1374 19.9207C61.53 20.4602 60.8088 20.8557 60.0274 21.0778C59.7151 21.1684 59.3917 21.2147 59.0665 21.2156ZM57.1518 19.2832C57.282 19.8249 57.6047 20.3007 58.0597 20.6221C58.3436 20.778 58.6576 20.8712 58.9806 20.8956C59.3035 20.92 59.628 20.8749 59.9321 20.7634C60.6556 20.5499 61.3239 20.1811 61.8901 19.6826C62.4564 19.184 62.907 18.5679 63.2104 17.8772C63.1892 17.3402 62.9242 10.6846 62.9207 10.6281C62.8757 10.5186 62.8189 10.4144 62.7511 10.3172C62.0517 9.2174 61.6916 7.93587 61.7161 6.63265C59.9772 6.57523 58.3294 5.84134 57.1236 4.58723C56.6811 5.26411 56.2036 5.91737 55.6928 6.54434C55.3317 6.91565 55.0173 7.32968 54.7567 7.77725C54.3398 8.5615 54.361 9.54359 54.3822 10.4126C54.3911 11.4667 54.4952 12.5178 54.6931 13.5532C54.7272 13.7814 54.8074 14.0003 54.9289 14.1964C55.0504 14.3926 55.2105 14.562 55.3996 14.6943C55.8801 14.9542 56.4374 15.0344 56.9717 14.9203C56.995 14.9147 57.0193 14.9146 57.0426 14.9201C57.0659 14.9256 57.0876 14.9366 57.1059 14.9521C57.1253 14.9673 57.141 14.9866 57.152 15.0086C57.163 15.0306 57.169 15.0547 57.1695 15.0793L57.1412 19.2832H57.1518Z" fill="#231F20"/>
<path d="M57.0423 17.1426C57.0423 17.1426 58.7486 17.2203 59.8473 16.0828C60.1614 15.7932 60.4087 15.4388 60.5722 15.0441C60.7357 14.6495 60.8114 14.224 60.794 13.7971C60.794 13.7971 58.95 15.0371 57.0317 15.0795L57.0423 17.1426Z" fill="#231F20"/>
<path d="M57.1165 17.3015H57.0353C56.9956 17.3006 56.9578 17.2842 56.9301 17.2558C56.9024 17.2274 56.8869 17.1893 56.8869 17.1496L56.8622 15.083C56.8621 15.0424 56.878 15.0034 56.9064 14.9743C56.9348 14.9453 56.9735 14.9285 57.0141 14.9275C58.8617 14.8852 60.6775 13.684 60.6951 13.6734C60.7177 13.6604 60.7433 13.6536 60.7693 13.6536C60.7954 13.6536 60.8209 13.6604 60.8435 13.6734C60.8678 13.684 60.8889 13.7006 60.905 13.7216C60.9211 13.7426 60.9315 13.7674 60.9353 13.7936C60.9353 13.843 61.0943 15.03 59.9568 16.2064C59.1856 16.9223 58.1687 17.3143 57.1165 17.3015ZM57.173 15.2278L57.1942 16.9942C58.138 16.9794 59.0428 16.6157 59.7342 15.9732C60.2477 15.4726 60.5648 14.8046 60.628 14.0903C59.5766 14.7246 58.3956 15.1134 57.173 15.2278Z" fill="#231F20"/>
<path d="M57.491 8.9043C57.491 8.9043 56.1379 10.9109 56.4594 11.2641C56.7809 11.6174 57.6817 11.3842 57.6817 11.3842" fill="white"/>
<path d="M57.0847 11.6175C56.9511 11.6285 56.8165 11.6126 56.6891 11.5707C56.5617 11.5289 56.444 11.4619 56.3429 11.3737C55.9896 10.9887 56.8304 9.60738 57.3603 8.80899C57.3712 8.7911 57.3857 8.77561 57.4028 8.76344C57.4198 8.75128 57.4392 8.7427 57.4597 8.73821C57.4802 8.73373 57.5013 8.73344 57.5219 8.73735C57.5425 8.74127 57.5621 8.74931 57.5796 8.761C57.597 8.77268 57.6118 8.78777 57.6233 8.80535C57.6347 8.82294 57.6424 8.84265 57.646 8.8633C57.6497 8.88396 57.649 8.90513 57.6443 8.92555C57.6395 8.94596 57.6306 8.9652 57.6182 8.9821C56.9505 9.98185 56.463 10.9993 56.576 11.1618C56.7845 11.3914 57.4309 11.2889 57.6358 11.236C57.6746 11.2287 57.7146 11.2364 57.7479 11.2575C57.7812 11.2786 57.8052 11.3116 57.8151 11.3498C57.8249 11.3879 57.82 11.4284 57.8011 11.463C57.7823 11.4976 57.751 11.5238 57.7136 11.5362C57.5077 11.5872 57.2968 11.6144 57.0847 11.6175Z" fill="#231F20"/>
<path d="M56.0496 12.4087C56.0496 12.4087 57.2613 14.2033 59.3951 12.4758L56.0496 12.4087Z" fill="white"/>
<path d="M57.6146 13.3839C57.5142 13.384 57.4138 13.3769 57.3143 13.3627C56.7477 13.2692 56.2404 12.9572 55.9013 12.4937C55.8783 12.4595 55.8699 12.4176 55.8779 12.3772C55.8858 12.3368 55.9095 12.3012 55.9437 12.2782C55.9604 12.2664 55.9794 12.2581 55.9995 12.2538C56.0196 12.2495 56.0403 12.2494 56.0605 12.2533C56.0806 12.2573 56.0997 12.2653 56.1167 12.2769C56.1337 12.2884 56.1481 12.3033 56.1592 12.3206C56.4519 12.7066 56.8796 12.9678 57.3567 13.0519C57.9502 13.1402 58.6002 12.9035 59.2785 12.3453C59.2945 12.3325 59.3129 12.323 59.3325 12.3173C59.3522 12.3116 59.3728 12.3099 59.3932 12.3122C59.4135 12.3145 59.4332 12.3208 59.4511 12.3307C59.4691 12.3406 59.4848 12.354 59.4975 12.3701C59.511 12.3856 59.5212 12.4038 59.5274 12.4234C59.5337 12.443 59.5359 12.4636 59.5339 12.4841C59.5319 12.5046 59.5258 12.5245 59.5159 12.5425C59.506 12.5606 59.4926 12.5764 59.4764 12.5891C58.965 13.0593 58.3079 13.3399 57.6146 13.3839Z" fill="#231F20"/>
<path d="M52.0718 41.2636C52.0303 41.2609 51.9915 41.242 51.9637 41.2109C51.936 41.1799 51.9215 41.1392 51.9235 41.0976L52.9267 24.4092C52.9271 24.3888 52.9318 24.3686 52.9403 24.3501C52.9488 24.3315 52.9611 24.3149 52.9764 24.3013C52.9916 24.2877 53.0095 24.2774 53.029 24.271C53.0484 24.2647 53.0689 24.2624 53.0893 24.2643C53.1102 24.2647 53.1307 24.2694 53.1497 24.2782C53.1687 24.2869 53.1857 24.2994 53.1997 24.315C53.2136 24.3306 53.2241 24.3489 53.2307 24.3687C53.2372 24.3886 53.2396 24.4096 53.2376 24.4304L52.2343 41.1153C52.2334 41.1357 52.2285 41.1557 52.2199 41.1742C52.2112 41.1928 52.199 41.2094 52.1839 41.2232C52.1688 41.2369 52.1511 41.2476 52.1319 41.2546C52.1127 41.2615 52.0923 41.2646 52.0718 41.2636Z" fill="#231F20"/>
<path d="M71.1872 43.2278C71.3109 43.581 75.3063 55.1329 70.7244 59.2591C65.8387 63.6538 41.1276 61.3399 41.1276 61.3399L38.4286 53.0133C38.1283 50.0565 37.9764 47.9722 43.7559 47.4317L51.8457 45.7748L52.0718 41.1082L71.1872 43.2278Z" fill="#231F20"/>
<path d="M54.6436 62.103H54.0819C47.3698 62.0747 41.1629 61.4989 41.1028 61.4953C41.0721 61.4925 41.0429 61.4805 41.019 61.461C40.9951 61.4415 40.9775 61.4153 40.9686 61.3858L38.2731 53.0628C38.1106 51.512 37.9622 50.0777 38.8242 49.0285C39.6085 48.0711 41.1699 47.5165 43.7311 47.2621L51.6867 45.6336L51.9058 41.0835C51.907 41.0623 51.9127 41.0416 51.9224 41.0227C51.9322 41.0039 51.9457 40.9872 51.9623 40.974C51.9779 40.9597 51.9964 40.9492 52.0166 40.9431C52.0367 40.937 52.058 40.9354 52.0789 40.9386L71.1942 43.0582C71.2239 43.0615 71.252 43.0732 71.2752 43.092C71.2984 43.1108 71.3156 43.1359 71.325 43.1642L71.1766 43.2137L71.332 43.1889C71.7489 44.4219 75.2745 55.3485 70.8198 59.3581C68.8167 61.1845 63.3693 62.103 54.6436 62.103ZM41.2441 61.1915C42.9787 61.347 65.9977 63.3111 70.622 59.1426C74.8612 55.3273 71.5687 44.867 71.0706 43.3691L52.2202 41.2919L52.0047 45.7925C52.0023 45.8273 51.9885 45.8603 51.9655 45.8864C51.9426 45.9126 51.9116 45.9305 51.8775 45.9374L43.7876 47.5942C41.2971 47.8274 39.8028 48.3502 39.075 49.2369C38.2943 50.1837 38.4356 51.5579 38.584 53.0098L41.2441 61.1915Z" fill="#231F20"/>
<path d="M45.229 53.8155C45.229 53.8155 43.9466 47.6368 39.2835 49.0358C34.6203 50.4347 44.9958 73.4113 44.9958 74.9198C44.9958 76.4282 41.0321 80.9819 41.0321 80.9819C42.1643 80.9212 43.2927 80.8033 44.4129 80.6286C45.6388 80.3954 49.0054 75.4991 49.1361 74.9763C49.2668 74.4535 46.8046 58.249 45.229 53.8155Z" fill="white"/>
<path d="M41.0322 81.1444C41.0019 81.1441 40.9723 81.1354 40.9467 81.1192C40.9211 81.1029 40.9005 81.0799 40.8874 81.0526C40.8738 81.0239 40.8689 80.992 40.8733 80.9606C40.8777 80.9292 40.8912 80.8998 40.9121 80.8759C42.0037 79.6218 44.8369 76.1139 44.8369 74.9198C44.8369 74.5666 44.1622 72.7826 43.3073 70.5146C40.8344 63.9438 36.687 52.943 38.2697 49.7424C38.3612 49.5386 38.4948 49.3565 38.6616 49.208C38.8284 49.0594 39.0247 48.9478 39.2376 48.8804C39.7752 48.6942 40.3465 48.6259 40.9128 48.6802C41.4791 48.7344 42.027 48.9099 42.5195 49.1948C44.6391 50.456 45.3456 53.5294 45.3845 53.7873C46.8965 58.0512 49.4471 74.3405 49.2952 75.0258C49.1857 75.5169 45.7625 80.5509 44.4448 80.8053C43.3175 80.9809 42.1821 81.0988 41.0428 81.1586L41.0322 81.1444ZM40.6012 48.997C40.1698 48.9996 39.7413 49.0663 39.3295 49.1948C39.1579 49.2505 39.0004 49.3424 38.8675 49.4643C38.7346 49.5862 38.6295 49.7352 38.5593 49.9013C37.0367 52.9748 41.3113 64.3218 43.6111 70.4157C44.6285 73.1182 45.1584 74.5454 45.1584 74.934C45.1584 76.2799 42.2863 79.7702 41.4031 80.8124C42.0779 80.7664 43.491 80.6569 44.3847 80.4874C45.5117 80.2719 48.8677 75.4568 48.9772 74.9552C49.0867 74.4535 46.6774 58.3833 45.0913 53.8862C45.0913 53.8862 45.0913 53.8862 45.0913 53.865C45.0913 53.8438 44.4095 50.6856 42.3711 49.4845C41.8381 49.1599 41.2253 48.9899 40.6012 48.9934V48.997Z" fill="#231F20"/>
<path d="M40.799 80.5933C40.4736 80.6274 40.1628 80.7456 39.897 80.9364C39.6313 81.1272 39.4198 81.384 39.2835 81.6814C38.856 82.6917 40.6966 83.2746 42.3922 83.3523C43.8757 83.4094 45.3587 83.2257 46.7834 82.8083C47.3529 82.5291 47.8563 82.1316 48.26 81.6425C48.26 81.6425 48.26 82.886 48.6875 82.8471C49.2994 82.8164 49.9092 82.7515 50.5139 82.6528C50.6693 82.5751 50.0087 77.7565 49.1362 74.9763C49.1362 74.9763 45.6035 79.9715 44.4907 80.2047C43.3779 80.4379 40.799 80.5933 40.799 80.5933Z" fill="#231F20"/>
<path d="M42.8869 83.5183C42.7208 83.5183 42.5513 83.5183 42.3852 83.5183C41.2018 83.4654 39.6545 83.1439 39.2058 82.4197C39.1314 82.3035 39.0875 82.1703 39.0782 82.0326C39.0689 81.8949 39.0946 81.757 39.1528 81.6319C39.2983 81.3069 39.5273 81.0262 39.8165 80.8183C40.1056 80.6104 40.4446 80.4828 40.7991 80.4484C40.8238 80.4484 43.3638 80.2895 44.466 80.0634C45.3421 79.8797 48.0481 76.2728 49.0161 74.8986C49.0323 74.8742 49.0554 74.8551 49.0824 74.8438C49.1094 74.8325 49.1392 74.8294 49.168 74.835C49.1965 74.8391 49.2233 74.8513 49.2452 74.87C49.2671 74.8888 49.2832 74.9134 49.2916 74.941C49.7504 76.5362 50.1091 78.1585 50.3656 79.7984C50.8319 82.6634 50.6765 82.7412 50.5846 82.7871C50.0952 82.8982 49.5956 82.9586 49.0938 82.9672L48.7017 82.999C48.6508 83.0037 48.5995 82.9973 48.5513 82.9802C48.5031 82.9632 48.4592 82.9358 48.4226 82.9001C48.233 82.6457 48.1291 82.3377 48.1259 82.0205C47.7651 82.4146 47.3275 82.7308 46.84 82.9496C45.5569 83.3302 44.2252 83.5218 42.8869 83.5183ZM40.8097 80.7487C40.5127 80.7789 40.2289 80.8865 39.9865 81.0607C39.7441 81.2349 39.5517 81.4696 39.4284 81.7414C39.3894 81.8205 39.3719 81.9085 39.3775 81.9965C39.383 82.0845 39.4115 82.1695 39.4602 82.2431C39.7746 82.7412 40.9828 83.1333 42.3994 83.1969C43.8626 83.2536 45.3253 83.0722 46.7304 82.6599C47.2748 82.3914 47.7563 82.011 48.1435 81.5436C48.1639 81.5188 48.1914 81.5009 48.2223 81.4924C48.2532 81.4839 48.286 81.4851 48.3162 81.4959C48.3463 81.5068 48.3724 81.5267 48.3908 81.5529C48.4093 81.5791 48.4191 81.6104 48.4191 81.6425C48.4191 81.9958 48.4862 82.5398 48.6346 82.674C48.64 82.6798 48.6466 82.6843 48.6539 82.6874C48.6612 82.6904 48.669 82.6919 48.677 82.6917L49.0726 82.6599C49.4259 82.6316 50.1501 82.5751 50.3868 82.5292C50.415 81.9004 49.8463 77.919 49.0832 75.326C48.2919 76.4282 45.5505 80.1411 44.526 80.3566C43.2946 80.5495 42.0542 80.6804 40.8097 80.7487Z" fill="#231F20"/>
<path d="M55.9578 74.9974C55.9578 74.9974 53.9336 55.0201 53.0009 51.2896C52.0683 47.5591 46.7057 46.3933 45.0736 50.901C43.4415 55.4087 51.5243 73.1322 50.9025 74.9974C50.2808 76.8627 47.9492 80.5049 47.9492 80.5049C47.9492 80.5049 50.4221 81.7484 52.2238 80.5049C54.0254 79.2614 55.9578 74.9974 55.9578 74.9974Z" fill="white"/>
<path d="M50.316 81.2325C49.4726 81.2128 48.6425 81.0179 47.8785 80.6602C47.8583 80.6496 47.8404 80.635 47.8259 80.6175C47.8113 80.5999 47.8004 80.5796 47.7937 80.5578C47.7832 80.5131 47.7908 80.4661 47.8149 80.427C47.8361 80.3917 50.143 76.7707 50.7506 74.9443C50.9731 74.2766 49.8391 70.963 48.631 67.4586C46.5113 61.3117 43.8972 53.6811 44.9181 50.8549C45.6246 48.866 47.1826 47.732 49.0443 47.8309C50.0047 47.8916 50.9209 48.2564 51.6602 48.8724C52.3995 49.4885 52.9235 50.3239 53.1563 51.2576C54.0819 54.9564 56.092 74.7889 56.1132 74.9867C56.1199 75.0146 56.1199 75.0436 56.1132 75.0715C56.0319 75.2481 54.1314 79.399 52.3261 80.6531C51.733 81.0513 51.0301 81.2539 50.316 81.2325ZM48.1964 80.4447C48.7687 80.6849 50.7117 81.3773 52.1424 80.3811C53.7851 79.2401 55.601 75.4 55.8023 74.969C55.6963 73.9092 53.7534 54.921 52.8561 51.3283C52.6397 50.4621 52.1534 49.6872 51.4676 49.1156C50.7817 48.544 49.9318 48.2055 49.0407 48.1489C47.338 48.057 45.9073 49.1133 45.236 50.975C44.254 53.6846 46.9671 61.5943 48.9489 67.3702C50.468 71.7896 51.3123 74.3296 51.0685 75.0644C50.5033 76.7107 48.6451 79.7134 48.1858 80.4447H48.1964Z" fill="#231F20"/>
<path d="M47.9492 80.5049C47.2405 80.8353 46.5958 81.2886 46.0451 81.8438C45.4057 82.6034 44.8228 82.9531 45.6918 83.536C46.5609 84.1189 52.0507 83.7091 52.8031 83.4759C53.5556 83.2428 54.845 81.4376 54.845 81.4376C54.845 81.4376 54.785 83.4759 55.0181 83.536C55.5355 83.5148 56.0499 83.4462 56.5548 83.3311C56.7301 80.5455 56.5341 77.749 55.972 75.0151C55.972 75.0151 54.082 79.2897 51.7009 80.1517C49.3199 81.0136 47.9492 80.5049 47.9492 80.5049Z" fill="#231F20"/>
<path d="M48.1859 83.9988C47.0024 83.9988 45.9709 83.9141 45.6106 83.6774C45.4844 83.6141 45.3736 83.5242 45.2857 83.4137C45.1979 83.3033 45.1351 83.1751 45.1019 83.038C45.063 82.7129 45.3138 82.4339 45.6353 82.0841L45.9285 81.7556C46.491 81.1794 47.1543 80.7113 47.8856 80.3743C47.9241 80.3586 47.9672 80.3586 48.0057 80.3743C48.0057 80.3743 49.3517 80.8618 51.6479 80.021C53.9442 79.1803 55.7953 74.9799 55.813 74.9375C55.8267 74.9076 55.8494 74.8827 55.8779 74.8663C55.9063 74.8498 55.9392 74.8426 55.9719 74.8456C56.0049 74.8493 56.036 74.8632 56.0607 74.8853C56.0854 74.9075 56.1025 74.9369 56.1097 74.9693C56.6707 77.7188 56.8667 80.5304 56.6926 83.3312C56.6908 83.3642 56.6781 83.3958 56.6563 83.4207C56.6345 83.4457 56.605 83.4627 56.5725 83.4689C56.0542 83.6061 55.5221 83.6843 54.9863 83.7021C54.8803 83.6738 54.6684 83.6208 54.6825 81.9357C54.2515 82.4939 53.4319 83.4654 52.8526 83.6456C51.3099 83.8957 49.7487 84.0139 48.1859 83.9988ZM47.9598 80.6816C47.2912 80.9978 46.6837 81.4295 46.1652 81.9569C46.0628 82.077 45.9603 82.1901 45.8685 82.2925C45.6 82.5858 45.388 82.8154 45.4127 82.9991C45.4127 83.1227 45.547 83.2605 45.766 83.4159C46.5503 83.9388 51.8952 83.5996 52.7431 83.3382C53.326 83.1616 54.354 81.8474 54.7037 81.3564C54.723 81.3289 54.7506 81.3084 54.7825 81.2979C54.8145 81.2874 54.8489 81.2876 54.8807 81.2983C54.9125 81.309 54.94 81.3298 54.9591 81.3575C54.9781 81.3851 54.9877 81.4182 54.9863 81.4518C54.9453 82.1021 54.9773 82.755 55.0817 83.3983C55.5174 83.3599 55.9496 83.2891 56.3747 83.1863C56.5209 80.6121 56.3536 78.0296 55.8766 75.4957C55.329 76.6261 53.7287 79.583 51.7363 80.3107C49.6025 81.0985 48.2672 80.777 47.9598 80.6816Z" fill="#231F20"/>
<path d="M72.2329 51.7276C72.4767 52.0808 73.2539 59.7221 73.2539 59.7221C73.2539 59.7221 81.916 60.5063 82.0397 59.8987C82.1633 59.2911 77.6238 57.7473 77.6238 57.7473L76.2107 51.6887" fill="white"/>
<path d="M80.2909 60.291C79.6409 60.291 78.7683 60.2663 77.592 60.1991C75.4335 60.0826 73.2609 59.8883 73.2397 59.8847C73.202 59.8816 73.1665 59.8655 73.1394 59.839C73.1123 59.8126 73.0953 59.7775 73.0913 59.7399C72.7981 56.8537 72.2682 52.1446 72.0951 51.8125C72.0833 51.795 72.0751 51.7752 72.071 51.7545C72.0669 51.7337 72.067 51.7123 72.0713 51.6916C72.0755 51.6709 72.0839 51.6512 72.0959 51.6337C72.1079 51.6163 72.1232 51.6014 72.141 51.59C72.1777 51.5672 72.2219 51.5596 72.2641 51.5688C72.3063 51.578 72.3433 51.6034 72.3671 51.6394C72.6073 51.9927 73.2008 57.645 73.3987 59.5738C77.2528 59.9271 81.379 60.1073 81.8771 59.8423C81.7252 59.4891 79.5561 58.5706 77.5743 57.8993C77.5488 57.8912 77.5258 57.8765 77.5079 57.8566C77.4899 57.8368 77.4774 57.8125 77.4718 57.7863L76.0588 51.7242C76.0492 51.6825 76.0564 51.6388 76.0789 51.6024C76.1014 51.566 76.1373 51.54 76.1789 51.5299C76.221 51.5214 76.2647 51.5295 76.301 51.5526C76.3372 51.5756 76.3631 51.6118 76.3732 51.6536L77.7863 57.6238C79.5526 58.2208 82.3505 59.2877 82.2233 59.9271C82.1668 60.0826 82.1244 60.291 80.2909 60.291Z" fill="#231F20"/>
<path d="M73.3315 24.6885L79.2417 53.4976L71.0918 53.7095C71.0918 53.7095 68.2657 38.4554 68.0926 36.1662C67.9195 33.877 73.3315 24.6885 73.3315 24.6885Z" fill="#F0B73F"/>
<path d="M55.2654 10.3632C56.2819 10.3632 57.1059 9.53916 57.1059 8.52266C57.1059 7.50616 56.2819 6.68213 55.2654 6.68213C54.2489 6.68213 53.4249 7.50616 53.4249 8.52266C53.4249 9.53916 54.2489 10.3632 55.2654 10.3632Z" fill="white"/>
<path d="M55.269 10.5259H55.1877C54.7925 10.5109 54.4106 10.3791 54.0903 10.1471C53.77 9.91507 53.5258 9.59328 53.3884 9.22242C53.251 8.85155 53.2267 8.44828 53.3185 8.06359C53.4103 7.67891 53.6141 7.3301 53.9042 7.06127C54.1943 6.79244 54.5576 6.61567 54.9481 6.55332C55.3387 6.49098 55.7389 6.54585 56.0983 6.711C56.4577 6.87615 56.76 7.14416 56.967 7.48113C57.174 7.8181 57.2765 8.20891 57.2614 8.60411H57.0989H57.2614C57.2405 9.11992 57.0212 9.60773 56.6493 9.96579C56.2774 10.3238 55.7817 10.5245 55.2654 10.5259H55.269ZM55.269 6.84483C54.7894 6.85368 54.3328 7.05152 53.9984 7.39532C53.664 7.73911 53.4788 8.20105 53.4833 8.68064C53.4877 9.16023 53.6813 9.61867 54.022 9.95624C54.3627 10.2938 54.8229 10.4832 55.3025 10.4832C55.7821 10.4832 56.2423 10.2938 56.583 9.95624C56.9237 9.61867 57.1173 9.16023 57.1218 8.68064C57.1262 8.20105 56.9411 7.73911 56.6067 7.39532C56.2722 7.05152 55.8156 6.85368 55.3361 6.84483H55.269Z" fill="#231F20"/>
<path d="M59.3209 10.5258C60.3374 10.5258 61.1614 9.70175 61.1614 8.68526C61.1614 7.66876 60.3374 6.84473 59.3209 6.84473C58.3044 6.84473 57.4803 7.66876 57.4803 8.68526C57.4803 9.70175 58.3044 10.5258 59.3209 10.5258Z" fill="white"/>
<path d="M59.3209 10.6847H59.2396C58.8453 10.6659 58.4653 10.5312 58.1472 10.2974C57.8291 10.0636 57.587 9.7412 57.4513 9.3705C57.3155 8.99981 57.2921 8.59731 57.384 8.21338C57.4759 7.82945 57.679 7.48116 57.9679 7.21211C58.2589 6.94363 58.623 6.76745 59.0142 6.70581C59.4053 6.64418 59.806 6.69986 60.1655 6.86581C60.525 7.03177 60.8272 7.30057 61.0341 7.63823C61.2409 7.9759 61.343 8.36729 61.3275 8.76296C61.3074 9.27968 61.0879 9.76851 60.715 10.1268C60.3422 10.4852 59.8451 10.6851 59.328 10.6847H59.3209ZM59.3209 7.00368C59.1005 6.99951 58.8815 7.03878 58.6763 7.11925C58.4711 7.19972 58.2838 7.31982 58.125 7.47268C57.8044 7.78141 57.6195 8.20487 57.6111 8.64991C57.6026 9.09495 57.7713 9.52512 58.0801 9.84577C58.3888 10.1664 58.8123 10.3513 59.2573 10.3597C59.4777 10.3707 59.6981 10.3369 59.9051 10.2604C60.1122 10.1839 60.3016 10.0662 60.4619 9.91462C60.6242 9.76553 60.7552 9.58571 60.8474 9.38558C60.9395 9.18546 60.9911 8.96902 60.9989 8.74883C61.0123 8.30586 60.8494 7.87567 60.5462 7.55252C60.2429 7.22938 59.8239 7.03964 59.3809 7.02488L59.3209 7.00368Z" fill="#231F20"/>
<path d="M46.3453 38.9781C46.3232 38.9783 46.3013 38.9737 46.2812 38.9645C46.2611 38.9554 46.2432 38.9419 46.2288 38.9251L38.365 29.8603C38.3512 29.8446 38.3408 29.8264 38.3342 29.8066C38.3276 29.7869 38.3251 29.766 38.3267 29.7452C38.3284 29.7245 38.3342 29.7043 38.3438 29.6858C38.3534 29.6673 38.3666 29.651 38.3827 29.6377C38.3968 29.623 38.4138 29.6112 38.4327 29.6032C38.4515 29.5952 38.4717 29.5911 38.4922 29.5911C38.5126 29.5911 38.5329 29.5952 38.5517 29.6032C38.5705 29.6112 38.5875 29.623 38.6017 29.6377L46.4655 38.7026C46.4791 38.7179 46.4895 38.7359 46.4961 38.7553C46.5026 38.7748 46.5051 38.7954 46.5035 38.8159C46.5018 38.8363 46.496 38.8563 46.4865 38.8744C46.4769 38.8926 46.4637 38.9087 46.4478 38.9216C46.4356 38.9376 46.4202 38.9509 46.4025 38.9607C46.3849 38.9704 46.3654 38.9763 46.3453 38.9781Z" fill="#231F20"/>
<path d="M31.7801 12.2392L39.2376 9.37769L39.9088 12.7973L32.3947 15.2102L31.7801 12.2392Z" fill="#E6E7E8"/>
<path d="M55.4273 8.3268C55.4367 8.087 55.34 7.88852 55.2114 7.88346C55.0827 7.87841 54.9708 8.0687 54.9613 8.30849C54.9519 8.54829 55.0486 8.74677 55.1773 8.75183C55.3059 8.75688 55.4179 8.56659 55.4273 8.3268Z" fill="#231F20"/>
<path d="M59.5818 8.57631C59.5912 8.33651 59.4946 8.13802 59.3659 8.13297C59.2372 8.12791 59.1253 8.3182 59.1158 8.558C59.1064 8.79779 59.2031 8.99629 59.3318 9.00134C59.4604 9.0064 59.5724 8.8161 59.5818 8.57631Z" fill="#231F20"/>
<path d="M64.8319 10.1726C64.7918 10.1719 64.7533 10.1564 64.724 10.129C64.6946 10.1016 64.6764 10.0643 64.673 10.0243C64.5917 9.05631 62.1224 9.02805 61.1756 9.0987C61.1544 9.10063 61.1331 9.0983 61.1128 9.09184C61.0926 9.08538 61.0738 9.07492 61.0577 9.06109C61.0416 9.04725 61.0284 9.03032 61.0189 9.0113C61.0094 8.99227 61.0038 8.97154 61.0025 8.95033C61.0031 8.91073 61.0182 8.87273 61.0449 8.84345C61.0715 8.81418 61.108 8.79566 61.1473 8.79136C61.5289 8.76309 64.8673 8.55113 64.9909 10.0101C64.9928 10.0315 64.9905 10.053 64.9841 10.0735C64.9777 10.0939 64.9673 10.1129 64.9535 10.1293C64.9397 10.1458 64.9228 10.1593 64.9037 10.1691C64.8847 10.179 64.8639 10.185 64.8425 10.1868L64.8319 10.1726Z" fill="#231F20"/>
<path d="M61.5818 10.2608C61.6476 9.94869 61.8124 9.66618 62.0517 9.45533C62.2837 9.27127 62.5453 9.12793 62.8253 9.0314C62.9731 8.96487 63.1331 8.92998 63.2952 8.92896C63.4093 8.94321 63.5196 8.97919 63.6202 9.03494C63.867 9.14596 64.0662 9.34136 64.1819 9.58604C64.2508 9.79179 64.269 10.0112 64.2349 10.2255C64.2158 10.4606 64.1659 10.6922 64.0865 10.9143C64.0035 11.1358 63.8768 11.3383 63.714 11.5099C63.5512 11.6815 63.3556 11.8186 63.1388 11.9132C62.922 12.0077 62.6884 12.0578 62.4519 12.0604C62.2154 12.0629 61.9808 12.018 61.762 11.9282" fill="white"/>
<path d="M62.4226 12.1968C62.1805 12.1959 61.9407 12.1492 61.7161 12.059C61.6978 12.0529 61.6809 12.0431 61.6666 12.0302C61.6522 12.0173 61.6407 12.0016 61.6326 11.9841C61.6246 11.9665 61.6202 11.9476 61.6198 11.9283C61.6193 11.909 61.6228 11.8898 61.6301 11.872C61.6373 11.8541 61.6481 11.8379 61.6619 11.8244C61.6756 11.8108 61.692 11.8003 61.71 11.7933C61.728 11.7863 61.7472 11.7831 61.7665 11.7838C61.7857 11.7846 61.8046 11.7893 61.822 11.7976C62.0243 11.8802 62.241 11.9216 62.4594 11.9193C62.6779 11.917 62.8936 11.8711 63.0941 11.7842C63.2945 11.6973 63.4756 11.5712 63.6266 11.4134C63.7776 11.2555 63.8955 11.069 63.9734 10.865C64.049 10.6544 64.0953 10.4345 64.1112 10.2114C64.1437 10.0189 64.1292 9.82131 64.0688 9.63559C63.9648 9.42451 63.7897 9.25688 63.5743 9.16221C63.4904 9.11425 63.398 9.08306 63.3022 9.07036C63.1618 9.07113 63.0231 9.10247 62.896 9.16221C62.6309 9.25424 62.3827 9.38909 62.1612 9.5614C61.9451 9.7519 61.7964 10.0072 61.7373 10.2891C61.7288 10.3251 61.7069 10.3565 61.676 10.3769C61.6451 10.3973 61.6076 10.405 61.5712 10.3986C61.5348 10.391 61.5028 10.3693 61.4823 10.3382C61.4618 10.3071 61.4544 10.2691 61.4617 10.2326C61.5334 9.89011 61.7144 9.58016 61.9775 9.34944C62.2207 9.15462 62.4955 9.00288 62.79 8.90079C62.9582 8.82339 63.1419 8.78591 63.327 8.79128C63.4586 8.80546 63.5861 8.84633 63.7014 8.91139C63.9784 9.03584 64.2007 9.25684 64.3267 9.53314C64.4056 9.75991 64.4262 10.0029 64.3868 10.2397C64.3685 10.4882 64.3162 10.7331 64.2313 10.9674C64.0417 11.4411 63.6739 11.8216 63.2069 12.0272C62.9602 12.1381 62.693 12.1959 62.4226 12.1968Z" fill="#231F20"/>
<path d="M70.9752 53.1761C70.9372 53.1758 70.9005 53.1622 70.8714 53.1377C70.8424 53.1132 70.8229 53.0792 70.8162 53.0418L66.0189 23.7523C66.0153 23.7316 66.0159 23.7105 66.0206 23.6901C66.0252 23.6696 66.0339 23.6503 66.046 23.6333C66.0582 23.6162 66.0736 23.6017 66.0913 23.5906C66.1091 23.5795 66.1289 23.572 66.1496 23.5686C66.1705 23.5645 66.192 23.5647 66.2128 23.5691C66.2337 23.5735 66.2534 23.5821 66.2709 23.5943C66.2883 23.6065 66.3032 23.6221 66.3145 23.6401C66.3258 23.6581 66.3334 23.6783 66.3368 23.6993L71.1342 52.9888C71.1377 53.0097 71.137 53.0311 71.1321 53.0518C71.1272 53.0724 71.1183 53.0918 71.1058 53.109C71.0933 53.1261 71.0775 53.1405 71.0593 53.1514C71.0411 53.1623 71.0209 53.1695 71 53.1725L70.9752 53.1761Z" fill="#231F20"/>
<path d="M56.4877 46.1495C56.4644 46.1542 56.4404 46.1542 56.417 46.1495C54.5694 45.3228 51.9164 45.9552 51.8881 45.9587C51.8659 45.9645 51.8426 45.9658 51.8199 45.9626C51.7971 45.9593 51.7752 45.9515 51.7554 45.9396C51.7357 45.9278 51.7185 45.9121 51.7049 45.8936C51.6913 45.875 51.6815 45.8539 51.6762 45.8316C51.6704 45.8088 51.6692 45.7851 51.6726 45.7619C51.6761 45.7387 51.6842 45.7165 51.6963 45.6964C51.7085 45.6763 51.7245 45.6589 51.7435 45.6451C51.7625 45.6313 51.784 45.6214 51.8069 45.6161C51.9199 45.5878 54.6048 44.9484 56.5619 45.828C56.6045 45.8473 56.6376 45.8827 56.6542 45.9264C56.6708 45.9701 56.6693 46.0185 56.6502 46.0612C56.6336 46.0892 56.6098 46.1122 56.5811 46.1278C56.5525 46.1433 56.5202 46.1508 56.4877 46.1495Z" fill="white"/>
<path d="M66.7007 40.4335C66.6717 40.434 66.6433 40.4254 66.6195 40.4088L62.6417 38.0878C62.605 38.0664 62.5783 38.0314 62.567 37.9905C62.5558 37.9496 62.561 37.9059 62.5816 37.8688C62.6037 37.8319 62.6393 37.805 62.6808 37.7938C62.7223 37.7826 62.7665 37.788 62.8042 37.8087L66.7997 40.1297C66.8365 40.1518 66.8634 40.1873 66.8746 40.2288C66.8858 40.2704 66.8805 40.3146 66.8597 40.3522C66.8434 40.3792 66.8199 40.4011 66.7918 40.4155C66.7637 40.4298 66.7322 40.4361 66.7007 40.4335Z" fill="#231F20"/>
<path d="M53.771 39.0382C53.7466 39.0389 53.7224 39.0338 53.7003 39.0234C53.6782 39.0129 53.6588 38.9974 53.6438 38.9781C53.6304 38.9617 53.6203 38.9429 53.6143 38.9226C53.6082 38.9022 53.6063 38.8809 53.6086 38.8599C53.6109 38.8388 53.6174 38.8184 53.6277 38.7999C53.638 38.7814 53.6519 38.7651 53.6686 38.752L56.0567 36.8302C56.0726 36.8132 56.0919 36.7998 56.1135 36.7909C56.135 36.782 56.1582 36.7778 56.1815 36.7787C56.2048 36.7795 56.2277 36.7854 56.2485 36.7959C56.2693 36.8063 56.2877 36.8212 56.3022 36.8393C56.3168 36.8575 56.3273 36.8786 56.3331 36.9012C56.3388 36.9238 56.3396 36.9474 56.3354 36.9703C56.3312 36.9932 56.3221 37.015 56.3088 37.0341C56.2954 37.0532 56.2781 37.0692 56.258 37.0811L53.8699 39.0028C53.8424 39.0263 53.8072 39.0389 53.771 39.0382Z" fill="#231F20"/>
<path d="M24.6547 71.5885C25.4097 70.9123 26.2639 70.3559 27.1876 69.9387C27.2653 72.6483 26.1667 75.1388 25.1493 76.8451H21.8462" fill="white"/>
<path d="M25.1492 77.0286H21.8461C21.822 77.0286 21.7981 77.0238 21.7758 77.0146C21.7535 77.0054 21.7333 76.9918 21.7162 76.9748C21.6992 76.9577 21.6856 76.9375 21.6764 76.9152C21.6672 76.8929 21.6624 76.869 21.6624 76.8449C21.6624 76.8208 21.6672 76.7969 21.6764 76.7746C21.6856 76.7523 21.6992 76.7321 21.7162 76.715C21.7333 76.6979 21.7535 76.6844 21.7758 76.6752C21.7981 76.6659 21.822 76.6612 21.8461 76.6612H25.0467C25.9617 75.1033 27.0074 72.7752 27.0109 70.2211C26.2025 70.6221 25.4506 71.1281 24.7747 71.726C24.7409 71.7597 24.6952 71.7786 24.6475 71.7786C24.5999 71.7786 24.5541 71.7597 24.5204 71.726C24.4865 71.6916 24.4675 71.6453 24.4675 71.5971C24.4675 71.5488 24.4865 71.5025 24.5204 71.4681C25.2891 70.775 26.1617 70.2064 27.1063 69.783C27.1335 69.7723 27.1628 69.7683 27.1919 69.7712C27.221 69.7741 27.249 69.7839 27.2735 69.7998C27.298 69.8157 27.3184 69.8372 27.3329 69.8625C27.3475 69.8879 27.3558 69.9163 27.3571 69.9455C27.4348 72.7399 26.2761 75.2976 25.2905 76.9509C25.2746 76.9739 25.2535 76.9929 25.229 77.0064C25.2045 77.0199 25.1772 77.0275 25.1492 77.0286Z" fill="#231F20"/>
<path d="M19.9208 72.3196C20.7333 68.0804 24.0505 65.4167 24.0505 65.4167C24.6696 67.4114 24.8752 69.5115 24.6546 71.5884C24.4825 73.3794 24.0995 75.1438 23.5135 76.845H19.9561" fill="white"/>
<path d="M23.5136 77.0286H19.9562C19.9322 77.0286 19.9085 77.0238 19.8864 77.0145C19.8643 77.0052 19.8443 76.9917 19.8275 76.9746C19.8107 76.9574 19.7975 76.9372 19.7887 76.9149C19.7799 76.8926 19.7755 76.8688 19.776 76.8449C19.776 76.7968 19.7949 76.7506 19.8286 76.7162C19.8623 76.6819 19.9081 76.6621 19.9562 76.6612H23.3829C23.9403 75.0129 24.3066 73.306 24.4745 71.5741C24.6814 69.6139 24.5075 67.6322 23.9623 65.7381C23.2345 66.3952 20.7828 68.8398 20.0975 72.3513C20.0945 72.3757 20.0864 72.3993 20.0739 72.4205C20.0614 72.4418 20.0447 72.4602 20.0248 72.4747C20.0049 72.4892 19.9822 72.4995 19.9582 72.5049C19.9342 72.5103 19.9093 72.5107 19.8851 72.5061C19.8609 72.5015 19.8379 72.492 19.8175 72.4782C19.7971 72.4643 19.7798 72.4464 19.7666 72.4256C19.7534 72.4048 19.7446 72.3816 19.7407 72.3572C19.7369 72.3329 19.7381 72.308 19.7442 72.2842C20.5603 68.0449 23.9093 65.3036 23.9411 65.2753C23.9639 65.2566 23.991 65.2438 24.02 65.2383C24.049 65.2327 24.079 65.2345 24.1071 65.2435C24.135 65.2518 24.1606 65.2667 24.1815 65.287C24.2024 65.3073 24.2181 65.3324 24.2272 65.3601C24.8566 67.3782 25.0658 69.5038 24.8419 71.6059C24.6675 73.4117 24.2797 75.1904 23.6867 76.9049C23.6752 76.9415 23.6521 76.9734 23.6208 76.9957C23.5896 77.018 23.552 77.0296 23.5136 77.0286Z" fill="#231F20"/>
<path d="M18.1651 76.845H21.3127C21.3409 75.9123 21.129 74.5028 20.1186 72.6729C20.0515 72.5492 19.9844 72.4326 19.9173 72.3196C18.0944 69.232 16.427 69.2674 16.427 69.2674C15.724 72.5139 17.2112 75.4107 18.1651 76.845Z" fill="white"/>
<path d="M21.3128 77.0288H18.1651C18.135 77.029 18.1054 77.0217 18.0788 77.0075C18.0523 76.9933 18.0297 76.9727 18.0132 76.9475C17.0453 75.4885 15.5403 72.5458 16.2469 69.2286C16.2543 69.188 16.2757 69.1514 16.3073 69.1249C16.3389 69.0985 16.3788 69.0839 16.42 69.0837C16.5012 69.0837 18.2146 69.0837 20.0728 72.2278C20.1399 72.3444 20.207 72.461 20.2741 72.5811C21.3339 74.4958 21.5176 75.9584 21.4894 76.8486C21.4885 76.8955 21.4697 76.9403 21.4369 76.9738C21.404 77.0073 21.3596 77.027 21.3128 77.0288ZM18.264 76.6755H21.1326C21.1326 75.817 20.91 74.4888 19.9597 72.7895L19.7619 72.4363C18.317 69.9916 16.9958 69.5642 16.5825 69.49C15.9749 72.5246 17.342 75.2518 18.264 76.6649V76.6755Z" fill="#231F20"/>
<path d="M18.7374 81.8368H24.909L25.9052 76.8486H17.7447L18.7374 81.8368Z" fill="#231F20"/>
</svg>
