<svg width="108" height="84" viewBox="0 0 108 84" fill="none" xmlns="http://www.w3.org/2000/svg">
<path d="M68.6667 77.6348C66.4019 77.8866 63.1962 78.04 58.6667 77.9909L58.7698 76.1832C58.7698 76.1832 65.3074 75.957 65.9283 76.612C65.9283 76.612 66.0272 74.4228 65.1369 74.0058C65.1369 74.0058 66.4397 73.9723 68.0689 74.0667L68.1257 76.9169C68.1285 77.0734 68.1816 77.2256 68.278 77.3536C68.3745 77.4816 68.5099 77.5796 68.6667 77.6348Z" fill="#F0B73F"/>
<path d="M73.6667 77V75C74.0215 75.1648 74.3448 75.3835 74.6236 75.6473C74.6236 75.6473 74.9755 76.284 73.6667 77Z" fill="#020202"/>
<path d="M65.081 54.7967C64.9312 55.8635 64.7404 56.9198 64.5352 57.9719C64.3341 59.024 64.1084 60.0719 63.8785 61.1198C63.6405 62.1635 63.3963 63.2072 63.1316 64.2467C63.0844 64.4357 63.0351 64.6268 62.9838 64.8158C63.6549 64.7864 64.332 64.7444 65.001 64.6793C65.3704 64.6415 65.7398 64.6016 66.1009 64.5323C66.2822 64.4986 66.4617 64.4551 66.6386 64.4021C66.8136 64.3585 66.9734 64.2662 67.1003 64.1354L67.1023 64.1333C67.1052 64.1299 67.1087 64.127 67.1126 64.1249L65.081 54.7967ZM61.4776 66.3152C60.8945 66.503 60.285 66.591 59.6739 66.5756C59.0773 66.5609 58.483 66.4963 57.8968 66.3824C57.3119 66.2752 56.7353 66.1513 56.1566 66.0253C54.991 65.8113 53.8421 65.5102 52.7194 65.1245C51.6023 64.7241 50.5198 64.2289 49.4833 63.644L49.4813 63.6419C48.8657 64.8368 48.3937 65.6075 48.2008 65.6075C48.2008 65.6075 60.427 71.9578 61.7567 69.3875L62.2738 67.3462C62.3518 66.794 62.4421 66.2437 62.5386 65.6956C62.2312 65.9759 61.8698 66.187 61.4776 66.3152ZM49.4915 65.6201C49.4118 65.6172 49.3363 65.5827 49.2809 65.5239C49.2255 65.4652 49.1945 65.3867 49.1945 65.3051C49.1945 65.2234 49.2255 65.1449 49.2809 65.0862C49.3363 65.0274 49.4118 64.993 49.4915 64.9901C49.5713 64.993 49.6468 65.0274 49.7022 65.0862C49.7576 65.1449 49.7886 65.2234 49.7886 65.3051C49.7886 65.3867 49.7576 65.4652 49.7022 65.5239C49.6468 65.5827 49.5713 65.6172 49.4915 65.6201ZM50.5627 66.1493C50.483 66.1463 50.4075 66.1119 50.3521 66.0531C50.2967 65.9944 50.2657 65.9159 50.2657 65.8343C50.2657 65.7526 50.2967 65.6741 50.3521 65.6154C50.4075 65.5566 50.483 65.5222 50.5627 65.5193C50.6424 65.5222 50.718 65.5566 50.7734 65.6154C50.8288 65.6742 50.8597 65.7526 50.8597 65.8343C50.8597 65.9159 50.8288 65.9944 50.7734 66.0531C50.718 66.1119 50.6424 66.1463 50.5627 66.1493ZM51.7447 66.6407C51.665 66.6377 51.5894 66.6033 51.534 66.5445C51.4786 66.4858 51.4477 66.4073 51.4477 66.3257C51.4477 66.244 51.4786 66.1655 51.534 66.1068C51.5894 66.048 51.665 66.0136 51.7447 66.0107C51.8244 66.0136 51.9 66.048 51.9554 66.1068C52.0108 66.1655 52.0417 66.244 52.0417 66.3257C52.0417 66.4073 52.0108 66.4858 51.9554 66.5445C51.9 66.6033 51.8244 66.6377 51.7447 66.6407ZM53.0006 67.1699C52.9208 67.167 52.8453 67.1325 52.7899 67.0737C52.7345 67.015 52.7035 66.9365 52.7035 66.8549C52.7035 66.7732 52.7345 66.6947 52.7899 66.636C52.8453 66.5772 52.9208 66.5428 53.0006 66.5399C53.0803 66.5428 53.1558 66.5772 53.2112 66.636C53.2666 66.6947 53.2976 66.7732 53.2976 66.8549C53.2976 66.9365 53.2666 67.015 53.2112 67.0737C53.1558 67.1325 53.0803 67.167 53.0006 67.1699ZM54.2934 67.7369C54.2136 67.734 54.1381 67.6995 54.0827 67.6407C54.0273 67.582 53.9963 67.5035 53.9963 67.4219C53.9963 67.3402 54.0273 67.2618 54.0827 67.203C54.1381 67.1442 54.2136 67.1098 54.2934 67.1069C54.3731 67.1098 54.4486 67.1443 54.504 67.203C54.5594 67.2618 54.5903 67.3402 54.5903 67.4219C54.5903 67.5035 54.5594 67.582 54.504 67.6407C54.4486 67.6995 54.3731 67.7339 54.2934 67.7369ZM55.8078 68.3039C55.7281 68.3009 55.6525 68.2665 55.5971 68.2077C55.5417 68.149 55.5108 68.0705 55.5108 67.9889C55.5108 67.9072 55.5417 67.8287 55.5971 67.77C55.6525 67.7112 55.7281 67.6768 55.8078 67.6739C55.8875 67.6768 55.963 67.7112 56.0184 67.77C56.0738 67.8288 56.1048 67.9072 56.1048 67.9889C56.1048 68.0705 56.0738 68.149 56.0184 68.2077C55.963 68.2665 55.8875 68.3009 55.8078 68.3039ZM57.3591 68.8331C57.2794 68.8301 57.2039 68.7957 57.1485 68.7369C57.0931 68.6782 57.0621 68.5997 57.0621 68.5181C57.0621 68.4364 57.0931 68.3579 57.1485 68.2992C57.2039 68.2404 57.2794 68.206 57.3591 68.2031C57.4389 68.206 57.5144 68.2404 57.5698 68.2992C57.6252 68.358 57.6561 68.4364 57.6561 68.5181C57.6561 68.5997 57.6252 68.6782 57.5698 68.7369C57.5144 68.7957 57.4389 68.8301 57.3591 68.8331ZM58.9474 69.2111C58.8677 69.2081 58.7922 69.1737 58.7368 69.1149C58.6814 69.0562 58.6504 68.9777 58.6504 68.8961C58.6504 68.8144 58.6814 68.7359 58.7368 68.6772C58.7922 68.6184 58.8677 68.584 58.9474 68.5811C59.0272 68.584 59.1027 68.6185 59.158 68.6772C59.2134 68.736 59.2444 68.8144 59.2444 68.8961C59.2444 68.9777 59.2134 69.0561 59.158 69.1149C59.1026 69.1736 59.0272 69.2081 58.9474 69.2111ZM60.5357 69.3623C60.456 69.3594 60.3805 69.3249 60.3251 69.2661C60.2697 69.2074 60.2387 69.1289 60.2387 69.0473C60.2387 68.9656 60.2697 68.8871 60.3251 68.8284C60.3805 68.7696 60.456 68.7352 60.5357 68.7323C60.6154 68.7352 60.6909 68.7697 60.7463 68.8285C60.8016 68.8872 60.8325 68.9656 60.8325 69.0473C60.8325 69.1289 60.8016 69.2073 60.7463 69.266C60.6909 69.3248 60.6154 69.3593 60.5357 69.3623ZM67.1229 64.1753C67.0131 64.3322 66.8613 64.4533 66.6858 64.5239C66.5128 64.608 66.3338 64.6782 66.1502 64.7339C65.7849 64.8431 65.4156 64.9292 65.0441 65.0006C64.3386 65.1267 63.6268 65.2129 62.912 65.2589C62.8899 65.2945 62.866 65.3288 62.8402 65.3618C62.7684 65.6348 62.6945 65.9078 62.6165 66.1787C62.6663 66.1411 62.7271 66.1218 62.7889 66.1241C62.8686 66.127 62.9442 66.1614 62.9996 66.2202C63.055 66.2789 63.086 66.3574 63.086 66.4391C63.086 66.5207 63.055 66.5992 62.9996 66.658C62.9442 66.7167 62.8686 66.7512 62.7889 66.7541C62.7275 66.7566 62.6669 66.7385 62.6165 66.7025C62.5661 66.6665 62.5286 66.6145 62.5098 66.5546C62.4339 66.8192 62.3559 67.0837 62.2738 67.3462C62.2738 67.3462 67.3712 67.4219 67.6667 66.6659L67.1229 64.1753ZM64.1186 66.5651C64.0389 66.5621 63.9634 66.5277 63.908 66.4689C63.8526 66.4102 63.8216 66.3317 63.8216 66.2501C63.8216 66.1684 63.8526 66.0899 63.908 66.0312C63.9634 65.9724 64.0389 65.938 64.1186 65.9351C64.1984 65.938 64.2739 65.9724 64.3293 66.0312C64.3847 66.09 64.4157 66.1684 64.4157 66.2501C64.4157 66.3317 64.3847 66.4102 64.3293 66.4689C64.2739 66.5277 64.1984 66.5621 64.1186 66.5651ZM65.4114 66.3761C65.3317 66.3731 65.2562 66.3387 65.2008 66.2799C65.1454 66.2212 65.1144 66.1427 65.1144 66.0611C65.1144 65.9794 65.1454 65.9009 65.2008 65.8422C65.2562 65.7834 65.3317 65.749 65.4114 65.7461C65.4912 65.749 65.5667 65.7835 65.6221 65.8422C65.6774 65.901 65.7084 65.9794 65.7084 66.0611C65.7084 66.1427 65.6774 66.2211 65.6221 66.2799C65.5667 66.3387 65.4912 66.3731 65.4114 66.3761ZM66.7412 66.1115C66.6614 66.1086 66.5859 66.0741 66.5305 66.0153C66.4751 65.9566 66.4442 65.8781 66.4442 65.7965C66.4442 65.7148 66.4751 65.6364 66.5305 65.5776C66.5859 65.5188 66.6614 65.4844 66.7412 65.4815C66.8209 65.4844 66.8965 65.5188 66.9519 65.5776C67.0073 65.6363 67.0382 65.7148 67.0382 65.7965C67.0382 65.8781 67.0073 65.9566 66.9519 66.0154C66.8964 66.0741 66.8209 66.1086 66.7412 66.1115ZM65.1549 43.7591C63.1542 42.3269 55.1286 40.7561 50.1523 39.8888C48.978 39.685 47.8991 39.0994 47.0756 38.2188C46.252 37.3382 45.7277 36.2095 45.5803 35L44.6322 35.0861C39.6765 54.467 32.6667 44.6348 32.6667 44.6348L32.7672 45.122C33.2925 47.3795 34.5402 49.2443 37.0827 49.8071C37.0827 49.8071 42.771 51.8483 54.2215 50.5631L55.4035 50.4875C55.4035 50.4875 51.6195 59.4923 49.5018 63.6041L52.8405 64.7717C53.9548 65.1392 55.0424 65.6096 56.1854 65.8952C56.7554 66.0416 57.3359 66.1413 57.9214 66.1934C58.5018 66.2496 59.0854 66.2629 59.6677 66.2333C60.2366 66.2129 60.7995 66.1068 61.3381 65.9183C61.8529 65.7361 62.2968 65.3893 62.6042 64.9292L62.6063 64.925C62.6282 64.894 62.657 64.8688 62.6904 64.8515C62.7335 64.6247 62.7766 64.4 62.8197 64.1732C63.0228 63.1211 63.2486 62.0732 63.4784 61.0253C63.7144 59.9816 63.9586 58.9358 64.2233 57.8984C64.486 56.8589 64.765 55.8236 65.081 54.7967C65.081 54.7967 68.1099 45.8759 65.1549 43.7591Z" fill="#12141D"/>
<path d="M48.3422 30.1445C48.4512 30.4282 48.5602 30.7119 48.6667 30.9978C48.512 31 48.3625 31 48.2129 31C48.1293 30.749 48.0456 30.498 47.9645 30.2449C47.5006 28.8372 47.068 27.4222 46.6667 26C47.2572 27.3728 47.8157 28.7542 48.3422 30.1445Z" fill="#020202"/>
<path d="M50.6667 42C50.4597 40.69 50.2631 39.3716 50.077 38.0449C49.936 37.0494 49.8005 36.0497 49.6667 35.05C49.7282 35.0333 49.7871 35.0167 49.8433 35C49.9691 35.9809 50.0931 36.964 50.2108 37.9491C50.3741 39.2925 50.526 40.6428 50.6667 42Z" fill="#020202"/>
<path d="M36.0147 27.1546L35.1906 28.6665H35.1973C35.3785 28.7321 35.5687 28.7736 35.7623 28.7895C36.0572 28.8166 36.4034 28.8396 36.7831 28.8542C36.5262 28.2869 36.2671 27.7218 36.0147 27.1546ZM37.7122 27.2672L36.9394 28.8604C37.4509 28.8792 38.0204 28.8896 38.6034 28.8896L37.7122 27.2672ZM40.3054 28.8708L39.5795 27.3172L38.8 28.8917C39.3025 28.8917 39.814 28.8875 40.3098 28.8813C40.3098 28.8771 40.3076 28.875 40.3054 28.8708ZM41.1764 27.2776L40.4974 28.8688C40.4957 28.8725 40.4935 28.876 40.4907 28.8792C40.8615 28.8729 41.2211 28.8667 41.5584 28.8583L42.0632 28.8729L41.1764 27.2776ZM42.8561 27.165L42.1994 28.8688C42.1972 28.8708 42.1972 28.875 42.1949 28.8771L42.6372 28.8896C42.6372 28.8896 42.6394 28.8688 42.6439 28.8291C43.372 28.8083 43.8433 28.7895 43.8433 28.7895L42.8561 27.165ZM44.4865 25.186C43.8433 22.108 44.0041 20.9068 44.0041 20.9068C44.0406 20.5568 44.0518 20.205 44.0376 19.8537C43.9349 19.5784 44.0555 18.4481 44.0845 18.6066C44.1224 18.4163 44.1714 18.2002 44.2213 17.9913C44.2856 17.7214 44.2566 17.4394 44.1383 17.1859C44.0201 16.9324 43.8188 16.7204 43.5634 16.5805L38.858 14C38.858 14 33.7924 16.5525 33.3903 20.8317C32.9883 25.1109 32.6667 30.6663 32.6667 30.6663L34.8734 31L35.1906 28.6665L35.9812 27.0461C35.9846 27.0394 35.99 27.0337 35.9967 27.0297C36.0034 27.0257 36.0112 27.0236 36.0192 27.0236C36.0272 27.0236 36.035 27.0257 36.0417 27.0297C36.0484 27.0337 36.0538 27.0394 36.0572 27.0461V27.0482C36.3296 27.5946 36.5954 28.143 36.8612 28.6915L37.6206 27.0273C37.6309 27.006 37.6498 26.9892 37.6732 26.9806C37.6966 26.972 37.7226 26.9723 37.7457 26.9815C37.7651 26.9895 37.7808 27.0035 37.7904 27.0211L37.7926 27.0232L38.695 28.6373L39.4812 27.0211C39.4871 27.0085 39.4956 26.9972 39.5062 26.9878C39.5169 26.9783 39.5294 26.9709 39.5432 26.9661C39.5569 26.9612 39.5715 26.959 39.5862 26.9595C39.6009 26.96 39.6153 26.9632 39.6286 26.969C39.6535 26.9803 39.6732 26.9995 39.6844 27.0232L40.3992 28.583L41.0759 27.0294H41.0782C41.0874 27.0076 41.1055 26.9901 41.1285 26.9807C41.1515 26.9713 41.1776 26.9708 41.201 26.9794C41.2223 26.9882 41.2397 27.0037 41.2502 27.0232L42.1235 28.6748L42.8047 27.0482H42.8069C42.8088 27.0429 42.8119 27.038 42.8159 27.0338C42.8199 27.0296 42.8247 27.0263 42.8302 27.0239C42.8356 27.0216 42.8415 27.0203 42.8475 27.0202C42.8535 27.0201 42.8595 27.0211 42.865 27.0232C42.8745 27.0279 42.8823 27.0351 42.8874 27.044L43.8433 28.7895C43.8433 28.7895 45.1298 28.264 44.4865 25.186ZM36.0147 21.4323C35.9493 21.8331 35.9239 22.2387 35.9388 22.6439C35.941 22.8462 35.9678 23.0443 35.9834 23.2487C36.0058 23.4593 36.0259 23.672 36.0326 23.8868C36.0528 24.3231 36.0062 24.7599 35.8941 25.1839C35.8309 25.4054 35.7298 25.6159 35.5948 25.8074C35.5578 25.857 35.5175 25.9043 35.4742 25.9492L35.3625 26.0618C35.2906 26.1342 35.2227 26.2101 35.1593 26.2891C35.0308 26.4451 34.9235 26.6153 34.8399 26.7959C34.7525 26.9792 34.6837 27.1698 34.6344 27.3652C34.5656 27.5564 34.5515 27.7611 34.5934 27.9589C34.6353 28.1568 34.7318 28.341 34.8734 28.4934C34.6793 28.3724 34.537 28.1916 34.4713 27.9825C34.4079 27.771 34.3897 27.5499 34.4178 27.3318C34.4451 27.1173 34.4945 26.9057 34.5652 26.7C34.6391 26.4893 34.7428 26.2887 34.8734 26.1035C34.9359 26.0118 35.0052 25.9221 35.0766 25.8366L35.1861 25.7136C35.2151 25.6802 35.2419 25.6427 35.2687 25.6051C35.3702 25.4432 35.4433 25.2672 35.4854 25.0838C35.5749 24.6949 35.6095 24.2966 35.5881 23.8993C35.5837 23.697 35.568 23.4927 35.5502 23.2904C35.539 23.0798 35.5077 22.8629 35.5167 22.6481C35.5183 22.2186 35.5707 21.7906 35.673 21.3718C35.862 20.5385 36.2652 19.7605 36.8478 19.105C36.4233 19.828 36.1411 20.6163 36.0147 21.4323ZM40.0909 17.1719C39.8408 17.249 39.5973 17.3366 39.3583 17.4305C38.8736 17.614 38.4113 17.8329 37.8931 18.054C38.0349 17.8207 38.2247 17.6159 38.4515 17.4513C38.6747 17.2841 38.9221 17.1472 39.1863 17.0446C39.4507 16.9397 39.7311 16.8742 40.0172 16.8507C40.3035 16.8218 40.5932 16.8481 40.8682 16.9279C40.5957 17.0238 40.3388 17.0843 40.0909 17.1719Z" fill="#F0B73F"/>
<path d="M49.4296 67C49.039 68.0219 48.6282 69.0355 48.2226 70.0513L47.9123 70.8121C47.8052 71.0701 47.6792 71.3203 47.5351 71.5609C47.2325 71.9932 47.0487 72.4929 47.0011 73.013C46.9868 73.256 47.044 73.498 47.1661 73.7109C47.3073 73.9217 47.4872 74.1056 47.6969 74.2537C48.1366 74.5787 48.5976 74.8757 49.0772 75.1427C50.0402 75.6858 51.0417 76.1803 52.0489 76.6461L51.819 76.6986C52.2327 76.1991 52.6525 75.7043 53.0729 75.2099L53.1142 75.4556C52.575 75.0671 52.1621 74.5372 51.9244 73.9286C51.8046 73.6306 51.7282 73.318 51.6974 72.9996C51.6618 72.6783 51.6925 72.3534 51.7876 72.0436C51.8838 71.7417 52.0234 71.4543 52.2023 71.19L52.6881 70.3978C53.0116 69.8695 53.3348 69.3411 53.6667 68.8172C53.3837 69.3673 53.0923 69.9128 52.801 70.4584L52.3648 71.2771C52.2931 71.4154 52.2144 71.5477 52.1556 71.6824C52.0949 71.8178 52.046 71.9578 52.0094 72.1011C51.9356 72.385 51.9208 72.6803 51.9657 72.9698C52.003 73.2627 52.0825 73.5491 52.2017 73.8207C52.3192 74.0913 52.4741 74.3453 52.6622 74.5756C52.8442 74.8043 53.0599 75.0058 53.3023 75.1738L53.3045 75.1753C53.3235 75.1879 53.3398 75.204 53.3523 75.2228C53.3649 75.2415 53.3735 75.2624 53.3777 75.2844C53.3819 75.3063 53.3815 75.3288 53.3767 75.3507C53.3719 75.3725 53.3627 75.3932 53.3497 75.4116L53.3436 75.4196C52.9376 75.925 52.531 76.4301 52.1183 76.9304C52.0915 76.9627 52.0543 76.9855 52.0127 76.995C51.971 77.0046 51.9272 77.0003 51.8883 76.9829C50.8603 76.5252 49.857 76.0171 48.8823 75.4606C48.3872 75.1836 47.9143 74.8708 47.4676 74.5251C47.3541 74.4343 47.2457 74.3377 47.143 74.2356C47.0329 74.1282 46.9387 74.0064 46.8632 73.8739C46.7149 73.6055 46.6482 73.3018 46.671 72.9982C46.7371 72.4297 46.9524 71.887 47.2966 71.4218C47.576 70.9563 47.8207 70.472 48.0288 69.9727C48.4925 68.9805 48.9509 67.9861 49.4296 67Z" fill="#020202"/>
<path d="M44.6667 75.6507L45.5952 74C45.5952 74 51.1667 76.7761 51.3809 77.6765C51.3809 77.6765 52.4842 75.6642 51.9326 74.8641C51.9326 74.8641 58.0238 77.9766 58.6667 80.3775C58.6667 80.3775 58.6667 83.5288 44.6667 75.6507Z" fill="#F0B73F"/>
<path d="M53.7424 36.8473L53.773 37.0679C53.7768 37.1408 53.7932 37.2125 53.8215 37.2797C53.8775 37.4122 53.9806 37.5187 54.1105 37.5782C54.1736 37.6067 54.2414 37.623 54.3104 37.6261C54.3751 37.6281 54.4655 37.6219 54.5417 37.6202L55.0194 37.6036C55.6562 37.5792 56.293 37.561 56.9298 37.5489C58.2035 37.5244 59.4771 37.4838 60.7507 37.4726C63.298 37.4402 65.8453 37.4192 68.3926 37.4596L68.8599 37.4691C68.9351 37.4685 69.0085 37.4463 69.0717 37.4052C69.1349 37.3641 69.1853 37.3056 69.2169 37.2367C69.2407 37.1811 69.2556 37.1219 69.2611 37.0615L69.3393 36.5855L69.6526 34.6813L69.9667 32.7773L70.26 30.8702C70.6413 28.3261 70.9602 25.773 71.266 23.218C71.2916 23.0761 71.3025 22.9318 71.2987 22.7876C71.2813 22.6744 71.2213 22.5724 71.1312 22.5029C71.045 22.4352 70.9366 22.403 70.8278 22.4127C70.7191 22.4224 70.6179 22.4732 70.5447 22.5551C70.51 22.5949 70.483 22.6409 70.4652 22.6908C70.4466 22.75 70.4357 22.8114 70.4327 22.8735L70.3778 23.3528L70.263 24.3108C70.1111 25.5883 69.9579 26.8656 69.7941 28.1414C69.4732 30.694 69.1563 33.2472 68.8049 35.7956L68.7712 36.0344C68.7645 36.0878 68.7545 36.1407 68.7412 36.1928C68.7258 36.2519 68.7047 36.3093 68.678 36.3641C68.5719 36.5858 68.3866 36.7585 68.1594 36.8477C68.0492 36.8901 67.9324 36.9122 67.8144 36.9131L67.5756 36.9166L67.0979 36.9236C66.4609 36.9336 65.824 36.9429 65.1869 36.9452L61.3649 36.9704C60.0909 36.9792 58.8168 36.9668 57.543 36.966C57.2262 36.9631 56.9021 36.9688 56.5914 36.9581L55.6591 36.9223L53.7424 36.8473ZM53.6984 36.8029L55.6027 36.7279L56.5808 36.6921L57.5394 36.6486C58.8122 36.5931 60.0848 36.5259 61.3575 36.4801L65.1757 36.3412C65.8119 36.3161 66.4483 36.2981 67.0847 36.2807L67.5621 36.2672L67.8007 36.2605C67.8424 36.2604 67.8837 36.2524 67.9224 36.2369C67.9949 36.2068 68.0534 36.1501 68.0863 36.0783C68.0946 36.0609 68.101 36.0426 68.1053 36.0237C68.1112 35.9977 68.1154 35.9714 68.1179 35.9449L68.1484 35.7057C68.4817 33.1548 68.8494 30.6086 69.2132 28.0619C69.3918 26.788 69.5809 25.5157 69.7713 24.2434L69.9133 23.2892L69.9868 22.8124C69.9979 22.7142 70.0215 22.6178 70.0571 22.5257C70.0985 22.4258 70.1582 22.3348 70.2329 22.2572C70.3825 22.1024 70.5847 22.0108 70.7986 22.001C71.0099 21.9908 71.2171 22.0624 71.3779 22.2012C71.5374 22.3375 71.6391 22.5303 71.6622 22.74C71.6714 22.8366 71.6663 22.9341 71.647 23.0292L71.6082 23.2673C71.1953 25.8068 70.7956 28.3483 70.4581 30.8987L70.2124 32.8126L69.9875 34.7295L69.7618 36.6463L69.7052 37.1255C69.6975 37.2256 69.6755 37.3242 69.6399 37.418C69.5992 37.5202 69.5395 37.6137 69.4641 37.6934C69.3106 37.8554 69.1021 37.9528 68.8805 37.9658L68.3926 37.9778C65.8453 38.0182 63.298 37.9972 60.7507 37.9648C59.4771 37.9536 58.2035 37.913 56.9298 37.8885C56.293 37.8771 55.6562 37.8589 55.0194 37.8338L54.5418 37.8172C54.4589 37.8131 54.3898 37.8147 54.2956 37.8059C54.2056 37.7955 54.1184 37.768 54.0385 37.725C53.9204 37.6626 53.8225 37.5672 53.7568 37.4501C53.691 37.333 53.6601 37.1992 53.6678 37.0648C53.6751 36.9719 53.6883 36.8827 53.6984 36.8029Z" fill="#020202"/>
<path d="M50.1721 9.49866C50.1721 9.49866 46.5056 9.60852 45.5984 9.13246C45.5984 9.13246 45.9008 7.85077 44.918 7.96063C43.9352 8.0705 44.3069 9.93809 44.8014 9.93809C44.8014 9.93809 43.3682 11.3296 42.1209 10.9268C42.1209 10.9268 40.1538 5.72684 44.407 4.37191C48.6601 3.01699 49.6051 5.80008 49.6051 5.80008C49.6051 5.80008 53.8387 7.81416 50.1721 9.49866Z" fill="#020202"/>
<path d="M42.3848 10.3427C42.4772 10.0992 42.6262 9.89079 42.8149 9.74125C43.0019 9.59232 43.2079 9.47879 43.4252 9.40484C43.6418 9.3301 43.8632 9.27653 44.0873 9.24467C44.3127 9.21174 44.5398 9.19888 44.7668 9.20623C44.7886 9.20704 44.8092 9.21786 44.8242 9.23634C44.8392 9.25482 44.8473 9.27947 44.8469 9.30492C44.8464 9.33037 44.8373 9.35458 44.8217 9.37228C44.806 9.38999 44.785 9.39976 44.7632 9.39947L44.7597 9.39942C44.7084 9.39597 44.6584 9.37979 44.6128 9.35196C44.5673 9.32412 44.5274 9.28528 44.4958 9.238C44.4397 9.16137 44.393 9.07598 44.3571 8.9843C44.2875 8.80922 44.2393 8.62352 44.2142 8.43271C44.1861 8.2396 44.183 8.04267 44.2049 7.84847C44.2245 7.63381 44.2994 7.43115 44.4197 7.26726C44.4882 7.18047 44.5722 7.11219 44.6656 7.06717C44.7557 7.02708 44.8509 7.0047 44.9472 7.00095C45.0472 6.99551 45.147 7.01345 45.241 7.05371C45.3429 7.09844 45.4325 7.17475 45.5001 7.27445C45.6132 7.45601 45.6767 7.67327 45.6822 7.8977C45.6922 8.09864 45.6799 8.30024 45.6457 8.4975L45.5511 8.25335C45.6718 8.31645 45.7994 8.35971 45.9303 8.38189C46.071 8.41095 46.2174 8.42961 46.3646 8.4439C46.6596 8.47392 46.9598 8.48797 47.2609 8.49467C47.8648 8.50723 48.4676 8.49898 49.087 8.5213C49.1652 8.52536 49.2435 8.53042 49.3267 8.54109C49.3726 8.54648 49.4181 8.55529 49.463 8.56749C49.5015 8.57761 49.5382 8.59514 49.5718 8.61935C49.5931 8.6359 49.6119 8.65651 49.6273 8.68033C49.6516 8.71853 49.6652 8.76445 49.6666 8.81197C49.6679 8.85949 49.6567 8.90635 49.6347 8.9463L49.6263 8.96156C49.5599 9.10283 49.5047 9.2509 49.4614 9.4039C49.3611 9.72185 49.2896 10.0512 49.2481 10.3866C49.2412 10.4453 49.2416 10.5049 49.2494 10.5634L49.3371 10.8066L49.4258 11.0519L49.4707 11.1771C49.5018 11.2654 49.513 11.3616 49.5034 11.4564C49.4938 11.5512 49.4636 11.6415 49.4157 11.7189C49.3529 11.8188 49.2634 11.8914 49.1613 11.9251L48.7248 12.0795L48.7987 11.9998C48.6338 12.407 48.4401 12.7973 48.2197 13.1669C48.109 13.3531 47.9853 13.5284 47.8499 13.6908C47.713 13.8612 47.5482 13.9977 47.3653 14.0924C47.1749 14.1685 46.9713 14.1874 46.773 14.1476C46.5817 14.1153 46.3935 14.0616 46.2109 13.9873C45.8491 13.8414 45.4987 13.6594 45.1636 13.4432L45.2434 13.4254C44.7019 14.254 44.1824 15.1028 43.6495 15.9393C43.6334 15.9646 43.611 15.9833 43.5853 15.9929C43.5596 16.0024 43.5321 16.0024 43.5064 15.9927L43.5053 15.9922C43.1443 15.8397 42.7982 15.6428 42.4728 15.4049C42.1478 15.1854 41.8356 14.9453 41.5233 14.7064C40.9038 14.2192 40.301 13.7062 39.7148 13.1674L39.7083 13.1614C39.6971 13.151 39.6876 13.1382 39.6806 13.1236C39.6736 13.109 39.6691 13.0929 39.6674 13.0762C39.6657 13.0596 39.6669 13.0427 39.6707 13.0266C39.6746 13.0105 39.6812 12.9954 39.69 12.9823C39.6972 12.9717 39.7057 12.9625 39.7153 12.955C40.2008 12.5768 40.6797 12.1808 41.1451 11.7666C41.3787 11.5603 41.6022 11.3393 41.8199 11.1114C42.0424 10.8923 42.2331 10.6327 42.3848 10.3427ZM42.4187 10.36C42.2674 10.6575 42.0768 10.9253 41.8539 11.1534C41.6451 11.3958 41.4228 11.6204 41.2041 11.8502C40.7634 12.3058 40.3097 12.7417 39.8457 13.1677L39.8461 12.9554L41.7065 14.3833C42.0144 14.6238 42.3268 14.8556 42.6379 15.0864C42.7938 15.2011 42.9517 15.3111 43.1094 15.4182C43.2608 15.5252 43.4194 15.6176 43.5837 15.6945L43.4395 15.7473C44.0068 14.9422 44.5875 14.1494 45.1461 13.3364C45.1554 13.3228 45.1686 13.3135 45.1832 13.3103C45.1979 13.307 45.2131 13.31 45.226 13.3186C45.5492 13.5399 45.8914 13.7212 46.2468 13.8594C46.4229 13.9272 46.6042 13.975 46.7882 14.0023C46.9651 14.035 47.1461 14.0155 47.315 13.9457C47.4773 13.8558 47.6209 13.7256 47.7357 13.5641C47.8579 13.4025 47.9686 13.2293 48.0664 13.0464C48.264 12.6782 48.4336 12.2905 48.5733 11.8878C48.5796 11.87 48.5889 11.8539 48.6008 11.8405C48.6127 11.8272 48.6268 11.8169 48.6422 11.8102L48.6473 11.8081L49.0759 11.6257C49.1198 11.6107 49.158 11.5784 49.1839 11.5343C49.2098 11.4902 49.2218 11.4369 49.2179 11.3836C49.2159 11.3585 49.2102 11.334 49.2012 11.3112L49.1542 11.1927L49.0579 10.9513L48.961 10.7075C48.9396 10.6458 48.9278 10.5802 48.9261 10.5137C48.9237 10.4618 48.924 10.4097 48.927 10.3577C48.9595 9.98776 49.0292 9.62354 49.1347 9.27261C49.1834 9.08705 49.248 8.90772 49.3277 8.7374C49.3295 8.7338 49.3387 8.71768 49.3344 8.72442C49.3196 8.75107 49.3115 8.78206 49.3111 8.81383C49.3101 8.85505 49.3209 8.89547 49.3419 8.92866C49.3511 8.94416 49.3629 8.95732 49.3765 8.96735C49.3982 8.98253 49.3874 8.97416 49.3789 8.97321C49.3495 8.96653 49.3198 8.96182 49.29 8.95912C49.222 8.95202 49.1485 8.94879 49.0748 8.94684C48.4787 8.93582 47.8655 8.97173 47.2538 8.95452C46.9472 8.94796 46.6395 8.93661 46.3289 8.90331C46.1736 8.88502 46.0177 8.86232 45.8595 8.82648C45.6897 8.79361 45.5249 8.73179 45.3704 8.64298C45.3345 8.62101 45.3056 8.58591 45.2883 8.54302C45.271 8.50014 45.2662 8.45182 45.2746 8.40543L45.2759 8.39877C45.3303 8.09984 45.335 7.71777 45.2191 7.53038C45.1876 7.4841 45.1468 7.44766 45.1003 7.42431C45.0538 7.40097 45.003 7.39144 44.9526 7.39658C44.8968 7.39092 44.8405 7.39879 44.7874 7.41972C44.7343 7.44064 44.6855 7.47416 44.644 7.51817C44.5634 7.64259 44.5049 7.78463 44.472 7.9359C44.4391 8.08717 44.4325 8.2446 44.4526 8.3989C44.4627 8.56678 44.493 8.73218 44.5425 8.89023C44.5871 9.04086 44.6792 9.19918 44.7597 9.20586L44.7526 9.39905C44.5349 9.37338 44.3159 9.36694 44.0973 9.37979C43.8773 9.38927 43.6587 9.42536 43.4451 9.48748C43.2309 9.54627 43.027 9.64781 42.8423 9.78763C42.658 9.92833 42.5113 10.1266 42.4187 10.36Z" fill="#020202"/>
<path d="M45.2076 10L45.1142 10.7807C45.0866 11.0344 45.0797 11.2889 45.0936 11.5431C45.1054 11.7934 45.1524 12.0425 45.2341 12.2874C45.3307 12.5358 45.476 12.7752 45.6667 13C45.3322 12.8306 45.0739 12.6071 44.9182 12.3524C44.7672 12.0966 44.683 11.8265 44.6691 11.553C44.6561 11.2837 44.6957 11.0143 44.7869 10.7513C44.8696 10.489 45.0113 10.2359 45.2076 10Z" fill="#020202"/>
<path d="M42.1359 7C42.1359 7 39.1129 5.19871 41.7393 3.62085C44.3657 2.043 44.6667 3.97041 44.6667 3.97041" fill="#020202"/>
<path d="M33.5104 19.2603C32.6406 19.169 31.7632 19.173 30.8943 19.272C30.0336 19.3619 29.1894 19.5685 28.3856 19.8861L28.0891 20.0086L27.8042 20.1542C27.7106 20.2046 27.6117 20.2461 27.5225 20.3037L27.2535 20.4736C26.8986 20.6929 26.5782 20.9627 26.3025 21.2742C25.7552 21.8992 25.3992 22.6656 25.2764 23.4836C25.2139 23.8896 25.2085 24.3022 25.2603 24.7096C25.3139 25.1041 25.4252 25.5444 25.5057 25.9684C25.679 26.8226 25.8519 27.677 26.0127 28.5337C26.3396 30.2483 26.6239 31.964 26.9677 33.6707C27.6378 37.0902 28.453 40.4801 29.3253 43.8552C30.2024 47.2294 31.0575 50.6086 31.8906 53.9927L31.6358 53.7564C32.5521 53.9005 33.475 54.0336 34.3963 54.161C35.3177 54.2918 36.2395 54.4202 37.1624 54.5391C39.0069 54.7878 40.8541 55.0092 42.7043 55.2034C44.5541 55.3959 46.4089 55.5364 48.2641 55.5984C49.1904 55.63 50.1176 55.6121 51.0419 55.5446C51.5021 55.5126 51.959 55.445 52.4085 55.3425C52.6312 55.2899 52.8488 55.2183 53.0591 55.1287C53.2702 55.0446 53.4587 54.9131 53.6097 54.7446C53.6123 54.7413 53.6155 54.7386 53.6192 54.7365C53.6228 54.7345 53.6269 54.7331 53.631 54.7326C53.6352 54.7321 53.6395 54.7324 53.6435 54.7335C53.6476 54.7346 53.6514 54.7365 53.6547 54.7391C53.661 54.7443 53.6651 54.7515 53.6663 54.7595C53.6675 54.7675 53.6657 54.7757 53.6612 54.7824C53.5162 54.9732 53.3284 55.1281 53.1125 55.2347C52.9018 55.3438 52.6812 55.4331 52.4536 55.5015C52.0013 55.6356 51.5391 55.7345 51.0712 55.7972C50.1399 55.919 49.2018 55.984 48.2624 55.9917C46.3868 56.0317 44.5162 55.9209 42.6511 55.7859C40.7853 55.651 38.9269 55.4443 37.0729 55.2123C36.1467 55.09 35.2212 54.9632 34.2974 54.8247C33.3737 54.6819 32.453 54.5341 31.5296 54.3738L31.5261 54.3732C31.4655 54.3626 31.4093 54.3346 31.3647 54.2927C31.32 54.2507 31.2887 54.1968 31.2748 54.1374C30.4826 50.7426 29.7264 47.3397 29.0064 43.9287C28.2843 40.5179 27.5025 37.1207 26.6609 33.7372C26.4526 32.891 26.2493 32.0403 26.0577 31.1889C25.8664 30.3389 25.6648 29.491 25.4821 28.6395C25.2939 27.789 25.1178 26.9362 24.942 26.0833C24.8567 25.6524 24.7613 25.2443 24.6993 24.7753C24.6464 24.3167 24.6579 23.8531 24.7335 23.3976C24.8846 22.4827 25.3025 21.6315 25.9358 20.9483C26.2483 20.61 26.6133 20.3231 27.0172 20.0987L27.3125 19.9298C27.4105 19.8728 27.517 19.8326 27.6188 19.7834L27.9271 19.6426L28.245 19.5265C29.0898 19.2256 29.9759 19.0535 30.873 19.0159C31.7602 18.9678 32.6501 19.0289 33.5221 19.1979C33.5301 19.1996 33.5372 19.2042 33.5419 19.2109C33.5465 19.2176 33.5484 19.2258 33.5472 19.2338C33.5459 19.2419 33.5416 19.2491 33.5351 19.2541C33.5285 19.259 33.5204 19.2613 33.5122 19.2605L33.5104 19.2603Z" fill="#020202"/>
<path d="M33.4056 48.9777C32.9388 47.5219 32.5219 46.0543 32.1358 44.5795C31.7499 43.1047 31.3805 41.6259 31.07 40.1338L30.6382 37.8879C30.4988 37.1383 30.3583 36.389 30.1989 35.6439C29.8857 34.1525 29.5082 32.6758 29.1521 31.1901C28.785 29.7101 28.4337 28.2275 28.1092 26.7397L27.8635 25.6243C27.7661 25.2376 27.7025 24.8434 27.6733 24.446C27.6304 23.6268 27.7963 22.8101 28.1561 22.0703C28.5229 21.3324 29.0793 20.7019 29.77 20.2413C30.4455 19.8086 31.1887 19.4883 31.9697 19.2934C33.5019 18.9217 35.1004 18.9029 36.6411 19.2385C36.6491 19.2402 36.6562 19.2448 36.6609 19.2514C36.6656 19.2581 36.6675 19.2662 36.6663 19.2742C36.6651 19.2822 36.6609 19.2894 36.6545 19.2944C36.6481 19.2995 36.64 19.3019 36.6318 19.3012L36.6294 19.3011C35.107 19.1665 33.5726 19.3271 32.1129 19.7739C31.4054 19.998 30.7363 20.3259 30.1281 20.7467C29.547 21.1652 29.0824 21.7211 28.7771 22.3632C28.4721 23.0058 28.3243 23.7098 28.3456 24.4188C28.3624 24.7816 28.4108 25.1422 28.4903 25.4967L28.7041 26.6197C28.9921 28.1164 29.2534 29.6183 29.4989 31.1228C29.7434 32.6239 30.0449 34.1159 30.4032 35.5987L30.6857 36.7063L30.9887 37.8092L31.5936 40.015C31.9773 41.4899 32.3068 42.9771 32.6231 44.4676C32.9391 45.9581 33.2274 47.4551 33.4685 48.9632C33.4698 48.9711 33.4679 48.9792 33.4634 48.9859C33.4588 48.9926 33.4519 48.9973 33.4439 48.9992C33.436 49.001 33.4276 48.9998 33.4205 48.9958C33.4134 48.9919 33.4081 48.9854 33.4056 48.9777Z" fill="#020202"/>
<path d="M30.6667 45C31.1132 45.6222 31.5467 46.2369 31.9877 46.8387C32.4287 47.4398 32.883 48.0187 33.3545 48.5682C33.8204 49.1177 34.3262 49.6148 34.8657 50.0536C35.4108 50.4988 36.0228 50.8087 36.6667 50.9656C35.973 51.0753 35.2685 50.9211 34.6498 50.5245C34.0293 50.1477 33.4604 49.6567 32.9632 49.0688C32.4705 48.4924 32.0273 47.8565 31.6406 47.1708C31.2475 46.4958 30.9207 45.7673 30.6667 45Z" fill="#020202"/>
<path d="M32.0152 54.0412C31.3389 56.1152 30.6377 58.1791 29.9116 60.2327L28.8228 63.3134C28.4616 64.3407 28.091 65.3646 27.7109 66.3851C26.9484 68.4252 26.1591 70.4576 25.471 72.5239C25.1338 73.5589 24.8146 74.6001 24.5395 75.6518C24.4052 76.1781 24.2709 76.7051 24.1734 77.2372C24.0551 77.7543 23.9972 78.2832 24.0011 78.8135L23.6822 78.7548C24.5786 76.7204 25.4771 74.6866 26.3954 72.6626L29.1407 66.5866L31.9331 60.5337C32.3927 59.5228 32.8701 58.5186 33.3134 57.5011C33.7683 56.4873 34.2128 55.4716 34.6047 54.4326L34.6054 54.4309C34.6082 54.4233 34.6139 54.4171 34.6213 54.4136C34.6286 54.4101 34.637 54.4096 34.6448 54.4121C34.6526 54.4146 34.659 54.4199 34.6629 54.4271C34.6668 54.4342 34.6677 54.4425 34.6655 54.4503C34.5152 54.9856 34.3628 55.5244 34.1744 56.0478L33.9042 56.8389L33.6122 57.6211C33.4185 58.1433 33.2188 58.6628 33.013 59.1798C32.81 59.6979 32.6094 60.2174 32.3938 60.7301C31.5569 62.7926 30.6622 64.8296 29.7588 66.8624C28.8465 68.8914 27.8884 70.8992 26.9333 72.9081C25.979 74.9174 24.9912 76.9109 23.9855 78.8963L23.9786 78.91C23.962 78.9427 23.9348 78.969 23.9013 78.9846C23.8678 79.0001 23.83 79.0041 23.7939 78.9957C23.7579 78.9874 23.7258 78.9673 23.7027 78.9386C23.6796 78.9099 23.6669 78.8744 23.6667 78.8377C23.6837 78.2783 23.7679 77.7229 23.9174 77.1833C24.045 76.6498 24.1879 76.1229 24.3373 75.5977C24.6359 74.5478 24.9533 73.5047 25.2724 72.4621C25.9037 70.3749 26.5278 68.2839 27.2094 66.2117C27.9024 64.1435 28.6636 62.0993 29.4523 60.066C30.2421 58.033 31.0688 56.014 31.956 54.0188C31.9593 54.0114 31.9653 54.0055 31.9729 54.0024C31.9804 53.9993 31.9888 53.9992 31.9964 54.0021C32.004 54.005 32.0102 54.0106 32.0137 54.0179C32.0172 54.0252 32.0177 54.0335 32.0152 54.0412Z" fill="#020202"/>
<path d="M37.5867 55.031C37.6041 56.3444 37.5643 57.6528 37.5162 58.9604C37.491 59.6141 37.4605 60.2673 37.4247 60.9201C37.3933 61.5732 37.3505 62.2255 37.296 62.877C37.1901 64.1801 37.0253 65.4803 36.9489 66.7858C36.9107 67.4384 36.8887 68.0919 36.8866 68.7449C36.8896 69.0713 36.889 69.3977 36.908 69.7222C36.9169 69.8842 36.9277 70.046 36.944 70.2046C36.9524 70.2837 36.9621 70.3626 36.9755 70.4364C36.9814 70.4708 36.9893 70.5049 36.999 70.5383C37.0019 70.549 37.0059 70.5594 37.011 70.5692C37.0128 70.5731 37.0121 70.5691 37.007 70.5623C36.9978 70.5504 36.9865 70.5406 36.9736 70.5334C36.9607 70.5262 36.9465 70.5218 36.932 70.5205L37.0556 70.6205C37.0604 70.6284 37.0796 70.6571 37.0884 70.66C37.1 70.6664 37.0964 70.6636 37.0947 70.6598C37.1242 70.6385 37.1513 70.6136 37.1752 70.5856C37.263 70.4659 37.3366 70.3355 37.3943 70.1973C37.5191 69.8952 37.6262 69.5856 37.715 69.27C37.8998 68.6326 38.0605 67.9818 38.2093 67.3276C38.5029 66.0172 38.7513 64.6922 39.0033 63.3674L39.7791 59.3919C40.0423 58.0661 40.3084 56.7397 40.6074 55.4175C40.6091 55.4098 40.6135 55.403 40.6198 55.3986C40.6261 55.3941 40.6337 55.3924 40.6412 55.3936C40.6487 55.3948 40.6555 55.3989 40.6602 55.4051C40.6649 55.4113 40.6672 55.4191 40.6666 55.427C40.5631 56.7811 40.4237 58.1305 40.2484 59.4751C40.0772 60.8204 39.8721 62.1607 39.6329 63.496C39.385 64.8295 39.0968 66.1562 38.7509 67.4718C38.5766 68.1293 38.3924 68.7856 38.1543 69.4293C38.0381 69.7567 37.8994 70.075 37.7393 70.3817C37.6535 70.5476 37.5472 70.701 37.4232 70.8381C37.3365 70.9361 37.2162 70.9943 37.0884 71C37.0087 70.9974 36.9328 70.9638 36.8758 70.9057C36.8288 70.8593 36.7923 70.8025 36.769 70.7395L36.8925 70.8395C36.844 70.8316 36.8001 70.8047 36.7698 70.7643C36.7561 70.7461 36.7448 70.726 36.736 70.7047C36.7247 70.6773 36.7158 70.6489 36.7095 70.6199C36.6996 70.5741 36.6923 70.5278 36.6875 70.4812C36.6779 70.3932 36.6738 70.309 36.6708 70.225C36.6654 70.0573 36.666 69.892 36.6685 69.727C36.676 69.3973 36.6798 69.0694 36.6929 68.7416L36.7475 66.7771C36.7761 65.4679 36.749 64.1549 36.7922 62.8456C36.8121 62.191 36.8473 61.5373 36.8977 60.8846C36.9425 60.2316 36.9954 59.5792 37.0564 58.9275C37.1804 57.6243 37.3197 56.3223 37.527 55.0262C37.5282 55.0185 37.5322 55.0115 37.5381 55.0067C37.544 55.0018 37.5515 54.9995 37.559 55.0001C37.5664 55.0007 37.5734 55.0042 37.5786 55.0099C37.5837 55.0156 37.5866 55.0231 37.5867 55.031Z" fill="#020202"/>
<path d="M56.7155 69.0201C56.9943 69.8899 57.2224 70.776 57.4407 71.6652C57.6551 72.5558 57.8621 73.4484 58.0223 74.3571C58.1791 75.2668 58.2971 76.1909 58.4918 77.0879C58.5864 77.5373 58.6935 77.9818 58.813 78.4214C58.8704 78.6418 58.9388 78.8578 59.0054 79.0726C59.0391 79.1797 59.0738 79.2863 59.1101 79.3893C59.1282 79.4408 59.1469 79.492 59.1662 79.5383C59.1758 79.5627 59.1858 79.5824 59.1949 79.6015C59.1984 79.6065 59.205 79.6178 59.205 79.6178C59.2039 79.6143 59.2022 79.6113 59.1998 79.609C59.1978 79.6066 59.2019 79.612 59.1947 79.6034C59.1876 79.5952 59.1796 79.5882 59.1709 79.5827C59.1532 79.5713 59.1334 79.566 59.1136 79.5675C59.109 79.5679 59.1047 79.5706 59.1016 79.575C59.0985 79.5794 59.0969 79.5851 59.0971 79.591C59.0973 79.5969 59.0993 79.6024 59.1027 79.6065C59.1061 79.6105 59.1106 79.6127 59.1152 79.6125L59.2067 79.6098C59.2102 79.6097 59.2337 79.6138 59.2218 79.6073C59.2115 79.6053 59.2059 79.6092 59.2149 79.5927C59.239 79.5188 59.253 79.4404 59.2562 79.3606C59.2679 79.1524 59.266 78.9434 59.2504 78.7356C59.2236 78.304 59.1721 77.8657 59.1135 77.4289C58.9903 76.5549 58.8369 75.6825 58.6911 74.8068C58.5495 73.9296 58.3982 73.053 58.2615 72.1705C58.123 71.2885 57.9881 70.4036 57.8781 69.5086C57.8771 69.5008 57.8784 69.4928 57.8817 69.4861C57.8851 69.4794 57.8903 69.4746 57.8963 69.4725C57.9023 69.4704 57.9087 69.4712 57.9143 69.4747C57.9199 69.4782 57.9243 69.4842 57.9266 69.4916C58.1916 70.3326 58.43 71.1844 58.6418 72.0469C58.8566 72.9083 59.0467 73.7792 59.212 74.6596C59.3763 75.5438 59.5024 76.4387 59.5897 77.3403C59.637 77.7974 59.6627 78.2576 59.6666 78.7186C59.6673 78.9608 59.6487 79.2024 59.6113 79.4398C59.5903 79.5837 59.5448 79.7201 59.4779 79.8393C59.451 79.8839 59.4172 79.9211 59.3785 79.9485C59.3399 79.976 59.2972 79.9931 59.2531 79.9989C59.209 80.0032 59.1647 79.9948 59.1235 79.9743C59.0859 79.9564 59.051 79.9305 59.0203 79.8977L59.1134 79.94C59.0754 79.937 59.039 79.9194 59.0091 79.8894C59.0051 79.8855 59.0014 79.881 58.9981 79.876C58.9885 79.8625 58.9794 79.8484 58.971 79.8337C58.9586 79.8099 58.9537 79.7954 58.9451 79.7757C58.9334 79.743 58.9221 79.7111 58.9139 79.6818C58.8956 79.622 58.8805 79.565 58.866 79.5076C58.8369 79.3932 58.8111 79.28 58.7862 79.1666L58.6423 78.4882C58.5465 78.0373 58.4464 77.5892 58.338 77.144C58.1272 76.2516 57.8535 75.3813 57.6237 74.4949C57.3976 73.6074 57.2239 72.7018 57.0613 71.793C56.9027 70.8828 56.7572 69.9683 56.6668 69.0361C56.6661 69.0284 56.6676 69.0205 56.6711 69.0141C56.6745 69.0076 56.6797 69.003 56.6857 69.001C56.6916 68.9991 56.6979 68.9999 56.7034 69.0034C56.7089 69.0069 56.7132 69.0129 56.7155 69.0201Z" fill="#020202"/>
<path d="M74.3851 41.0292C74.516 44.176 74.5739 47.3229 74.6243 50.4697C74.6635 53.6166 74.6859 56.7634 74.6446 59.9102L74.547 64.6305C74.5104 66.2039 74.4762 67.7774 74.4646 69.3508C74.4505 70.9242 74.463 72.4976 74.4743 74.071L74.4819 75.2511L74.4918 75.8411L74.4944 75.9886C74.4948 76.045 74.4899 76.1012 74.4798 76.1569C74.4584 76.2697 74.4129 76.3782 74.3456 76.477C74.2086 76.6774 73.99 76.8278 73.7313 76.8997C73.6051 76.9326 73.4736 76.9482 73.3416 76.946L72.9958 76.9504L71.6123 76.9681L70.2289 76.9885L69.5372 76.9987L69.4498 76.9999C69.4142 77.0003 69.3785 76.9992 69.3427 76.9968C69.2701 76.992 69.1983 76.9812 69.1281 76.9645C68.9898 76.9309 68.8592 76.8772 68.7423 76.8058C68.5036 76.6581 68.338 76.4399 68.2778 76.1936C68.2633 76.1331 68.2547 76.0716 68.2524 76.0099L68.2462 75.8625L68.2341 75.5676L68.1926 74.388L68.0364 69.6695C67.9424 66.5236 67.8431 63.3778 67.7832 60.2313C67.6797 53.9382 67.6226 47.6443 67.7084 41.3482C67.7085 41.3403 67.7122 41.3328 67.7187 41.3272C67.7252 41.3216 67.734 41.3184 67.7432 41.3182C67.7524 41.3181 67.7613 41.321 67.7681 41.3264C67.7748 41.3318 67.7788 41.3392 67.7793 41.347C68.1432 47.636 68.3643 53.9272 68.539 60.2192C68.6182 63.3654 68.658 66.5121 68.703 69.6588L68.7549 74.3791L68.7649 75.5593L68.7657 75.8544L68.7659 76.0019C68.7657 76.0385 68.7691 76.075 68.7761 76.1112C68.8052 76.2554 68.8962 76.3851 69.0315 76.4751C69.1008 76.5203 69.1785 76.5553 69.2613 76.5785C69.3019 76.5895 69.3437 76.5971 69.386 76.6012C69.4076 76.6034 69.4295 76.6047 69.4516 76.6052L69.5372 76.6065L70.2289 76.6167L71.6123 76.6371L72.9958 76.6548L73.3416 76.6592C73.4405 76.6646 73.5398 76.6561 73.6355 76.6341C73.7748 76.5991 73.9002 76.532 73.998 76.4402C74.0957 76.3485 74.162 76.2356 74.1896 76.1139C74.1985 76.0725 74.2037 76.0307 74.2049 75.9886L74.2075 75.8411L74.2174 75.2511L74.225 74.071C74.2364 72.4976 74.2489 70.9242 74.2347 69.3508C74.2231 67.7774 74.1889 66.2039 74.1524 64.6305L74.0547 59.9102C74.0134 56.7634 74.0358 53.6166 74.075 50.4697C74.1254 47.3229 74.1833 44.176 74.3142 41.0292C74.3146 41.0213 74.3184 41.0139 74.325 41.0085C74.3316 41.003 74.3405 41 74.3497 41C74.3588 41 74.3677 41.003 74.3743 41.0085C74.3809 41.0139 74.3847 41.0213 74.3851 41.0292Z" fill="#020202"/>
<path d="M83.8333 37H58.5C58.0397 37 57.6667 37.457 57.6667 38.0207V39.9793C57.6667 40.543 58.0397 41 58.5 41H83.8333C84.2936 41 84.6667 40.543 84.6667 39.9793V38.0207C84.6667 37.457 84.2936 37 83.8333 37Z" fill="#020202"/>
<path d="M48.6667 13.5003C48.6663 13.6242 48.6198 13.7436 48.5362 13.8354C48.4527 13.9273 48.3379 13.9851 48.214 13.9977C48.146 14.0043 48.0774 13.9969 48.0125 13.9759C47.9475 13.955 47.8876 13.921 47.8364 13.876C47.783 13.8289 47.7403 13.771 47.7111 13.7062C47.6818 13.6414 47.6667 13.5712 47.6667 13.5002C47.6666 13.4292 47.6817 13.3589 47.7109 13.2941C47.7401 13.2293 47.7828 13.1714 47.8361 13.1242C47.8873 13.0791 47.9473 13.045 48.0123 13.0241C48.0773 13.0031 48.146 12.9957 48.214 13.0024C48.3379 13.0151 48.4527 13.073 48.5363 13.1649C48.6198 13.2568 48.6663 13.3763 48.6667 13.5003ZM48.6667 13.5003C48.6663 13.4417 48.6534 13.3838 48.6289 13.3305C48.6045 13.2772 48.5689 13.2297 48.5247 13.1911C48.4823 13.1548 48.4328 13.1277 48.3793 13.1115C48.3258 13.0954 48.2695 13.0905 48.214 13.0972C48.1152 13.1094 48.0242 13.1572 47.9583 13.2314C47.8924 13.3057 47.856 13.4014 47.856 13.5005C47.856 13.5996 47.8924 13.6953 47.9583 13.7696C48.0242 13.8439 48.1152 13.8916 48.214 13.9038C48.2695 13.9105 48.3259 13.9055 48.3794 13.8893C48.4329 13.8731 48.4824 13.8459 48.5248 13.8095C48.569 13.7709 48.6045 13.7233 48.629 13.67C48.6534 13.6167 48.6663 13.5589 48.6667 13.5003Z" fill="#020202"/>
<path d="M49.1667 11C49.3008 10.9955 49.428 10.9409 49.5212 10.8476C49.6145 10.7543 49.6667 10.6297 49.6667 10.5C49.6667 10.3703 49.6145 10.2457 49.5212 10.1524C49.428 10.0591 49.3008 10.0045 49.1667 10C49.0325 10.0045 48.9053 10.0591 48.8121 10.1524C48.7188 10.2457 48.6667 10.3703 48.6667 10.5C48.6667 10.6297 48.7188 10.7543 48.8121 10.8476C48.9053 10.9409 49.0325 10.9955 49.1667 11Z" fill="#020202"/>
<path d="M36.4793 34.0728L34.0266 34.1037L34.0743 34.0679C33.672 35.5057 33.3681 36.971 33.165 38.453C32.9442 39.9284 32.8705 41.4233 32.945 42.9143C32.982 43.6551 33.088 44.3905 33.2614 45.1103C33.4278 45.8253 33.6915 46.5122 34.0446 47.1506C34.3962 47.7837 34.8797 48.328 35.4601 48.7439C36.0455 49.1503 36.6999 49.4387 37.3889 49.5941L37.4039 49.5983L37.4091 49.5999C38.125 49.8237 38.8539 50.0005 39.5914 50.1293C40.3315 50.2661 41.0773 50.3736 41.8256 50.4598C43.3236 50.6362 44.8294 50.7338 46.337 50.7521C46.7139 50.7646 47.0911 50.7633 47.4683 50.7584L48.5999 50.7489L49.7314 50.7129L50.2972 50.6939L50.8624 50.6592L51.993 50.5898C52.3699 50.5662 52.7464 50.5243 53.1232 50.4924L54.2535 50.3909L55.3894 50.3266L55.3913 50.3265C55.4058 50.3257 55.4203 50.3278 55.434 50.3328C55.4478 50.3378 55.4604 50.3455 55.4712 50.3555C55.482 50.3655 55.4908 50.3777 55.4971 50.3912C55.5034 50.4048 55.5071 50.4194 55.5079 50.4344C55.5087 50.4524 55.5056 50.4703 55.4986 50.4868C54.9526 51.7674 54.3998 53.0444 53.8404 54.3179C53.287 55.5944 52.7264 56.8676 52.1586 58.1375C51.5883 59.4062 51.0084 60.6705 50.419 61.9303C50.1212 62.5587 49.818 63.1847 49.4983 63.8026C49.338 64.1114 49.1741 64.4184 48.9985 64.7198C48.91 64.8701 48.819 65.0192 48.7197 65.1646C48.6695 65.2383 48.6157 65.3094 48.5584 65.3775C48.5283 65.4135 48.4955 65.447 48.4603 65.4777C48.4169 65.5198 48.3617 65.5465 48.3026 65.554L48.336 65.4095C49.4037 65.9596 50.4919 66.4714 51.5853 66.9659C52.68 67.4582 53.7852 67.9253 54.9042 68.3512C56.0173 68.7866 57.1559 69.1489 58.3132 69.4359C58.8854 69.5783 59.4695 69.6636 60.0574 69.6906C60.3417 69.7041 60.6265 69.6749 60.9027 69.604C61.0287 69.5777 61.1481 69.5247 61.2533 69.4483C61.3585 69.372 61.4472 69.2739 61.5139 69.1604L61.5006 69.1957L61.9983 67.1628C62.0075 67.1251 62.0287 67.0918 62.0583 67.068C62.088 67.0442 62.1245 67.0313 62.162 67.0313L62.1651 67.0314C63.0652 67.0343 63.9702 67.0084 64.8676 66.9503C65.3161 66.9192 65.7644 66.8796 66.2035 66.8108C66.4203 66.7789 66.6352 66.7341 66.847 66.6767C66.9461 66.6496 67.0428 66.6142 67.1362 66.5707C67.1984 66.548 67.2536 66.5087 67.2964 66.4568L67.2873 66.573L65.9987 60.6749L64.7208 54.7743C64.7124 54.7359 64.7142 54.6959 64.7262 54.6586L64.7274 54.6549C65.1645 53.3003 65.511 51.9162 65.7643 50.5125C65.891 49.8129 65.9809 49.1067 66.0335 48.397C66.0919 47.6941 66.0812 46.9868 66.0016 46.2861C65.9593 45.9425 65.8871 45.6036 65.7859 45.2734C65.6845 44.9524 65.5356 44.6495 65.3446 44.3755C65.146 44.1118 64.8952 43.8948 64.609 43.7392C64.4644 43.65 64.3142 43.5708 64.1595 43.5021L63.9291 43.3898L63.6897 43.2922C62.3943 42.788 61.0692 42.3695 59.7224 42.039C57.0256 41.3497 54.2964 40.7804 51.5608 40.255L50.5341 40.0616C50.3629 40.0295 50.1923 40.0002 50.0186 39.9577L49.7593 39.8983L49.5055 39.8177C48.4944 39.4858 47.5984 38.8574 46.9265 38.009C46.2546 37.1606 45.8358 36.1287 45.7209 35.0389C45.7614 35.0364 45.7329 35.0429 45.7424 35.0445L45.7438 35.0528L45.7466 35.0694L45.7523 35.1024L45.7638 35.1686L45.7867 35.3008C45.7996 35.3893 45.8167 35.4771 45.8382 35.5638C45.8778 35.7379 45.926 35.9098 45.9825 36.0789L46.0688 36.3317C46.1003 36.4148 46.1382 36.4953 46.1726 36.5772C46.2417 36.7408 46.3198 36.9001 46.4065 37.0545C46.7476 37.6754 47.2023 38.2219 47.7452 38.6635C48.2821 39.1081 48.8987 39.4387 49.5596 39.6363L49.8059 39.7102L50.0573 39.7634C50.223 39.8014 50.3962 39.8283 50.5679 39.8576L51.5985 40.0344C54.3446 40.5169 57.0872 41.0339 59.8014 41.7067C61.1674 42.0276 62.5122 42.438 63.8277 42.9356L64.0748 43.0336L64.3177 43.1488C64.4833 43.2208 64.6442 43.3037 64.7993 43.3972C65.1314 43.5763 65.4231 43.8256 65.6556 44.129C65.8759 44.4367 66.0483 44.778 66.1668 45.1406C66.2789 45.4955 66.3583 45.8605 66.404 46.2308C66.4887 46.9597 66.5017 47.6956 66.4427 48.4272C66.3905 49.1524 66.3002 49.874 66.1722 50.589C65.918 52.0153 65.5689 53.4218 65.1273 54.7984L65.1339 54.6791L66.4025 60.5819L67.6602 66.4871L67.6631 66.5008C67.6705 66.5354 67.6663 66.5716 67.6511 66.6034C67.5769 66.7532 67.4507 66.8685 67.2978 66.9263C67.1846 66.9788 67.0673 67.0214 66.9472 67.0537C66.7205 67.114 66.4907 67.1608 66.2588 67.1937C65.8016 67.2626 65.3461 67.2999 64.8907 67.329C63.9795 67.3853 63.0718 67.3942 62.1602 67.3821L62.3269 67.2508L61.8061 69.2775L61.8055 69.2799C61.8025 69.2914 61.7982 69.3024 61.7928 69.3129C61.7049 69.4646 61.5875 69.5958 61.4481 69.6983C61.3086 69.8007 61.1501 69.8722 60.9826 69.9081C60.6773 69.9837 60.3629 70.0129 60.0494 69.9948C59.4427 69.9601 58.8406 69.8651 58.2516 69.7111C57.0867 69.4075 55.9417 69.028 54.8232 68.575C52.5852 67.6875 50.4094 66.6539 48.2692 65.5457C48.2552 65.5385 48.2438 65.5268 48.2367 65.5124C48.2295 65.4981 48.227 65.4817 48.2295 65.4658C48.232 65.4498 48.2394 65.4351 48.2505 65.4238C48.2617 65.4124 48.276 65.4051 48.2915 65.4027L48.3026 65.4011C48.3597 65.3711 48.4098 65.3284 48.4493 65.2762C48.5032 65.2125 48.554 65.146 48.6014 65.077C48.6979 64.9371 48.7882 64.7908 48.8761 64.6429C49.0509 64.346 49.2154 64.0413 49.3763 63.7347C49.6975 63.1209 50.0029 62.4974 50.303 61.8713C50.9048 60.6196 51.4749 59.3514 52.0354 58.079C52.5965 56.8068 53.1492 55.5306 53.6936 54.2504C54.2341 52.9687 54.7677 51.6839 55.2942 50.3959L55.4034 50.5561L54.2739 50.6382L53.1446 50.7576C52.7678 50.7953 52.3924 50.8431 52.0144 50.8726L50.8803 50.9599L50.3131 51.0035L49.745 51.0315L48.6083 51.0853C48.2293 51.0998 47.8497 51.0994 47.4704 51.1055C47.091 51.1122 46.7116 51.1154 46.3321 51.1047C44.8128 51.0937 43.2951 51.0028 41.7847 50.8324C41.0293 50.7446 40.2771 50.6292 39.5279 50.4864C38.7737 50.35 38.0286 50.164 37.2973 49.9295L37.3173 49.9354C36.586 49.766 35.8923 49.455 35.2731 49.0187C34.6582 48.5722 34.1468 47.9903 33.7759 47.3149C33.4095 46.6484 33.1395 45.93 32.9745 45.1827C32.8071 44.4431 32.709 43.6886 32.6815 42.9297C32.627 41.4209 32.7225 39.9104 32.9664 38.4217C33.1993 36.9361 33.5377 35.4702 33.9789 34.0359C33.9821 34.0254 33.9885 34.0163 33.9971 34.0098C34.0057 34.0034 34.0161 33.9999 34.0267 34L36.4794 34.031C36.4847 34.0311 36.4897 34.0333 36.4935 34.0372C36.4972 34.0411 36.4993 34.0464 36.4993 34.0519C36.4993 34.0573 36.4972 34.0626 36.4935 34.0665C36.4897 34.0704 36.4846 34.0727 36.4793 34.0728Z" fill="#020202"/>
<path d="M45.0114 30.9887C45.0943 30.33 45.1668 29.6794 45.219 29.0248C45.2734 28.3709 45.3076 27.7161 45.3551 27.0601C45.4077 26.4046 45.4677 25.7448 45.4742 25.0835C45.4752 24.4221 45.4394 23.7612 45.3671 23.105L45.1562 21.1376L44.9355 19.1743L44.8346 18.1911L44.7846 17.699L44.7604 17.4527L44.7316 17.219C44.697 16.9153 44.5885 16.6286 44.4185 16.3914C44.3277 16.2808 44.2144 16.1974 44.0887 16.1484C43.9547 16.1014 43.8138 16.0848 43.6742 16.0997L43.6667 16.0579C43.8143 15.9997 43.9726 15.9851 44.1265 16.0153C44.2805 16.0456 44.4253 16.1197 44.5474 16.2309C44.7817 16.474 44.9466 16.7916 45.021 17.1427C45.16 17.8124 45.2444 18.4535 45.332 19.1155C45.4114 19.7738 45.4618 20.4362 45.5054 21.0988C45.5533 21.761 45.5704 22.4262 45.5697 23.0911C45.572 23.7558 45.5729 24.4187 45.5958 25.0815C45.6191 25.7442 45.6666 26.409 45.6667 27.0762C45.6589 27.7439 45.6053 28.4099 45.5061 29.068C45.4146 29.7289 45.2608 30.3766 45.0475 31L45.0114 30.9887Z" fill="#020202"/>
<path d="M42.1926 28.3973L42.2255 29.7521H42.1176L42.0905 28.3973L42.1689 28.4793C40.9988 28.4692 39.8294 28.438 38.6596 28.4175C37.4898 28.397 36.3203 28.3698 35.1509 28.3361L35.3194 28.1992C35.1651 29.1264 35.074 30.0632 35.0468 31.003C35.033 31.4708 35.0433 31.939 35.0776 32.4058C35.1068 32.8675 35.1773 33.3257 35.2883 33.7745C35.3872 34.2113 35.5822 34.6198 35.8588 34.9696C35.9959 35.1308 36.1654 35.2607 36.3559 35.3504C36.5598 35.4345 36.772 35.4959 36.989 35.5334C37.9063 35.6729 38.8337 35.7324 39.7611 35.7112C41.6294 35.7008 43.5013 35.5791 45.3658 35.4023C47.2318 35.2357 49.0916 34.995 50.9459 34.733C50.954 34.7319 50.9622 34.732 50.9703 34.7334L50.972 34.7337C51.6886 34.8578 52.4106 34.9625 53.133 35.0464C53.8528 35.1364 54.577 35.1862 55.3022 35.1956C55.4822 35.1966 55.6619 35.1905 55.8395 35.1788C56.0108 35.1737 56.1808 35.1475 56.3459 35.1006C56.5006 35.0504 56.6433 34.9681 56.7648 34.8589C56.8864 34.7498 56.9841 34.6162 57.0519 34.4666C57.1941 34.1496 57.2723 33.8071 57.282 33.459C57.2998 33.1042 57.2792 32.7485 57.2205 32.3982L57.2203 32.3971C57.214 32.359 57.2197 32.3199 57.2368 32.2854C57.2538 32.2509 57.2813 32.2228 57.3152 32.2052L59.5795 31.033L59.5962 31.0256L59.6054 31.0221C59.8316 30.9483 60.0366 30.8194 60.2022 30.6468C60.2286 30.6201 60.2476 30.5869 60.2574 30.5504C60.2672 30.514 60.2674 30.4756 60.2581 30.4391C60.2457 30.3992 60.2255 30.3623 60.1985 30.3306C60.1715 30.2989 60.1385 30.2732 60.1014 30.2549C60.02 30.2144 59.9271 30.204 59.839 30.2257L59.4466 30.3311L58.646 30.5395C58.1107 30.6741 57.5744 30.8038 57.0276 30.911C56.7467 30.9706 56.4621 31.0098 56.1757 31.0283C56.1332 31.0297 56.0906 31.0285 56.0481 31.0249C55.9978 31.0209 55.9481 31.0107 55.9001 30.9947C55.8225 30.9707 55.7469 30.9404 55.6742 30.904C55.621 30.8776 55.5726 30.8424 55.531 30.7997C55.4945 30.7621 55.4674 30.7161 55.4521 30.6656C55.4343 30.6048 55.4352 30.54 55.4546 30.4798C55.478 30.4128 55.5172 30.3526 55.5687 30.3044C55.6002 30.2736 55.6335 30.2449 55.6685 30.2183C55.9011 30.0491 56.1443 29.8954 56.3965 29.758C56.5216 29.6896 56.6512 29.6256 56.7788 29.5671C56.8407 29.5383 56.9086 29.5084 56.949 29.4861C56.9581 29.4812 56.9651 29.476 56.9598 29.4799C56.9356 29.5019 56.9194 29.5315 56.9139 29.564C56.9045 29.6007 56.9099 29.6397 56.9287 29.6725C56.9356 29.6848 56.9387 29.6865 56.9371 29.6848C56.9018 29.6585 56.8632 29.6372 56.8222 29.6214C56.7667 29.5983 56.7099 29.5784 56.6521 29.5618C56.5293 29.527 56.4043 29.5003 56.2781 29.482C55.498 29.3656 54.7015 29.4987 53.9996 29.8627C53.5212 30.0904 53.0794 30.39 52.6892 30.7512L52.6865 30.7537C52.6509 30.7864 52.605 30.8053 52.5569 30.807C51.3795 30.8477 50.2025 30.8769 49.026 30.8946C47.8476 30.9038 46.6726 30.9293 45.4849 30.8372C45.3321 30.8254 45.1801 30.8041 45.0298 30.7734C44.9865 30.7639 44.944 30.751 44.9027 30.735C44.8419 30.7069 44.827 30.6947 44.7908 30.6755L44.6013 30.5694C44.3465 30.4335 44.0824 30.3159 43.8112 30.2176C43.2694 30.0187 42.6944 29.9292 42.1187 29.9544C41.5382 29.9904 40.9664 30.1149 40.4227 30.3237C39.8709 30.5208 39.3316 30.7645 38.7702 30.9482C38.7649 30.9499 38.7592 30.9495 38.7542 30.947C38.7493 30.9445 38.7455 30.9401 38.7437 30.9348C38.7419 30.9295 38.7423 30.9237 38.7447 30.9187C38.7471 30.9136 38.7513 30.9098 38.7565 30.9079C39.3072 30.7028 39.8341 30.4386 40.3831 30.217C40.9323 29.9807 41.5135 29.8299 42.1072 29.7695C42.7089 29.7238 43.3135 29.7999 43.8858 29.9932C44.1711 30.0876 44.4493 30.2023 44.7186 30.3365L44.9179 30.4409C44.9469 30.456 44.9952 30.4823 45.002 30.4836C45.0298 30.4929 45.0581 30.5003 45.0868 30.5057C45.2256 30.5295 45.3657 30.5448 45.5063 30.5516C46.6668 30.6026 47.8461 30.5653 49.0181 30.5336C50.1916 30.4964 51.3649 30.4467 52.5382 30.3844L52.4061 30.4402C52.8248 30.0459 53.3012 29.7193 53.8183 29.4721C54.5952 29.069 55.4765 28.92 56.3406 29.0456C56.4863 29.0663 56.6305 29.0966 56.7723 29.1364C56.8468 29.1575 56.9199 29.183 56.9915 29.2126C57.0789 29.2467 57.1602 29.2952 57.232 29.3562C57.2612 29.3829 57.2865 29.4137 57.307 29.4476C57.3439 29.5076 57.3573 29.5793 57.3447 29.6488C57.3321 29.7182 57.2943 29.7804 57.2389 29.8232C57.2154 29.8425 57.1902 29.8595 57.1637 29.8741C57.0833 29.9182 57.0245 29.9424 56.962 29.9722C56.8397 30.0289 56.7225 30.0873 56.6062 30.1514C56.3752 30.2787 56.1522 30.4205 55.9387 30.5759C55.9188 30.591 55.8997 30.6074 55.8817 30.6248C55.8681 30.636 55.8646 30.6522 55.8785 30.6184C55.8867 30.5913 55.8868 30.5622 55.8787 30.535C55.8737 30.5178 55.8652 30.5019 55.8537 30.4883C55.8451 30.4806 55.8597 30.4935 55.879 30.5026C55.9298 30.527 55.9823 30.5474 56.0362 30.5636L56.0585 30.5708L56.0653 30.5716C56.0732 30.5737 56.0812 30.5748 56.0893 30.5749C56.1153 30.5773 56.1414 30.5782 56.1674 30.5775C56.4294 30.5617 56.69 30.5277 56.9474 30.4757C57.4802 30.3767 58.014 30.2533 58.5459 30.1251L59.343 29.9259L59.7479 29.8215C59.9299 29.7794 60.1206 29.8036 60.2867 29.8898C60.3726 29.9343 60.4487 29.996 60.5101 30.0713C60.5716 30.1466 60.6172 30.2338 60.6442 30.3276C60.6734 30.43 60.6741 30.5386 60.6463 30.6414C60.6198 30.7351 60.5745 30.8223 60.5132 30.8975C60.4082 31.0223 60.2817 31.1268 60.1398 31.206C60.009 31.2825 59.8713 31.3462 59.7286 31.3963L59.7544 31.3854L57.4745 32.5259L57.5692 32.333C57.6271 32.7127 57.6433 33.0977 57.6173 33.481C57.5989 33.8735 57.5028 34.2583 57.3347 34.6125C57.2448 34.7974 57.1179 34.9613 56.9621 35.0939C56.8063 35.2265 56.625 35.3248 56.4297 35.3827C56.3337 35.4098 56.2357 35.429 56.1367 35.44L55.8553 35.4586C55.6689 35.4661 55.4834 35.4671 55.2988 35.4615C54.5651 35.4323 53.8335 35.364 53.1069 35.2569C52.3816 35.156 51.6601 35.0349 50.9422 34.8935L50.9683 34.8941C49.1084 35.1444 47.2444 35.3445 45.3798 35.5482C43.5135 35.7327 41.6458 35.9167 39.7655 35.9798C38.8189 36.0271 37.87 35.9914 36.9295 35.8731C36.6832 35.8367 36.4422 35.7698 36.212 35.674C35.9751 35.5653 35.7638 35.4068 35.592 35.2091C35.275 34.8198 35.0495 34.3626 34.9326 33.8721C34.7091 32.9297 34.6257 31.9588 34.6853 30.9915C34.7229 30.034 34.8257 29.0802 34.9931 28.137C35.0003 28.0975 35.0213 28.062 35.0523 28.0369C35.0832 28.0117 35.122 27.9987 35.1616 28.0001C36.3307 28.0413 37.4996 28.0906 38.6682 28.1478C39.8368 28.2038 41.0058 28.249 42.1741 28.3153L42.1777 28.3155C42.1982 28.3167 42.2174 28.3259 42.2314 28.3411C42.2454 28.3564 42.2529 28.3765 42.2526 28.3973L42.2255 29.7521L42.2255 29.7545C42.2252 29.769 42.2192 29.7828 42.2089 29.7928C42.1986 29.8029 42.1847 29.8083 42.1704 29.8081C42.1561 29.8078 42.1425 29.8017 42.1326 29.7913C42.1227 29.7808 42.1173 29.7668 42.1176 29.7523L42.1176 29.7521L42.1505 28.3973C42.1507 28.3917 42.1529 28.3864 42.1569 28.3825C42.1608 28.3786 42.1661 28.3765 42.1716 28.3765C42.1771 28.3765 42.1823 28.3786 42.1863 28.3825C42.1902 28.3864 42.1924 28.3917 42.1926 28.3973Z" fill="#020202"/>
<path d="M64.2486 68L62.4419 68.0354L62.1406 69.0583C61.9981 71.592 58.6667 70.6649 58.6667 70.6649L58.8281 72.3655C58.8823 72.9898 58.8961 73.6162 58.8693 74.2419C58.8426 75.0112 59.0066 76.2283 60.2315 76.6066C62.0689 77.1742 67.1481 76.9606 67.1481 76.9606L67.6667 74.6451C67.0583 74.6168 66.4665 74.4604 65.941 74.1891C65.4155 73.9177 64.9717 73.5394 64.6469 73.0858C64.2957 72.5913 64.1218 72.0152 64.148 71.4326L64.2486 68Z" stroke="#020202" stroke-width="0.96777" stroke-linecap="round" stroke-linejoin="round"/>
<path d="M34.1667 46C34.3008 45.9955 34.428 45.9409 34.5212 45.8476C34.6145 45.7543 34.6667 45.6297 34.6667 45.5C34.6667 45.3703 34.6145 45.2457 34.5212 45.1524C34.428 45.0591 34.3008 45.0045 34.1667 45C34.0325 45.0045 33.9053 45.0591 33.8121 45.1524C33.7188 45.2457 33.6667 45.3703 33.6667 45.5C33.6667 45.6297 33.7188 45.7543 33.8121 45.8476C33.9053 45.9409 34.0325 45.9955 34.1667 46Z" fill="#020202"/>
<path d="M39.1667 45C39.3008 44.9955 39.428 44.9409 39.5212 44.8476C39.6145 44.7543 39.6667 44.6297 39.6667 44.5C39.6667 44.3703 39.6145 44.2457 39.5212 44.1524C39.428 44.0591 39.3008 44.0045 39.1667 44C39.0325 44.0045 38.9054 44.0591 38.8121 44.1524C38.7188 44.2457 38.6667 44.3703 38.6667 44.5C38.6667 44.6297 38.7188 44.7543 38.8121 44.8476C38.9054 44.9409 39.0325 44.9955 39.1667 45Z" fill="#020202"/>
<path d="M44.1667 19C44.3008 18.9955 44.428 18.9409 44.5212 18.8476C44.6145 18.7543 44.6667 18.6297 44.6667 18.5C44.6667 18.3703 44.6145 18.2457 44.5212 18.1524C44.428 18.0591 44.3008 18.0045 44.1667 18C44.0325 18.0045 43.9053 18.0591 43.8121 18.1524C43.7188 18.2457 43.6667 18.3703 43.6667 18.5C43.6667 18.6297 43.7188 18.7543 43.8121 18.8476C43.9053 18.9409 44.0325 18.9955 44.1667 19Z" fill="#020202"/>
<path d="M45.1667 22C45.3008 21.9955 45.428 21.9409 45.5212 21.8476C45.6145 21.7543 45.6667 21.6297 45.6667 21.5C45.6667 21.3703 45.6145 21.2457 45.5212 21.1524C45.428 21.0591 45.3008 21.0045 45.1667 21C45.0325 21.0045 44.9054 21.0591 44.8121 21.1524C44.7188 21.2457 44.6667 21.3703 44.6667 21.5C44.6667 21.6297 44.7188 21.7543 44.8121 21.8476C44.9054 21.9409 45.0325 21.9955 45.1667 22Z" fill="#020202"/>
<path d="M45.1667 24C45.3008 23.9955 45.428 23.9409 45.5212 23.8476C45.6145 23.7543 45.6667 23.6297 45.6667 23.5C45.6667 23.3703 45.6145 23.2457 45.5212 23.1524C45.428 23.0591 45.3008 23.0045 45.1667 23C45.0325 23.0045 44.9054 23.0591 44.8121 23.1524C44.7188 23.2457 44.6667 23.3703 44.6667 23.5C44.6667 23.6297 44.7188 23.7543 44.8121 23.8476C44.9054 23.9409 45.0325 23.9955 45.1667 24Z" fill="#020202"/>
<path d="M45.1667 27C45.3008 26.9955 45.428 26.9409 45.5212 26.8476C45.6145 26.7543 45.6667 26.6297 45.6667 26.5C45.6667 26.3703 45.6145 26.2457 45.5212 26.1524C45.428 26.0591 45.3008 26.0045 45.1667 26C45.0325 26.0045 44.9054 26.0591 44.8121 26.1524C44.7188 26.2457 44.6667 26.3703 44.6667 26.5C44.6667 26.6297 44.7188 26.7543 44.8121 26.8476C44.9054 26.9409 45.0325 26.9955 45.1667 27Z" fill="#020202"/>
<path d="M45.1667 29C45.3008 28.9955 45.428 28.9409 45.5212 28.8476C45.6145 28.7543 45.6667 28.6297 45.6667 28.5C45.6667 28.3703 45.6145 28.2457 45.5212 28.1524C45.428 28.0591 45.3008 28.0045 45.1667 28C45.0325 28.0045 44.9054 28.0591 44.8121 28.1524C44.7188 28.2457 44.6667 28.3703 44.6667 28.5C44.6667 28.6297 44.7188 28.7543 44.8121 28.8476C44.9054 28.9409 45.0325 28.9955 45.1667 29Z" fill="#020202"/>
<path d="M32.6667 34H35.616C36.158 35.3153 36.6667 35.2573 36.6667 35.2573C35.1794 37.4819 32.6667 34 32.6667 34Z" fill="#020202"/>
<path d="M44.6667 16C44.6667 16 47.2209 24.6626 45.1148 30.8486L45.7273 31C45.7273 31 46.6157 27.9176 47.0453 27.3734C49.8302 23.8457 48.1829 22.6345 48.1829 22.6345C46.2179 21.4497 44.6667 16 44.6667 16Z" fill="#F0B73F"/>
<path d="M35.6667 28.6575C36.9867 28.6447 38.2959 28.5711 39.6086 28.5194L43.5431 28.3562L43.4268 28.3813C43.4122 28.3874 43.4519 28.3646 43.4688 28.3519C43.4927 28.3333 43.5154 28.3136 43.5369 28.2927C43.5843 28.247 43.6278 28.198 43.6669 28.1459C43.7502 28.0302 43.8172 27.905 43.8664 27.7735C43.9685 27.487 44.0268 27.1887 44.0398 26.8871C44.0442 26.7314 44.0577 26.576 44.0478 26.4174L44.0412 26.1803L44.0187 25.9419C44.0074 25.7828 43.9846 25.6237 43.9577 25.4645L43.8833 24.9788C43.7728 24.3216 43.6917 23.6593 43.6472 22.9943C43.5909 22.3292 43.6132 21.6605 43.7139 21C43.7531 21.6577 43.8406 22.3121 43.9757 22.9587C44.0975 23.6057 44.243 24.2483 44.3966 24.8889C44.576 25.551 44.6667 26.2311 44.6667 26.9139C44.6564 27.2732 44.5913 27.6294 44.4734 27.9718C44.4082 28.1533 44.3181 28.3263 44.2054 28.4864C44.145 28.5713 44.0755 28.6502 43.9982 28.7222C43.9573 28.7601 43.9141 28.7959 43.8688 28.8291C43.8123 28.8698 43.7514 28.9048 43.687 28.9336C43.6531 28.9489 43.6162 28.9573 43.5786 28.9585L43.5706 28.9587C42.9096 28.9762 42.2519 28.9993 41.5921 28.9989C40.9327 29.0015 40.2732 29.001 39.6134 28.9808C38.9538 28.9679 38.2939 28.9337 37.6347 28.889C36.9744 28.8477 36.3172 28.7704 35.6667 28.6575Z" fill="#020202"/>
</svg>
