<svg width="65" height="64" viewBox="0 0 65 64" fill="none" xmlns="http://www.w3.org/2000/svg">
<rect x="0.5" width="64" height="64" rx="32" fill="#FCF3E0"/>
<path d="M32.7857 17C29.6611 17.0037 26.6655 18.2466 24.456 20.456C22.2466 22.6655 21.0037 25.6611 21 28.7857C20.9971 31.339 21.8311 33.8229 23.3743 35.8571C23.3743 35.8571 23.6957 36.2804 23.7482 36.3414L32.7857 47L41.8275 36.3361C41.8747 36.2793 42.1972 35.8571 42.1972 35.8571L42.1982 35.8539C43.7403 33.8205 44.5739 31.3378 44.5714 28.7857C44.5678 25.6611 43.3249 22.6655 41.1154 20.456C38.906 18.2466 35.9104 17.0037 32.7857 17ZM32.7857 33.0714C31.9381 33.0714 31.1095 32.8201 30.4047 32.3492C29.6999 31.8782 29.1506 31.2089 28.8262 30.4258C28.5019 29.6427 28.417 28.781 28.5824 27.9496C28.7477 27.1183 29.1559 26.3546 29.7553 25.7553C30.3546 25.1559 31.1183 24.7477 31.9496 24.5823C32.781 24.417 33.6427 24.5019 34.4258 24.8262C35.2089 25.1506 35.8782 25.6999 36.3492 26.4047C36.8201 27.1095 37.0714 27.9381 37.0714 28.7857C37.07 29.9219 36.618 31.0112 35.8146 31.8146C35.0112 32.618 33.9219 33.07 32.7857 33.0714Z" fill="#F0B73F"/>
</svg>
