<svg width="159" height="24" viewBox="0 0 159 24" fill="none" xmlns="http://www.w3.org/2000/svg">
<g clip-path="url(#clip0_4_1946)">
<path d="M41.625 0H58.125L43.875 24H27.375L41.625 0Z" fill="#043A53"/>
<path d="M26.625 0H38.625L24.375 24H12.375L26.625 0Z" fill="#92A7B0"/>
<path d="M14.625 0H23.625L9.375 24H0.375L14.625 0Z" fill="#C9D3D8"/>
</g>
<path d="M63 9.04261V6H77.3352V9.04261H71.9915V23.4545H68.3437V9.04261H63Z" fill="#043A53"/>
<path d="M78.2685 23.4545V10.3636H81.7883V12.6477H81.9247C82.1633 11.8352 82.5639 11.2216 83.1264 10.8068C83.6889 10.3864 84.3366 10.1761 85.0696 10.1761C85.2514 10.1761 85.4474 10.1875 85.6577 10.2102C85.8679 10.233 86.0526 10.2642 86.2116 10.304V13.5256C86.0412 13.4744 85.8054 13.429 85.5043 13.3892C85.2031 13.3494 84.9276 13.3295 84.6776 13.3295C84.1435 13.3295 83.6662 13.446 83.2457 13.679C82.831 13.9062 82.5014 14.2244 82.2571 14.6335C82.0185 15.0426 81.8991 15.5142 81.8991 16.0483V23.4545H78.2685Z" fill="#043A53"/>
<path d="M96.4837 17.8807V10.3636H100.114V23.4545H96.6285V21.0767H96.4922C96.1967 21.8438 95.7052 22.4602 95.0177 22.9261C94.3359 23.392 93.5035 23.625 92.5206 23.625C91.6456 23.625 90.8757 23.4261 90.2109 23.0284C89.5462 22.6307 89.0263 22.0653 88.6513 21.3324C88.282 20.5994 88.0945 19.7216 88.0888 18.6989V10.3636H91.7195V18.0511C91.7251 18.8239 91.9325 19.4347 92.3416 19.8835C92.7507 20.3324 93.299 20.5568 93.9865 20.5568C94.424 20.5568 94.8331 20.4574 95.2138 20.2585C95.5945 20.054 95.9013 19.7528 96.1342 19.3551C96.3729 18.9574 96.4893 18.4659 96.4837 17.8807Z" fill="#043A53"/>
<path d="M113.911 14.0966L110.587 14.3011C110.53 14.017 110.408 13.7614 110.22 13.5341C110.033 13.3011 109.786 13.1165 109.479 12.9801C109.178 12.8381 108.817 12.767 108.396 12.767C107.834 12.767 107.359 12.8864 106.973 13.125C106.587 13.358 106.393 13.6705 106.393 14.0625C106.393 14.375 106.518 14.6392 106.768 14.8551C107.018 15.071 107.447 15.2443 108.055 15.375L110.425 15.8523C111.697 16.1136 112.646 16.5341 113.271 17.1136C113.896 17.6932 114.209 18.4545 114.209 19.3977C114.209 20.2557 113.956 21.0085 113.45 21.6562C112.95 22.304 112.263 22.8097 111.388 23.1733C110.518 23.5312 109.516 23.7102 108.379 23.7102C106.646 23.7102 105.266 23.3494 104.237 22.6278C103.214 21.9006 102.615 20.9119 102.439 19.6619L106.01 19.4744C106.118 20.0028 106.379 20.4062 106.794 20.6847C107.209 20.9574 107.74 21.0938 108.388 21.0938C109.024 21.0938 109.536 20.9716 109.922 20.7273C110.314 20.4773 110.513 20.1563 110.518 19.7642C110.513 19.4347 110.374 19.1648 110.101 18.9545C109.828 18.7386 109.408 18.5739 108.839 18.4602L106.572 18.0085C105.294 17.7528 104.342 17.3097 103.717 16.679C103.098 16.0483 102.788 15.2443 102.788 14.267C102.788 13.4261 103.016 12.7017 103.47 12.0938C103.93 11.4858 104.575 11.017 105.405 10.6875C106.24 10.358 107.217 10.1932 108.337 10.1932C109.99 10.1932 111.291 10.5426 112.24 11.2415C113.195 11.9403 113.751 12.892 113.911 14.0966Z" fill="#043A53"/>
<path d="M123.458 10.3636V13.0909H115.575V10.3636H123.458ZM117.364 7.22727H120.995V19.4318C120.995 19.767 121.046 20.0284 121.148 20.2159C121.251 20.3977 121.393 20.5256 121.575 20.5994C121.762 20.6733 121.978 20.7102 122.222 20.7102C122.393 20.7102 122.563 20.696 122.734 20.6676C122.904 20.6335 123.035 20.608 123.126 20.5909L123.697 23.2926C123.515 23.3494 123.259 23.4148 122.93 23.4886C122.6 23.5682 122.2 23.6165 121.728 23.6335C120.853 23.6676 120.086 23.5511 119.427 23.2841C118.773 23.017 118.265 22.6023 117.901 22.0398C117.538 21.4773 117.359 20.767 117.364 19.9091V7.22727Z" fill="#043A53"/>
<path d="M131.597 23.7102C130.256 23.7102 129.103 23.4261 128.137 22.858C127.177 22.2841 126.438 21.4886 125.921 20.4716C125.41 19.4545 125.154 18.2841 125.154 16.9602C125.154 15.6193 125.413 14.4432 125.93 13.4318C126.452 12.4148 127.194 11.6222 128.154 11.054C129.114 10.4801 130.256 10.1932 131.58 10.1932C132.722 10.1932 133.722 10.4006 134.58 10.8153C135.438 11.2301 136.117 11.8125 136.617 12.5625C137.117 13.3125 137.393 14.1932 137.444 15.2045H134.018C133.921 14.5511 133.665 14.0256 133.251 13.6278C132.842 13.2244 132.305 13.0227 131.64 13.0227C131.077 13.0227 130.586 13.1761 130.165 13.483C129.751 13.7841 129.427 14.2244 129.194 14.804C128.961 15.3835 128.844 16.0852 128.844 16.9091C128.844 17.7443 128.958 18.4545 129.185 19.0398C129.418 19.625 129.745 20.071 130.165 20.3778C130.586 20.6847 131.077 20.8381 131.64 20.8381C132.055 20.8381 132.427 20.7528 132.756 20.5824C133.092 20.4119 133.367 20.1648 133.583 19.8409C133.805 19.5114 133.95 19.1165 134.018 18.6562H137.444C137.387 19.6562 137.114 20.5369 136.626 21.2983C136.143 22.054 135.475 22.6449 134.623 23.071C133.771 23.4972 132.762 23.7102 131.597 23.7102Z" fill="#043A53"/>
<path d="M145.683 23.7102C144.359 23.7102 143.214 23.429 142.249 22.8665C141.288 22.2983 140.547 21.5085 140.024 20.4972C139.501 19.4801 139.24 18.3011 139.24 16.9602C139.24 15.608 139.501 14.4261 140.024 13.4148C140.547 12.3977 141.288 11.608 142.249 11.0455C143.214 10.4773 144.359 10.1932 145.683 10.1932C147.007 10.1932 148.149 10.4773 149.109 11.0455C150.075 11.608 150.82 12.3977 151.342 13.4148C151.865 14.4261 152.126 15.608 152.126 16.9602C152.126 18.3011 151.865 19.4801 151.342 20.4972C150.82 21.5085 150.075 22.2983 149.109 22.8665C148.149 23.429 147.007 23.7102 145.683 23.7102ZM145.7 20.8977C146.303 20.8977 146.805 20.7273 147.209 20.3864C147.612 20.0398 147.916 19.5682 148.121 18.9716C148.331 18.375 148.436 17.696 148.436 16.9347C148.436 16.1733 148.331 15.4943 148.121 14.8977C147.916 14.3011 147.612 13.8295 147.209 13.483C146.805 13.1364 146.303 12.9631 145.7 12.9631C145.092 12.9631 144.581 13.1364 144.166 13.483C143.757 13.8295 143.447 14.3011 143.237 14.8977C143.033 15.4943 142.93 16.1733 142.93 16.9347C142.93 17.696 143.033 18.375 143.237 18.9716C143.447 19.5682 143.757 20.0398 144.166 20.3864C144.581 20.7273 145.092 20.8977 145.7 20.8977Z" fill="#043A53"/>
<path d="M156.609 23.6761C156.047 23.6761 155.564 23.4773 155.16 23.0795C154.763 22.6761 154.564 22.1932 154.564 21.6307C154.564 21.0739 154.763 20.5966 155.16 20.1989C155.564 19.8011 156.047 19.6023 156.609 19.6023C157.155 19.6023 157.632 19.8011 158.041 20.1989C158.45 20.5966 158.655 21.0739 158.655 21.6307C158.655 22.0057 158.558 22.3494 158.365 22.6619C158.178 22.9688 157.93 23.2159 157.624 23.4034C157.317 23.5852 156.979 23.6761 156.609 23.6761Z" fill="#043A53"/>
<defs>
<clipPath id="clip0_4_1946">
<rect width="58.5" height="24" fill="white"/>
</clipPath>
</defs>
</svg>
