<svg width="297" height="297" viewBox="0 0 297 297" fill="none" xmlns="http://www.w3.org/2000/svg">
<g filter="url(#filter0_d_1_387)">
<rect x="24" y="21" width="229" height="229" rx="114.5" fill="#043A53"/>
<rect x="22" y="19" width="233" height="233" rx="116.5" stroke="white" stroke-width="4"/>
<rect x="110.5" y="47" width="56" height="56" rx="28" fill="#F2F5F6" fill-opacity="0.16"/>
<g clip-path="url(#clip0_1_387)">
<path d="M126.622 60H150.378C150.641 60 150.901 60.0622 151.135 60.1815C151.369 60.3008 151.572 60.474 151.727 60.6867L158.098 69.4467C158.212 69.6025 158.267 69.7928 158.256 69.9852C158.245 70.1775 158.167 70.3601 158.037 70.5017L139.112 91.0033C138.962 91.1654 138.754 91.2613 138.533 91.2701C138.312 91.2788 138.097 91.1997 137.935 91.05C137.923 91.04 131.602 84.1917 118.963 70.5017C118.833 70.3601 118.755 70.1775 118.744 69.9852C118.733 69.7928 118.788 69.6025 118.902 69.4467L125.273 60.6867C125.428 60.474 125.631 60.3008 125.865 60.1815C126.099 60.0622 126.359 60 126.622 60ZM127.472 63.3333L122.805 69.75L138.5 86.75L154.195 69.75L149.528 63.3333H127.472Z" fill="white"/>
</g>
<path d="M127.96 145.312H123.04L121.816 151.936H126.736L127.96 145.312ZM138.28 141.04L137.848 143.512C137.72 144.12 137.464 144.576 137.08 144.88C136.696 145.168 136.08 145.312 135.232 145.312H132.832L131.608 151.936H134.992C135.6 151.936 136.032 152.12 136.288 152.488C136.56 152.84 136.632 153.456 136.504 154.336L136.192 156.208H130.984L129.16 166H126.424C126.152 166 125.896 165.936 125.656 165.808C125.416 165.68 125.216 165.504 125.056 165.28C124.896 165.056 124.776 164.8 124.696 164.512C124.632 164.208 124.64 163.888 124.72 163.552L126.112 156.208H121.216L119.8 163.84C119.672 164.608 119.352 165.16 118.84 165.496C118.328 165.832 117.76 166 117.136 166H114.496L116.32 156.208H113.56C112.952 156.208 112.52 156.032 112.264 155.68C112.008 155.312 111.944 154.696 112.072 153.832L112.384 151.936H116.944L118.168 145.312H113.032L113.488 142.84C113.616 142.232 113.872 141.784 114.256 141.496C114.64 141.192 115.256 141.04 116.104 141.04H118.792L120.256 133.312C120.384 132.672 120.68 132.176 121.144 131.824C121.608 131.472 122.152 131.296 122.776 131.296H125.488L123.64 141.04H128.56L130.408 131.296H133.048C133.656 131.296 134.144 131.496 134.512 131.896C134.88 132.28 135.016 132.768 134.92 133.36L133.456 141.04H138.28ZM162.86 161.56V166H143.66V161.56H150.692V141.328C150.692 140.528 150.716 139.704 150.764 138.856L145.772 143.032C145.484 143.256 145.196 143.4 144.908 143.464C144.636 143.512 144.372 143.512 144.116 143.464C143.876 143.416 143.66 143.336 143.468 143.224C143.276 143.096 143.132 142.96 143.036 142.816L141.164 140.248L151.748 131.248H156.62V161.56H162.86Z" fill="white"/>
<path d="M103.304 192.32C103.704 192.32 104.04 192.272 104.312 192.176C104.584 192.08 104.8 191.952 104.96 191.792C105.125 191.632 105.242 191.445 105.312 191.232C105.386 191.019 105.424 190.792 105.424 190.552C105.424 190.301 105.384 190.077 105.304 189.88C105.224 189.677 105.098 189.507 104.928 189.368C104.757 189.224 104.536 189.115 104.264 189.04C103.997 188.965 103.674 188.928 103.296 188.928H101.128V192.32H103.304ZM101.128 184.096V187.44H102.84C103.576 187.44 104.13 187.307 104.504 187.04C104.882 186.773 105.072 186.349 105.072 185.768C105.072 185.165 104.901 184.736 104.56 184.48C104.218 184.224 103.685 184.096 102.96 184.096H101.128ZM102.96 182.432C103.717 182.432 104.365 182.504 104.904 182.648C105.442 182.792 105.882 182.997 106.224 183.264C106.57 183.531 106.824 183.853 106.984 184.232C107.144 184.611 107.224 185.037 107.224 185.512C107.224 185.784 107.184 186.045 107.104 186.296C107.024 186.541 106.898 186.773 106.727 186.992C106.562 187.205 106.349 187.4 106.088 187.576C105.832 187.752 105.525 187.901 105.168 188.024C106.757 188.381 107.552 189.24 107.552 190.6C107.552 191.091 107.458 191.544 107.272 191.96C107.085 192.376 106.813 192.736 106.456 193.04C106.098 193.339 105.658 193.573 105.136 193.744C104.613 193.915 104.016 194 103.344 194H98.9755V182.432H102.96ZM114.373 188.952C114.373 188.696 114.336 188.456 114.261 188.232C114.192 188.003 114.085 187.803 113.941 187.632C113.797 187.461 113.613 187.328 113.389 187.232C113.171 187.131 112.915 187.08 112.621 187.08C112.051 187.08 111.6 187.243 111.269 187.568C110.944 187.893 110.736 188.355 110.645 188.952H114.373ZM110.605 190.144C110.637 190.565 110.712 190.931 110.829 191.24C110.947 191.544 111.101 191.797 111.293 192C111.485 192.197 111.712 192.347 111.973 192.448C112.24 192.544 112.533 192.592 112.853 192.592C113.173 192.592 113.448 192.555 113.677 192.48C113.912 192.405 114.115 192.323 114.285 192.232C114.461 192.141 114.613 192.059 114.741 191.984C114.875 191.909 115.003 191.872 115.125 191.872C115.291 191.872 115.413 191.933 115.493 192.056L116.061 192.776C115.843 193.032 115.597 193.248 115.325 193.424C115.053 193.595 114.768 193.733 114.469 193.84C114.176 193.941 113.875 194.013 113.565 194.056C113.261 194.099 112.965 194.12 112.677 194.12C112.107 194.12 111.576 194.027 111.085 193.84C110.595 193.648 110.168 193.368 109.805 193C109.443 192.627 109.157 192.168 108.949 191.624C108.741 191.075 108.637 190.44 108.637 189.72C108.637 189.16 108.728 188.635 108.909 188.144C109.091 187.648 109.349 187.219 109.685 186.856C110.027 186.488 110.44 186.197 110.925 185.984C111.416 185.771 111.968 185.664 112.581 185.664C113.099 185.664 113.576 185.747 114.013 185.912C114.451 186.077 114.827 186.32 115.141 186.64C115.456 186.955 115.701 187.344 115.877 187.808C116.059 188.267 116.149 188.792 116.149 189.384C116.149 189.683 116.117 189.885 116.053 189.992C115.989 190.093 115.867 190.144 115.685 190.144H110.605ZM122.64 187.392C122.587 187.477 122.531 187.539 122.472 187.576C122.414 187.608 122.339 187.624 122.248 187.624C122.152 187.624 122.048 187.597 121.936 187.544C121.83 187.491 121.704 187.432 121.56 187.368C121.416 187.299 121.251 187.237 121.064 187.184C120.883 187.131 120.667 187.104 120.416 187.104C120.027 187.104 119.72 187.187 119.496 187.352C119.278 187.517 119.168 187.733 119.168 188C119.168 188.176 119.224 188.325 119.336 188.448C119.454 188.565 119.606 188.669 119.792 188.76C119.984 188.851 120.2 188.933 120.44 189.008C120.68 189.077 120.923 189.155 121.168 189.24C121.419 189.325 121.664 189.424 121.904 189.536C122.144 189.643 122.358 189.781 122.544 189.952C122.736 190.117 122.888 190.317 123 190.552C123.118 190.787 123.176 191.069 123.176 191.4C123.176 191.795 123.104 192.16 122.96 192.496C122.822 192.827 122.614 193.115 122.336 193.36C122.059 193.6 121.715 193.789 121.304 193.928C120.899 194.061 120.43 194.128 119.896 194.128C119.614 194.128 119.336 194.101 119.064 194.048C118.798 194 118.539 193.931 118.288 193.84C118.043 193.749 117.814 193.643 117.6 193.52C117.392 193.397 117.208 193.264 117.048 193.12L117.504 192.368C117.563 192.277 117.632 192.208 117.712 192.16C117.792 192.112 117.894 192.088 118.016 192.088C118.139 192.088 118.254 192.123 118.36 192.192C118.472 192.261 118.6 192.336 118.744 192.416C118.888 192.496 119.056 192.571 119.248 192.64C119.446 192.709 119.694 192.744 119.992 192.744C120.227 192.744 120.427 192.717 120.592 192.664C120.763 192.605 120.902 192.531 121.008 192.44C121.12 192.349 121.2 192.245 121.248 192.128C121.302 192.005 121.328 191.88 121.328 191.752C121.328 191.56 121.27 191.403 121.152 191.28C121.04 191.157 120.888 191.051 120.696 190.96C120.51 190.869 120.294 190.789 120.048 190.72C119.808 190.645 119.56 190.565 119.304 190.48C119.054 190.395 118.806 190.296 118.56 190.184C118.32 190.067 118.104 189.92 117.912 189.744C117.726 189.568 117.574 189.352 117.456 189.096C117.344 188.84 117.288 188.531 117.288 188.168C117.288 187.832 117.355 187.512 117.488 187.208C117.622 186.904 117.816 186.64 118.072 186.416C118.334 186.187 118.656 186.005 119.04 185.872C119.43 185.733 119.878 185.664 120.384 185.664C120.95 185.664 121.464 185.757 121.928 185.944C122.392 186.131 122.779 186.376 123.088 186.68L122.64 187.392ZM127.4 194.128C126.685 194.128 126.136 193.928 125.752 193.528C125.373 193.123 125.184 192.565 125.184 191.856V187.272H124.344C124.237 187.272 124.146 187.237 124.072 187.168C123.997 187.099 123.96 186.995 123.96 186.856V186.072L125.28 185.856L125.696 183.616C125.722 183.509 125.773 183.427 125.848 183.368C125.922 183.309 126.018 183.28 126.136 183.28H127.16V185.864H129.352V187.272H127.16V191.72C127.16 191.976 127.221 192.176 127.344 192.32C127.472 192.464 127.645 192.536 127.864 192.536C127.986 192.536 128.088 192.523 128.168 192.496C128.253 192.464 128.325 192.432 128.384 192.4C128.448 192.368 128.504 192.339 128.552 192.312C128.6 192.28 128.648 192.264 128.696 192.264C128.754 192.264 128.802 192.28 128.84 192.312C128.877 192.339 128.917 192.381 128.96 192.44L129.552 193.4C129.264 193.64 128.933 193.821 128.56 193.944C128.186 194.067 127.8 194.128 127.4 194.128ZM140.4 189.632L138.992 185.784C138.923 185.613 138.851 185.411 138.776 185.176C138.701 184.941 138.627 184.688 138.552 184.416C138.483 184.688 138.411 184.944 138.336 185.184C138.261 185.419 138.189 185.624 138.12 185.8L136.72 189.632H140.4ZM144.2 194H142.536C142.349 194 142.197 193.955 142.08 193.864C141.963 193.768 141.875 193.651 141.816 193.512L140.952 191.152H136.16L135.296 193.512C135.253 193.635 135.171 193.747 135.048 193.848C134.925 193.949 134.773 194 134.592 194H132.912L137.464 182.432H139.656L144.2 194ZM156.321 185.792L153.713 194H152.129C151.948 194 151.822 193.883 151.753 193.648L150.281 188.904C150.233 188.744 150.188 188.587 150.145 188.432C150.108 188.272 150.076 188.112 150.049 187.952C150.017 188.112 149.98 188.275 149.937 188.44C149.9 188.6 149.857 188.76 149.809 188.92L148.313 193.648C148.249 193.883 148.108 194 147.889 194H146.369L143.769 185.792H145.345C145.489 185.792 145.612 185.827 145.713 185.896C145.814 185.965 145.881 186.053 145.913 186.16L147.089 190.544C147.148 190.784 147.198 191.019 147.241 191.248C147.289 191.477 147.329 191.707 147.361 191.936C147.42 191.707 147.481 191.477 147.545 191.248C147.614 191.019 147.686 190.784 147.761 190.544L149.121 186.144C149.153 186.037 149.214 185.949 149.305 185.88C149.401 185.811 149.516 185.776 149.649 185.776H150.521C150.66 185.776 150.777 185.811 150.873 185.88C150.974 185.949 151.041 186.037 151.073 186.144L152.393 190.544C152.462 190.784 152.526 191.021 152.585 191.256C152.649 191.485 152.71 191.715 152.769 191.944C152.838 191.491 152.937 191.024 153.065 190.544L154.273 186.16C154.31 186.053 154.377 185.965 154.473 185.896C154.569 185.827 154.684 185.792 154.817 185.792H156.321ZM161.671 190.496C161.101 190.523 160.621 190.573 160.231 190.648C159.842 190.717 159.53 190.808 159.295 190.92C159.061 191.032 158.893 191.163 158.791 191.312C158.69 191.461 158.639 191.624 158.639 191.8C158.639 192.147 158.741 192.395 158.943 192.544C159.151 192.693 159.421 192.768 159.751 192.768C160.157 192.768 160.506 192.696 160.799 192.552C161.098 192.403 161.389 192.179 161.671 191.88V190.496ZM157.143 186.936C158.087 186.072 159.223 185.64 160.551 185.64C161.031 185.64 161.461 185.72 161.839 185.88C162.218 186.035 162.538 186.253 162.799 186.536C163.061 186.813 163.258 187.147 163.391 187.536C163.53 187.925 163.599 188.352 163.599 188.816V194H162.703C162.517 194 162.373 193.973 162.271 193.92C162.17 193.861 162.09 193.747 162.031 193.576L161.855 192.984C161.647 193.171 161.445 193.336 161.247 193.48C161.05 193.619 160.845 193.736 160.631 193.832C160.418 193.928 160.189 194 159.943 194.048C159.703 194.101 159.437 194.128 159.143 194.128C158.797 194.128 158.477 194.083 158.183 193.992C157.89 193.896 157.637 193.755 157.423 193.568C157.21 193.381 157.045 193.149 156.927 192.872C156.81 192.595 156.751 192.272 156.751 191.904C156.751 191.696 156.786 191.491 156.855 191.288C156.925 191.08 157.037 190.883 157.191 190.696C157.351 190.509 157.557 190.333 157.807 190.168C158.058 190.003 158.365 189.859 158.727 189.736C159.095 189.613 159.522 189.515 160.007 189.44C160.493 189.36 161.047 189.312 161.671 189.296V188.816C161.671 188.267 161.554 187.861 161.319 187.6C161.085 187.333 160.746 187.2 160.303 187.2C159.983 187.2 159.717 187.237 159.503 187.312C159.295 187.387 159.111 187.472 158.951 187.568C158.791 187.659 158.645 187.741 158.511 187.816C158.383 187.891 158.239 187.928 158.079 187.928C157.941 187.928 157.823 187.893 157.727 187.824C157.631 187.749 157.554 187.664 157.495 187.568L157.143 186.936ZM167.324 187.216C167.58 186.725 167.884 186.341 168.236 186.064C168.588 185.781 169.004 185.64 169.484 185.64C169.863 185.64 170.167 185.723 170.396 185.888L170.268 187.368C170.242 187.464 170.202 187.533 170.148 187.576C170.1 187.613 170.034 187.632 169.948 187.632C169.868 187.632 169.748 187.619 169.588 187.592C169.434 187.565 169.282 187.552 169.132 187.552C168.914 187.552 168.719 187.584 168.548 187.648C168.378 187.712 168.223 187.805 168.084 187.928C167.951 188.045 167.831 188.189 167.724 188.36C167.623 188.531 167.527 188.725 167.436 188.944V194H165.46V185.792H166.62C166.823 185.792 166.964 185.829 167.044 185.904C167.124 185.973 167.178 186.101 167.204 186.288L167.324 187.216ZM176.362 187.888C176.138 187.616 175.893 187.424 175.626 187.312C175.365 187.2 175.082 187.144 174.778 187.144C174.48 187.144 174.21 187.2 173.97 187.312C173.73 187.424 173.525 187.595 173.354 187.824C173.184 188.048 173.053 188.336 172.962 188.688C172.872 189.035 172.826 189.445 172.826 189.92C172.826 190.4 172.864 190.808 172.938 191.144C173.018 191.475 173.13 191.747 173.274 191.96C173.418 192.168 173.594 192.32 173.802 192.416C174.01 192.507 174.242 192.552 174.498 192.552C174.909 192.552 175.258 192.467 175.546 192.296C175.834 192.125 176.106 191.883 176.362 191.568V187.888ZM178.338 182.112V194H177.13C176.869 194 176.704 193.88 176.634 193.64L176.466 192.848C176.136 193.227 175.754 193.533 175.322 193.768C174.896 194.003 174.397 194.12 173.826 194.12C173.378 194.12 172.968 194.027 172.594 193.84C172.221 193.653 171.898 193.384 171.626 193.032C171.36 192.675 171.152 192.235 171.002 191.712C170.858 191.189 170.786 190.592 170.786 189.92C170.786 189.312 170.869 188.747 171.034 188.224C171.2 187.701 171.437 187.248 171.746 186.864C172.056 186.48 172.426 186.181 172.858 185.968C173.29 185.749 173.776 185.64 174.314 185.64C174.773 185.64 175.165 185.712 175.49 185.856C175.816 186 176.106 186.195 176.362 186.44V182.112H178.338ZM127.786 216.16C127.999 216.16 128.167 216.221 128.29 216.344C128.418 216.461 128.482 216.619 128.482 216.816V218H120.546V217.344C120.546 217.211 120.572 217.072 120.626 216.928C120.684 216.779 120.775 216.645 120.898 216.528L124.41 213.008C124.703 212.709 124.964 212.424 125.194 212.152C125.428 211.88 125.623 211.611 125.778 211.344C125.932 211.077 126.05 210.808 126.13 210.536C126.215 210.259 126.258 209.968 126.258 209.664C126.258 209.387 126.218 209.144 126.138 208.936C126.058 208.723 125.943 208.544 125.794 208.4C125.65 208.256 125.474 208.149 125.266 208.08C125.063 208.005 124.834 207.968 124.578 207.968C124.343 207.968 124.124 208.003 123.922 208.072C123.724 208.136 123.548 208.229 123.394 208.352C123.239 208.469 123.108 208.608 123.002 208.768C122.895 208.928 122.815 209.104 122.762 209.296C122.671 209.541 122.554 209.704 122.41 209.784C122.266 209.864 122.058 209.883 121.786 209.84L120.746 209.656C120.826 209.101 120.98 208.616 121.21 208.2C121.439 207.779 121.724 207.429 122.066 207.152C122.412 206.869 122.807 206.659 123.25 206.52C123.698 206.376 124.178 206.304 124.69 206.304C125.223 206.304 125.711 206.384 126.154 206.544C126.596 206.699 126.975 206.92 127.29 207.208C127.604 207.496 127.85 207.843 128.026 208.248C128.202 208.653 128.29 209.104 128.29 209.6C128.29 210.027 128.226 210.421 128.098 210.784C127.975 211.147 127.807 211.493 127.594 211.824C127.386 212.155 127.14 212.475 126.858 212.784C126.575 213.093 126.279 213.408 125.97 213.728L123.362 216.392C123.612 216.317 123.86 216.261 124.106 216.224C124.356 216.181 124.594 216.16 124.818 216.16H127.786ZM138.099 212.216C138.099 213.224 137.989 214.101 137.771 214.848C137.557 215.589 137.259 216.203 136.875 216.688C136.496 217.173 136.045 217.536 135.523 217.776C135.005 218.011 134.445 218.128 133.843 218.128C133.24 218.128 132.68 218.011 132.163 217.776C131.651 217.536 131.205 217.173 130.827 216.688C130.448 216.203 130.152 215.589 129.939 214.848C129.725 214.101 129.619 213.224 129.619 212.216C129.619 211.203 129.725 210.325 129.939 209.584C130.152 208.843 130.448 208.229 130.827 207.744C131.205 207.259 131.651 206.899 132.163 206.664C132.68 206.424 133.24 206.304 133.843 206.304C134.445 206.304 135.005 206.424 135.523 206.664C136.045 206.899 136.496 207.259 136.875 207.744C137.259 208.229 137.557 208.843 137.771 209.584C137.989 210.325 138.099 211.203 138.099 212.216ZM136.059 212.216C136.059 211.379 135.997 210.685 135.875 210.136C135.752 209.587 135.587 209.149 135.379 208.824C135.176 208.499 134.941 208.272 134.675 208.144C134.408 208.011 134.131 207.944 133.843 207.944C133.56 207.944 133.285 208.011 133.019 208.144C132.757 208.272 132.525 208.499 132.323 208.824C132.12 209.149 131.957 209.587 131.835 210.136C131.717 210.685 131.659 211.379 131.659 212.216C131.659 213.053 131.717 213.747 131.835 214.296C131.957 214.845 132.12 215.283 132.323 215.608C132.525 215.933 132.757 216.163 133.019 216.296C133.285 216.424 133.56 216.488 133.843 216.488C134.131 216.488 134.408 216.424 134.675 216.296C134.941 216.163 135.176 215.933 135.379 215.608C135.587 215.283 135.752 214.845 135.875 214.296C135.997 213.747 136.059 213.053 136.059 212.216ZM146.348 216.16C146.561 216.16 146.729 216.221 146.852 216.344C146.98 216.461 147.044 216.619 147.044 216.816V218H139.108V217.344C139.108 217.211 139.135 217.072 139.188 216.928C139.247 216.779 139.337 216.645 139.46 216.528L142.972 213.008C143.265 212.709 143.527 212.424 143.756 212.152C143.991 211.88 144.185 211.611 144.34 211.344C144.495 211.077 144.612 210.808 144.692 210.536C144.777 210.259 144.82 209.968 144.82 209.664C144.82 209.387 144.78 209.144 144.7 208.936C144.62 208.723 144.505 208.544 144.356 208.4C144.212 208.256 144.036 208.149 143.828 208.08C143.625 208.005 143.396 207.968 143.14 207.968C142.905 207.968 142.687 208.003 142.484 208.072C142.287 208.136 142.111 208.229 141.956 208.352C141.801 208.469 141.671 208.608 141.564 208.768C141.457 208.928 141.377 209.104 141.324 209.296C141.233 209.541 141.116 209.704 140.972 209.784C140.828 209.864 140.62 209.883 140.348 209.84L139.308 209.656C139.388 209.101 139.543 208.616 139.772 208.2C140.001 207.779 140.287 207.429 140.628 207.152C140.975 206.869 141.369 206.659 141.812 206.52C142.26 206.376 142.74 206.304 143.252 206.304C143.785 206.304 144.273 206.384 144.716 206.544C145.159 206.699 145.537 206.92 145.852 207.208C146.167 207.496 146.412 207.843 146.588 208.248C146.764 208.653 146.852 209.104 146.852 209.6C146.852 210.027 146.788 210.421 146.66 210.784C146.537 211.147 146.369 211.493 146.156 211.824C145.948 212.155 145.703 212.475 145.42 212.784C145.137 213.093 144.841 213.408 144.532 213.728L141.924 216.392C142.175 216.317 142.423 216.261 142.668 216.224C142.919 216.181 143.156 216.16 143.38 216.16H146.348ZM148.645 209.656C148.725 209.101 148.88 208.616 149.109 208.2C149.339 207.779 149.624 207.429 149.965 207.152C150.312 206.869 150.707 206.659 151.149 206.52C151.597 206.376 152.077 206.304 152.589 206.304C153.123 206.304 153.603 206.381 154.029 206.536C154.461 206.685 154.829 206.896 155.133 207.168C155.437 207.435 155.669 207.749 155.829 208.112C155.995 208.475 156.077 208.867 156.077 209.288C156.077 209.656 156.035 209.981 155.949 210.264C155.869 210.541 155.752 210.784 155.597 210.992C155.443 211.2 155.251 211.376 155.021 211.52C154.792 211.664 154.533 211.784 154.245 211.88C154.939 212.099 155.456 212.432 155.797 212.88C156.139 213.328 156.309 213.891 156.309 214.568C156.309 215.144 156.203 215.653 155.989 216.096C155.776 216.539 155.488 216.912 155.125 217.216C154.763 217.515 154.341 217.741 153.861 217.896C153.387 218.051 152.883 218.128 152.349 218.128C151.768 218.128 151.261 218.061 150.829 217.928C150.397 217.795 150.021 217.597 149.701 217.336C149.381 217.075 149.109 216.755 148.885 216.376C148.661 215.997 148.469 215.56 148.309 215.064L149.181 214.704C149.411 214.608 149.624 214.584 149.821 214.632C150.024 214.675 150.171 214.781 150.261 214.952C150.357 215.139 150.461 215.323 150.573 215.504C150.691 215.685 150.829 215.848 150.989 215.992C151.149 216.131 151.336 216.245 151.549 216.336C151.768 216.421 152.027 216.464 152.325 216.464C152.661 216.464 152.955 216.411 153.205 216.304C153.456 216.192 153.664 216.048 153.829 215.872C154 215.696 154.125 215.501 154.205 215.288C154.291 215.069 154.333 214.851 154.333 214.632C154.333 214.355 154.304 214.104 154.245 213.88C154.187 213.651 154.064 213.456 153.877 213.296C153.691 213.136 153.421 213.011 153.069 212.92C152.723 212.829 152.256 212.784 151.669 212.784V211.376C152.155 211.371 152.557 211.325 152.877 211.24C153.197 211.155 153.451 211.037 153.637 210.888C153.829 210.733 153.963 210.549 154.037 210.336C154.112 210.123 154.149 209.888 154.149 209.632C154.149 209.088 153.997 208.675 153.693 208.392C153.389 208.109 152.984 207.968 152.477 207.968C152.243 207.968 152.027 208.003 151.829 208.072C151.632 208.136 151.453 208.229 151.293 208.352C151.139 208.469 151.008 208.608 150.901 208.768C150.795 208.928 150.715 209.104 150.661 209.296C150.571 209.541 150.451 209.704 150.301 209.784C150.157 209.864 149.952 209.883 149.685 209.84L148.645 209.656Z" fill="white"/>
</g>
<defs>
<filter id="filter0_d_1_387" x="0" y="0" width="297" height="297" filterUnits="userSpaceOnUse" color-interpolation-filters="sRGB">
<feFlood flood-opacity="0" result="BackgroundImageFix"/>
<feColorMatrix in="SourceAlpha" type="matrix" values="0 0 0 0 0 0 0 0 0 0 0 0 0 0 0 0 0 0 127 0" result="hardAlpha"/>
<feOffset dx="10" dy="13"/>
<feGaussianBlur stdDeviation="15"/>
<feComposite in2="hardAlpha" operator="out"/>
<feColorMatrix type="matrix" values="0 0 0 0 0.0156863 0 0 0 0 0.227451 0 0 0 0 0.32549 0 0 0 0.24 0"/>
<feBlend mode="normal" in2="BackgroundImageFix" result="effect1_dropShadow_1_387"/>
<feBlend mode="normal" in="SourceGraphic" in2="effect1_dropShadow_1_387" result="shape"/>
</filter>
<clipPath id="clip0_1_387">
<rect width="40" height="40" fill="white" transform="translate(118.5 55)"/>
</clipPath>
</defs>
</svg>
