<svg width="130" height="32" viewBox="0 0 130 32" fill="none" xmlns="http://www.w3.org/2000/svg">
<path fill-rule="evenodd" clip-rule="evenodd" d="M73.6217 21.0075C73.6217 21.2654 73.5976 21.5331 73.5303 21.7647C73.2459 22.7331 72.2681 23.5533 71.0476 23.5533C70.0311 23.5533 69.2194 22.9579 69.2194 21.7015C69.2194 19.7797 71.2787 19.2489 73.6217 19.2617V21.0075ZM77.2958 17.6595C77.2958 14.4889 75.978 11.7002 71.5281 11.7002C69.2442 11.7002 67.4292 12.3596 66.4397 12.9468L67.1637 15.4949C68.0683 14.9076 69.5104 14.4219 70.8743 14.4219C73.1325 14.4167 73.5018 15.737 73.5018 16.5828V16.7828C68.5795 16.7745 65.47 18.5264 65.47 22.0962C65.47 24.2766 67.0547 26.3202 69.8073 26.3202C71.5025 26.3202 72.9182 25.6247 73.7665 24.512H73.8521C73.8521 24.512 74.413 26.9277 77.51 26.0052C77.3491 24.9984 77.2958 23.924 77.2958 22.6338V17.6595Z" fill="#787878"/>
<path fill-rule="evenodd" clip-rule="evenodd" d="M0.110046 8.26025C0.110046 8.26025 3.30142 21.2655 3.81093 23.3766C4.40537 25.8406 5.47666 26.7464 8.56569 26.1365L10.558 18.0732C11.0639 16.0689 11.4021 14.642 11.7266 12.6045H11.7839C12.0111 14.6629 12.337 16.0754 12.7529 18.0797C12.7529 18.0797 13.5636 21.7396 13.9795 23.6624C14.3968 25.5837 15.5552 26.7962 18.5804 26.1365L23.33 8.26025H19.4956L17.8742 15.9887C17.4372 18.2377 17.0438 19.9966 16.7375 22.0551H16.6838C16.4059 20.0168 16.0546 18.3287 15.6104 16.1374L13.9229 8.26025H9.92658L8.12222 15.9382C7.61053 18.2716 7.13222 20.1561 6.82739 22.1431H6.77295C6.46085 20.2716 6.04497 17.9036 5.59714 15.6452C5.59714 15.6452 4.52295 10.1541 4.14698 8.26025" fill="#787878"/>
<path fill-rule="evenodd" clip-rule="evenodd" d="M30.6198 21.0075C30.6198 21.2654 30.5986 21.5331 30.5284 21.7647C30.2439 22.7331 29.2677 23.5533 28.0473 23.5533C27.0286 23.5533 26.2199 22.9579 26.2199 21.7015C26.2199 19.7797 28.2776 19.2489 30.6198 19.2617V21.0075ZM34.2936 17.6595C34.2936 14.4889 32.9766 11.7002 28.527 11.7002C26.2411 11.7002 24.4283 12.3596 23.4375 12.9468L24.1629 15.4949C25.0674 14.9076 26.508 14.4219 27.8732 14.4219C30.132 14.4167 30.5013 15.737 30.5013 16.5828V16.7828C25.5786 16.7745 22.47 18.5264 22.47 22.0962C22.47 24.2766 24.0532 26.3202 26.8056 26.3202C28.4992 26.3202 29.9163 25.6247 30.7653 24.512H30.8479C30.8479 24.512 31.411 26.9277 34.51 26.0052C34.3462 24.9984 34.2936 23.924 34.2936 22.6338V17.6595Z" fill="#787878"/>
<path fill-rule="evenodd" clip-rule="evenodd" d="M40.53 22.4851V8.26025H37.09V26.3203H40.53" fill="#787878"/>
<path fill-rule="evenodd" clip-rule="evenodd" d="M89.55 8.26025V21.3634C89.55 23.1667 89.8986 24.4337 90.6472 25.2074C91.2986 25.8821 92.3737 26.3203 93.6617 26.3203C94.7596 26.3203 95.8384 26.118 96.3446 25.9338L96.2967 23.1151C95.9194 23.2054 95.4832 23.2779 94.8886 23.2779C93.6271 23.2779 93.2041 22.492 93.2041 20.8693V15.8587H96.43V12.4599H93.2041V8.26025" fill="#787878"/>
<path fill-rule="evenodd" clip-rule="evenodd" d="M80.09 12.8638V26.3201H83.7736V19.4292C83.7736 19.0575 83.797 18.7327 83.8538 18.4362C84.128 16.9927 85.2112 16.0713 86.7689 16.0713C87.1957 16.0713 87.5019 16.1176 87.83 16.166V12.6432C87.5544 12.5854 87.3655 12.5601 87.0196 12.5601C85.6431 12.5601 84.079 13.4626 83.4227 15.4016H83.3218V12.8638" fill="#787878"/>
<path fill-rule="evenodd" clip-rule="evenodd" d="M43.11 12.8638V26.3201H46.8678V18.4283C46.8678 18.0587 46.9109 17.666 47.0447 17.3275C47.3568 16.5327 48.1164 15.6019 49.3278 15.6019C50.844 15.6019 51.5538 16.8488 51.5538 18.651V26.3201H55.3071V18.3328C55.3071 17.9799 55.3568 17.5553 55.4646 17.2415C55.7723 16.3374 56.5906 15.6019 57.7188 15.6019C59.2565 15.6019 59.9938 16.8285 59.9938 18.9468V26.3201H63.75V18.395C63.75 14.2141 61.5687 12.5601 59.1079 12.5601C58.0168 12.5601 57.1562 12.8255 56.3788 13.2905C55.724 13.6818 55.1391 14.2358 54.627 14.9662H54.572C53.9774 13.5162 52.5809 12.5601 50.76 12.5601C48.4218 12.5601 47.3717 13.7129 46.7325 14.6921H46.6768V12.8638" fill="#787878"/>
<path fill-rule="evenodd" clip-rule="evenodd" d="M116.637 10.84C117.372 10.84 117.98 10.4665 118.062 9.98457L118.79 1.96301C118.79 1.17077 117.837 0.52002 116.639 0.52002C115.443 0.52002 114.49 1.17077 114.49 1.96301L115.217 9.98457C115.297 10.4665 115.905 10.84 116.642 10.84" fill="#787878"/>
<path fill-rule="evenodd" clip-rule="evenodd" d="M111.66 13.4031C112.014 12.7362 111.987 11.9845 111.612 11.6522L105.097 6.68863C104.42 6.26459 103.404 6.77652 102.826 7.86283C102.25 8.94682 102.35 10.1588 103.027 10.5844L110.24 14.2319C110.694 14.4146 111.308 14.0646 111.662 13.4" fill="#787878"/>
<path fill-rule="evenodd" clip-rule="evenodd" d="M120.757 13.4C121.113 14.0646 121.725 14.4146 122.177 14.2319L129.393 10.5843C130.072 10.1587 130.169 8.94675 129.591 7.86274C129.015 6.77719 127.999 6.26449 127.321 6.68853L120.805 11.6521C120.433 11.9844 120.408 12.7362 120.759 13.4031" fill="#787878"/>
<path fill-rule="evenodd" clip-rule="evenodd" d="M116.637 21.1602C117.372 21.1602 117.98 21.5336 118.062 22.0155L118.79 30.0359C118.79 30.8281 117.837 31.4802 116.639 31.4802C115.443 31.4802 114.49 30.8281 114.49 30.0359L115.217 22.0155C115.297 21.5336 115.905 21.1602 116.642 21.1602" fill="#787878"/>
<path fill-rule="evenodd" clip-rule="evenodd" d="M120.757 17.7405C121.113 17.0729 121.725 16.726 122.177 16.9079L129.393 20.5545C130.072 20.9808 130.169 22.1927 129.591 23.2782C129.015 24.3614 127.999 24.8756 127.321 24.4516L120.805 19.4883C120.433 19.1544 120.408 18.4035 120.759 17.7375" fill="#787878"/>
<path fill-rule="evenodd" clip-rule="evenodd" d="M111.66 17.7385C112.014 18.4047 111.987 19.1549 111.612 19.4895L105.097 24.4512C104.42 24.8753 103.404 24.3633 102.826 23.28C102.25 22.1944 102.35 20.9807 103.027 20.5543L110.24 16.9088C110.694 16.7246 111.308 17.0731 111.662 17.7408" fill="#787878"/>
</svg>
